<?xml version="1.0" encoding="UTF-8" standalone="no"?>
<!-- Created with Inkscape (http://www.inkscape.org/) -->

<svg
   xmlns:dc="http://purl.org/dc/elements/1.1/"
   xmlns:cc="http://creativecommons.org/ns#"
   xmlns:rdf="http://www.w3.org/1999/02/22-rdf-syntax-ns#"
   xmlns:svg="http://www.w3.org/2000/svg"
   xmlns="http://www.w3.org/2000/svg"
   xmlns:sodipodi="http://sodipodi.sourceforge.net/DTD/sodipodi-0.dtd"
   xmlns:inkscape="http://www.inkscape.org/namespaces/inkscape"
   width="330.50406mm"
   height="133.33635mm"
   viewBox="0 0 1171.0774 472.45163"
   id="svg2"
   version="1.1"
   inkscape:version="0.91 r13725"
   sodipodi:docname="interleaved-access.svg">
  <defs
     id="defs4" />
  <sodipodi:namedview
     id="base"
     pagecolor="#000000"
     bordercolor="#666666"
     borderopacity="1.0"
     inkscape:pageopacity="0"
     inkscape:pageshadow="2"
     inkscape:zoom="0.98994949"
     inkscape:cx="560.03682"
     inkscape:cy="334.29312"
     inkscape:document-units="px"
     inkscape:current-layer="layer1"
     showgrid="false"
     inkscape:window-width="1920"
     inkscape:window-height="1118"
     inkscape:window-x="1920"
     inkscape:window-y="41"
     inkscape:window-maximized="1"
     inkscape:object-nodes="true"
     fit-margin-top="0"
     fit-margin-left="0"
     fit-margin-right="0"
     fit-margin-bottom="0"
     showguides="false" />
  <metadata
     id="metadata7">
    <rdf:RDF>
      <cc:Work
         rdf:about="">
        <dc:format>image/svg+xml</dc:format>
        <dc:type
           rdf:resource="http://purl.org/dc/dcmitype/StillImage" />
        <dc:title></dc:title>
      </cc:Work>
    </rdf:RDF>
  </metadata>
  <g
     inkscape:label="Layer 1"
     inkscape:groupmode="layer"
     id="layer1"
     transform="translate(13.830131,-701.32937)">
    <g
       id="g3702">
      <path
         inkscape:connector-curvature="0"
         d="m 155.71429,723.21662 c 0,3.25828 0,6.51656 0,9.77485 0,3.25117 0,6.50234 0,9.75352 0,3.84194 0,7.68389 0,11.52583 0,2.02031 -2.85715,2.02031 -2.85715,0 l 0,0 c 0,-3.84194 0,-7.68389 0,-11.52583 0,-3.25118 0,-6.50235 0,-9.75352 0,-3.25829 0,-6.51657 0,-9.77485 0,-2.0203 2.85715,-2.0203 2.85715,0 z"
         id="path3450"
         style="fill:#ffffff;stroke:#fafcf9;stroke-opacity:1" />
      <path
         inkscape:connector-curvature="0"
         d="m 154.28571,788.93091 c 0,3.25828 0,6.51656 0,9.77484 0,3.03553 0,6.07106 0,9.10659 0.0155,1.92928 0.0591,3.84008 -0.1839,5.75486 -0.27217,2.00189 -3.10326,1.61698 -2.8311,-0.3849 l 0,0 c 0.26408,-1.78069 0.13184,-3.5732 0.15786,-5.36996 0,-3.03553 0,-6.07106 0,-9.10659 0,-3.25828 0,-6.51656 0,-9.77484 0,-2.02031 2.85714,-2.02031 2.85714,0 z"
         id="path3452"
         style="fill:#ffffff;stroke:#fafcf9;stroke-opacity:1" />
      <path
         inkscape:connector-curvature="0"
         d="m 152.85714,846.07377 c 0,3.25828 0,6.51656 0,9.77484 -0.22802,3.00967 0.41003,5.94162 0.84531,8.89872 0.34687,2.42645 0.4575,4.87573 0.53535,7.32265 0.064,2.01929 -2.79172,2.10979 -2.85571,0.0905 l 0,0 c -0.0738,-2.33808 -0.17653,-4.67864 -0.50637,-6.9974 -0.45454,-3.09328 -1.10396,-6.16698 -0.87572,-9.31446 0,-3.25828 0,-6.51656 0,-9.77484 0,-2.02031 2.85714,-2.02031 2.85714,0 z"
         id="path3454"
         style="fill:#ffffff;stroke:#fafcf9;stroke-opacity:1" />
      <path
         inkscape:connector-curvature="0"
         d="m 155.71429,906.07377 c 0,3.25828 0,6.51656 0,9.77484 0,3.03553 0,6.07106 0,9.10659 0,1.43517 0,2.87034 0,4.3055 0,2.02031 -2.85715,2.02031 -2.85715,0 l 0,0 c 0,-1.43516 0,-2.87033 0,-4.3055 0,-3.03553 0,-6.07106 0,-9.10659 0,-3.25828 0,-6.51656 0,-9.77484 0,-2.02031 2.85715,-2.02031 2.85715,0 z"
         id="path3456"
         style="fill:#ffffff;stroke:#fafcf9;stroke-opacity:1" />
      <path
         inkscape:connector-curvature="0"
         d="m 155.71429,957.50234 c 0,3.25828 0,6.51656 0,9.77484 0,3.03553 0,6.07106 0,9.10659 0,2.86216 0,5.72431 0,8.58647 0,2.02031 -2.85715,2.02031 -2.85715,0 l 0,0 c 0,-2.86216 0,-5.72431 0,-8.58647 0,-3.03553 0,-6.07106 0,-9.10659 0,-3.25828 0,-6.51656 0,-9.77484 0,-2.02031 2.85715,-2.02031 2.85715,0 z"
         id="path3458"
         style="fill:#ffffff;stroke:#fafcf9;stroke-opacity:1" />
      <path
         inkscape:connector-curvature="0"
         d="m 157.14286,1014.8161 c -0.19523,3.5964 0.41817,7.1438 0.85009,10.6996 0.38214,3.1266 0.49801,6.2749 0.55926,9.4213 0.0352,2.9392 0.2865,5.8401 -0.62817,8.6649 -0.16049,0.4557 -0.32098,0.9113 -0.48148,1.367 -0.67123,1.9055 -3.36607,0.9563 -2.69483,-0.9493 l 0,0 c 0.158,-0.4485 0.316,-0.897 0.47401,-1.3455 0.91701,-2.4495 0.37459,-5.1175 0.47387,-7.6817 -0.059,-3.0498 -0.16897,-6.1016 -0.53896,-9.1323 -0.44552,-3.6695 -1.06651,-7.3327 -0.87094,-11.044 0,-2.0203 2.85715,-2.0203 2.85715,0 z"
         id="path3460"
         style="fill:#ffffff;stroke:#fafcf9;stroke-opacity:1" />
    </g>
    <g
       id="g3710"
       transform="translate(-4.8145752,0)">
      <path
         style="fill:#ffffff;stroke:#fafcf9;stroke-opacity:1"
         id="path3490"
         d="m 308.57143,718.93091 c 0,3.25828 0,6.51656 0,9.77485 0,3.25117 0,6.50234 0,9.75352 0,3.84194 0,7.68389 0,11.52583 0,2.02031 -2.85715,2.02031 -2.85715,0 l 0,0 c 0,-3.84194 0,-7.68389 0,-11.52583 0,-3.25118 0,-6.50235 0,-9.75352 0,-3.25829 0,-6.51657 0,-9.77485 0,-2.0203 2.85715,-2.0203 2.85715,0 z"
         inkscape:connector-curvature="0" />
      <path
         style="fill:#ffffff;stroke:#fafcf9;stroke-opacity:1"
         id="path3492"
         d="m 307.14285,784.6452 c 0,3.25828 0,6.51656 0,9.77484 0,3.03553 0,6.07106 0,9.10659 0.0155,1.92928 0.0591,3.84008 -0.1839,5.75486 -0.27217,2.00189 -3.10326,1.61698 -2.8311,-0.3849 l 0,0 c 0.26408,-1.78069 0.13184,-3.5732 0.15786,-5.36996 0,-3.03553 0,-6.07106 0,-9.10659 0,-3.25828 0,-6.51656 0,-9.77484 0,-2.02031 2.85714,-2.02031 2.85714,0 z"
         inkscape:connector-curvature="0" />
      <path
         style="fill:#ffffff;stroke:#fafcf9;stroke-opacity:1"
         id="path3494"
         d="m 305.71428,841.78806 c 0,3.25828 0,6.51656 0,9.77484 -0.22802,3.00967 0.41003,5.94162 0.84531,8.89872 0.34687,2.42645 0.4575,4.87573 0.53535,7.32265 0.064,2.01929 -2.79172,2.10979 -2.85571,0.0905 l 0,0 c -0.0738,-2.33808 -0.17653,-4.67864 -0.50637,-6.9974 -0.45454,-3.09328 -1.10396,-6.16698 -0.87572,-9.31446 0,-3.25828 0,-6.51656 0,-9.77484 0,-2.02031 2.85714,-2.02031 2.85714,0 z"
         inkscape:connector-curvature="0" />
      <path
         style="fill:#ffffff;stroke:#fafcf9;stroke-opacity:1"
         id="path3496"
         d="m 308.57143,901.78806 c 0,3.25828 0,6.51656 0,9.77484 0,3.03553 0,6.07106 0,9.10659 0,1.43517 0,2.87034 0,4.3055 0,2.02031 -2.85715,2.02031 -2.85715,0 l 0,0 c 0,-1.43516 0,-2.87033 0,-4.3055 0,-3.03553 0,-6.07106 0,-9.10659 0,-3.25828 0,-6.51656 0,-9.77484 0,-2.02031 2.85715,-2.02031 2.85715,0 z"
         inkscape:connector-curvature="0" />
      <path
         style="fill:#ffffff;stroke:#fafcf9;stroke-opacity:1"
         id="path3498"
         d="m 308.57143,953.21663 c 0,3.25828 0,6.51656 0,9.77484 0,3.03553 0,6.07106 0,9.10659 0,2.86216 0,5.72431 0,8.58647 0,2.02031 -2.85715,2.02031 -2.85715,0 l 0,0 c 0,-2.86216 0,-5.72431 0,-8.58647 0,-3.03553 0,-6.07106 0,-9.10659 0,-3.25828 0,-6.51656 0,-9.77484 0,-2.02031 2.85715,-2.02031 2.85715,0 z"
         inkscape:connector-curvature="0" />
      <path
         style="fill:#ffffff;stroke:#fafcf9;stroke-opacity:1"
         id="path3500"
         d="m 310,1010.5304 c -0.19523,3.5964 0.41817,7.1438 0.85009,10.6996 0.38214,3.1266 0.49801,6.2749 0.55926,9.4213 0.0352,2.9392 0.2865,5.8401 -0.62817,8.6649 -0.16049,0.4557 -0.32098,0.9113 -0.48148,1.367 -0.67123,1.9055 -3.36607,0.9563 -2.69483,-0.9493 l 0,0 c 0.158,-0.4485 0.316,-0.897 0.47401,-1.3455 0.91701,-2.4495 0.37459,-5.1175 0.47387,-7.6817 -0.059,-3.0498 -0.16897,-6.1016 -0.53896,-9.1323 -0.44552,-3.6695 -1.06651,-7.3327 -0.87094,-11.044 0,-2.0203 2.85715,-2.0203 2.85715,0 z"
         inkscape:connector-curvature="0" />
    </g>
    <g
       id="g3718"
       transform="translate(1.799408,0)">
      <path
         style="fill:#ffffff;stroke:#fafcf9;stroke-opacity:1"
         id="path3590"
         d="m 450,720.35948 c 0,3.25828 0,6.51656 0,9.77485 0,3.25117 0,6.50234 0,9.75352 0,3.84194 0,7.68389 0,11.52583 0,2.02031 -2.85715,2.02031 -2.85715,0 l 0,0 c 0,-3.84194 0,-7.68389 0,-11.52583 0,-3.25118 0,-6.50235 0,-9.75352 0,-3.25829 0,-6.51657 0,-9.77485 0,-2.0203 2.85715,-2.0203 2.85715,0 z"
         inkscape:connector-curvature="0" />
      <path
         style="fill:#ffffff;stroke:#fafcf9;stroke-opacity:1"
         id="path3592"
         d="m 448.57142,786.07377 c 0,3.25828 0,6.51656 0,9.77484 0,3.03553 0,6.07106 0,9.10659 0.0155,1.92928 0.0591,3.84008 -0.1839,5.75486 -0.27217,2.00189 -3.10326,1.61698 -2.8311,-0.3849 l 0,0 c 0.26408,-1.78069 0.13184,-3.5732 0.15786,-5.36996 0,-3.03553 0,-6.07106 0,-9.10659 0,-3.25828 0,-6.51656 0,-9.77484 0,-2.02031 2.85714,-2.02031 2.85714,0 z"
         inkscape:connector-curvature="0" />
      <path
         style="fill:#ffffff;stroke:#fafcf9;stroke-opacity:1"
         id="path3594"
         d="m 447.14285,843.21663 c 0,3.25828 0,6.51656 0,9.77484 -0.22802,3.00967 0.41003,5.94162 0.84531,8.89872 0.34687,2.42645 0.4575,4.87573 0.53535,7.32265 0.064,2.01929 -2.79172,2.10979 -2.85571,0.0905 l 0,0 c -0.0738,-2.33808 -0.17653,-4.67864 -0.50637,-6.9974 -0.45454,-3.09328 -1.10396,-6.16698 -0.87572,-9.31446 0,-3.25828 0,-6.51656 0,-9.77484 0,-2.02031 2.85714,-2.02031 2.85714,0 z"
         inkscape:connector-curvature="0" />
      <path
         style="fill:#ffffff;stroke:#fafcf9;stroke-opacity:1"
         id="path3596"
         d="m 450,903.21663 c 0,3.25828 0,6.51656 0,9.77484 0,3.03553 0,6.07106 0,9.10659 0,1.43517 0,2.87034 0,4.3055 0,2.02031 -2.85715,2.02031 -2.85715,0 l 0,0 c 0,-1.43516 0,-2.87033 0,-4.3055 0,-3.03553 0,-6.07106 0,-9.10659 0,-3.25828 0,-6.51656 0,-9.77484 0,-2.02031 2.85715,-2.02031 2.85715,0 z"
         inkscape:connector-curvature="0" />
      <path
         style="fill:#ffffff;stroke:#fafcf9;stroke-opacity:1"
         id="path3598"
         d="m 450,954.6452 c 0,3.25828 0,6.51656 0,9.77484 0,3.03553 0,6.07106 0,9.10659 0,2.86216 0,5.72431 0,8.58647 0,2.02031 -2.85715,2.02031 -2.85715,0 l 0,0 c 0,-2.86216 0,-5.72431 0,-8.58647 0,-3.03553 0,-6.07106 0,-9.10659 0,-3.25828 0,-6.51656 0,-9.77484 0,-2.02031 2.85715,-2.02031 2.85715,0 z"
         inkscape:connector-curvature="0" />
      <path
         style="fill:#ffffff;stroke:#fafcf9;stroke-opacity:1"
         id="path3600"
         d="m 451.42857,1011.959 c -0.19523,3.5964 0.41817,7.1438 0.85009,10.6996 0.38214,3.1266 0.49801,6.2749 0.55926,9.4213 0.0352,2.9392 0.2865,5.8401 -0.62817,8.6649 -0.16049,0.4557 -0.32098,0.9113 -0.48148,1.367 -0.67123,1.9055 -3.36607,0.9563 -2.69483,-0.9493 l 0,0 c 0.158,-0.4485 0.316,-0.897 0.47401,-1.3455 0.91701,-2.4495 0.37459,-5.1175 0.47387,-7.6817 -0.059,-3.0498 -0.16897,-6.1016 -0.53896,-9.1323 -0.44552,-3.6695 -1.06651,-7.3327 -0.87094,-11.044 0,-2.0203 2.85715,-2.0203 2.85715,0 z"
         inkscape:connector-curvature="0" />
    </g>
    <g
       id="g3726"
       transform="translate(-3.0151978,0)">
      <path
         inkscape:connector-curvature="0"
         d="m 602.85714,716.07377 c 0,3.25828 0,6.51656 0,9.77485 0,3.25117 0,6.50234 0,9.75352 0,3.84194 0,7.68389 0,11.52583 0,2.02031 -2.85715,2.02031 -2.85715,0 l 0,0 c 0,-3.84194 0,-7.68389 0,-11.52583 0,-3.25118 0,-6.50235 0,-9.75352 0,-3.25829 0,-6.51657 0,-9.77485 0,-2.0203 2.85715,-2.0203 2.85715,0 z"
         id="path3610"
         style="fill:#ffffff;stroke:#fafcf9;stroke-opacity:1" />
      <path
         inkscape:connector-curvature="0"
         d="m 601.42856,781.78806 c 0,3.25828 0,6.51656 0,9.77484 0,3.03553 0,6.07106 0,9.10659 0.0155,1.92928 0.0591,3.84008 -0.1839,5.75486 -0.27217,2.00189 -3.10326,1.61698 -2.8311,-0.3849 l 0,0 c 0.26408,-1.78069 0.13184,-3.5732 0.15786,-5.36996 0,-3.03553 0,-6.07106 0,-9.10659 0,-3.25828 0,-6.51656 0,-9.77484 0,-2.02031 2.85714,-2.02031 2.85714,0 z"
         id="path3612"
         style="fill:#ffffff;stroke:#fafcf9;stroke-opacity:1" />
      <path
         inkscape:connector-curvature="0"
         d="m 599.99999,838.93092 c 0,3.25828 0,6.51656 0,9.77484 -0.22802,3.00967 0.41003,5.94162 0.84531,8.89872 0.34687,2.42645 0.4575,4.87573 0.53535,7.32265 0.064,2.01929 -2.79172,2.10979 -2.85571,0.0905 l 0,0 c -0.0738,-2.33808 -0.17653,-4.67864 -0.50637,-6.9974 -0.45454,-3.09328 -1.10396,-6.16698 -0.87572,-9.31446 0,-3.25828 0,-6.51656 0,-9.77484 0,-2.02031 2.85714,-2.02031 2.85714,0 z"
         id="path3614"
         style="fill:#ffffff;stroke:#fafcf9;stroke-opacity:1" />
      <path
         inkscape:connector-curvature="0"
         d="m 602.85714,898.93092 c 0,3.25828 0,6.51656 0,9.77484 0,3.03553 0,6.07106 0,9.10659 0,1.43517 0,2.87034 0,4.3055 0,2.02031 -2.85715,2.02031 -2.85715,0 l 0,0 c 0,-1.43516 0,-2.87033 0,-4.3055 0,-3.03553 0,-6.07106 0,-9.10659 0,-3.25828 0,-6.51656 0,-9.77484 0,-2.02031 2.85715,-2.02031 2.85715,0 z"
         id="path3616"
         style="fill:#ffffff;stroke:#fafcf9;stroke-opacity:1" />
      <path
         inkscape:connector-curvature="0"
         d="m 602.85714,950.35949 c 0,3.25828 0,6.51656 0,9.77484 0,3.03553 0,6.07106 0,9.10659 0,2.86216 0,5.72431 0,8.58647 0,2.02031 -2.85715,2.02031 -2.85715,0 l 0,0 c 0,-2.86216 0,-5.72431 0,-8.58647 0,-3.03553 0,-6.07106 0,-9.10659 0,-3.25828 0,-6.51656 0,-9.77484 0,-2.02031 2.85715,-2.02031 2.85715,0 z"
         id="path3618"
         style="fill:#ffffff;stroke:#fafcf9;stroke-opacity:1" />
      <path
         inkscape:connector-curvature="0"
         d="m 604.28571,1007.6733 c -0.19523,3.5964 0.41817,7.1438 0.85009,10.6996 0.38214,3.1266 0.49801,6.2749 0.55926,9.4213 0.0352,2.9392 0.2865,5.8401 -0.62817,8.6649 -0.16049,0.4557 -0.32098,0.9113 -0.48148,1.367 -0.67123,1.9055 -3.36607,0.9563 -2.69483,-0.9493 l 0,0 c 0.158,-0.4485 0.316,-0.897 0.47401,-1.3455 0.91701,-2.4495 0.37459,-5.1175 0.47387,-7.6817 -0.059,-3.0498 -0.16897,-6.1016 -0.53896,-9.1323 -0.44552,-3.6695 -1.06651,-7.3327 -0.87094,-11.044 0,-2.0203 2.85715,-2.0203 2.85715,0 z"
         id="path3620"
         style="fill:#ffffff;stroke:#fafcf9;stroke-opacity:1" />
    </g>
    <g
       id="g3734"
       transform="translate(-1.7994995,0)">
      <path
         style="fill:#ffffff;stroke:#fafcf9;stroke-opacity:1"
         id="path3630"
         d="m 749.68399,717.1557 c 0,3.25828 0,6.51656 0,9.77485 0,3.25117 0,6.50234 0,9.75352 0,3.84194 0,7.68389 0,11.52583 0,2.02031 -2.85715,2.02031 -2.85715,0 l 0,0 c 0,-3.84194 0,-7.68389 0,-11.52583 0,-3.25118 0,-6.50235 0,-9.75352 0,-3.25829 0,-6.51657 0,-9.77485 0,-2.0203 2.85715,-2.0203 2.85715,0 z"
         inkscape:connector-curvature="0" />
      <path
         style="fill:#ffffff;stroke:#fafcf9;stroke-opacity:1"
         id="path3632"
         d="m 748.25541,782.86999 c 0,3.25828 0,6.51656 0,9.77484 0,3.03553 0,6.07106 0,9.10659 0.0155,1.92928 0.0591,3.84008 -0.1839,5.75486 -0.27217,2.00189 -3.10326,1.61698 -2.8311,-0.3849 l 0,0 c 0.26408,-1.78069 0.13184,-3.5732 0.15786,-5.36996 0,-3.03553 0,-6.07106 0,-9.10659 0,-3.25828 0,-6.51656 0,-9.77484 0,-2.02031 2.85714,-2.02031 2.85714,0 z"
         inkscape:connector-curvature="0" />
      <path
         style="fill:#ffffff;stroke:#fafcf9;stroke-opacity:1"
         id="path3634"
         d="m 746.82684,840.01285 c 0,3.25828 0,6.51656 0,9.77484 -0.22802,3.00967 0.41003,5.94162 0.84531,8.89872 0.34687,2.42645 0.4575,4.87573 0.53535,7.32265 0.064,2.01929 -2.79172,2.10979 -2.85571,0.0905 l 0,0 c -0.0738,-2.33808 -0.17653,-4.67864 -0.50637,-6.9974 -0.45454,-3.09328 -1.10396,-6.16698 -0.87572,-9.31446 0,-3.25828 0,-6.51656 0,-9.77484 0,-2.02031 2.85714,-2.02031 2.85714,0 z"
         inkscape:connector-curvature="0" />
      <path
         style="fill:#ffffff;stroke:#fafcf9;stroke-opacity:1"
         id="path3636"
         d="m 749.68399,900.01285 c 0,3.25828 0,6.51656 0,9.77484 0,3.03553 0,6.07106 0,9.10659 0,1.43517 0,2.87034 0,4.3055 0,2.02031 -2.85715,2.02031 -2.85715,0 l 0,0 c 0,-1.43516 0,-2.87033 0,-4.3055 0,-3.03553 0,-6.07106 0,-9.10659 0,-3.25828 0,-6.51656 0,-9.77484 0,-2.02031 2.85715,-2.02031 2.85715,0 z"
         inkscape:connector-curvature="0" />
      <path
         style="fill:#ffffff;stroke:#fafcf9;stroke-opacity:1"
         id="path3638"
         d="m 749.68399,951.44142 c 0,3.25828 0,6.51656 0,9.77484 0,3.03553 0,6.07106 0,9.10659 0,2.86216 0,5.72431 0,8.58647 0,2.02031 -2.85715,2.02031 -2.85715,0 l 0,0 c 0,-2.86216 0,-5.72431 0,-8.58647 0,-3.03553 0,-6.07106 0,-9.10659 0,-3.25828 0,-6.51656 0,-9.77484 0,-2.02031 2.85715,-2.02031 2.85715,0 z"
         inkscape:connector-curvature="0" />
      <path
         style="fill:#ffffff;stroke:#fafcf9;stroke-opacity:1"
         id="path3640"
         d="m 751.11256,1008.7552 c -0.19523,3.5964 0.41817,7.1438 0.85009,10.6996 0.38214,3.1266 0.49801,6.2749 0.55926,9.4213 0.0352,2.9392 0.2865,5.8401 -0.62817,8.6649 -0.16049,0.4557 -0.32098,0.9113 -0.48148,1.367 -0.67123,1.9055 -3.36607,0.9563 -2.69483,-0.9493 l 0,0 c 0.158,-0.4485 0.316,-0.897 0.47401,-1.3455 0.91701,-2.4495 0.37459,-5.1175 0.47387,-7.6817 -0.059,-3.0498 -0.16897,-6.1016 -0.53896,-9.1323 -0.44552,-3.6695 -1.06651,-7.3327 -0.87094,-11.044 0,-2.0203 2.85715,-2.0203 2.85715,0 z"
         inkscape:connector-curvature="0" />
    </g>
    <g
       id="g3742"
       transform="translate(-6.6140747,0)">
      <path
         inkscape:connector-curvature="0"
         d="m 902.54113,712.86999 c 0,3.25828 0,6.51656 0,9.77485 0,3.25117 0,6.50234 0,9.75352 0,3.84194 0,7.68389 0,11.52583 0,2.02031 -2.85715,2.02031 -2.85715,0 l 0,0 c 0,-3.84194 0,-7.68389 0,-11.52583 0,-3.25118 0,-6.50235 0,-9.75352 0,-3.25829 0,-6.51657 0,-9.77485 0,-2.0203 2.85715,-2.0203 2.85715,0 z"
         id="path3650"
         style="fill:#ffffff;stroke:#fafcf9;stroke-opacity:1" />
      <path
         inkscape:connector-curvature="0"
         d="m 901.11255,778.58428 c 0,3.25828 0,6.51656 0,9.77484 0,3.03553 0,6.07106 0,9.10659 0.0155,1.92928 0.0591,3.84008 -0.1839,5.75486 -0.27217,2.00189 -3.10326,1.61698 -2.8311,-0.3849 l 0,0 c 0.26408,-1.78069 0.13184,-3.5732 0.15786,-5.36996 0,-3.03553 0,-6.07106 0,-9.10659 0,-3.25828 0,-6.51656 0,-9.77484 0,-2.02031 2.85714,-2.02031 2.85714,0 z"
         id="path3652"
         style="fill:#ffffff;stroke:#fafcf9;stroke-opacity:1" />
      <path
         inkscape:connector-curvature="0"
         d="m 899.68398,835.72714 c 0,3.25828 0,6.51656 0,9.77484 -0.22802,3.00967 0.41003,5.94162 0.84531,8.89872 0.34687,2.42645 0.4575,4.87573 0.53535,7.32265 0.064,2.01929 -2.79172,2.10979 -2.85571,0.0905 l 0,0 c -0.0738,-2.33808 -0.17653,-4.67864 -0.50637,-6.9974 -0.45454,-3.09328 -1.10396,-6.16698 -0.87572,-9.31446 0,-3.25828 0,-6.51656 0,-9.77484 0,-2.02031 2.85714,-2.02031 2.85714,0 z"
         id="path3654"
         style="fill:#ffffff;stroke:#fafcf9;stroke-opacity:1" />
      <path
         inkscape:connector-curvature="0"
         d="m 902.54113,895.72714 c 0,3.25828 0,6.51656 0,9.77484 0,3.03553 0,6.07106 0,9.10659 0,1.43517 0,2.87034 0,4.3055 0,2.02031 -2.85715,2.02031 -2.85715,0 l 0,0 c 0,-1.43516 0,-2.87033 0,-4.3055 0,-3.03553 0,-6.07106 0,-9.10659 0,-3.25828 0,-6.51656 0,-9.77484 0,-2.02031 2.85715,-2.02031 2.85715,0 z"
         id="path3656"
         style="fill:#ffffff;stroke:#fafcf9;stroke-opacity:1" />
      <path
         inkscape:connector-curvature="0"
         d="m 902.54113,947.15571 c 0,3.25828 0,6.51656 0,9.77484 0,3.03553 0,6.07106 0,9.10659 0,2.86216 0,5.72431 0,8.58647 0,2.02031 -2.85715,2.02031 -2.85715,0 l 0,0 c 0,-2.86216 0,-5.72431 0,-8.58647 0,-3.03553 0,-6.07106 0,-9.10659 0,-3.25828 0,-6.51656 0,-9.77484 0,-2.02031 2.85715,-2.02031 2.85715,0 z"
         id="path3658"
         style="fill:#ffffff;stroke:#fafcf9;stroke-opacity:1" />
      <path
         inkscape:connector-curvature="0"
         d="m 903.9697,1004.4695 c -0.19523,3.5964 0.41817,7.1438 0.85009,10.6996 0.38214,3.1266 0.49801,6.2749 0.55926,9.4213 0.0352,2.9392 0.2865,5.8401 -0.62817,8.6649 -0.16049,0.4557 -0.32098,0.9113 -0.48148,1.367 -0.67123,1.9055 -3.36607,0.9563 -2.69483,-0.9493 l 0,0 c 0.158,-0.4485 0.316,-0.897 0.47401,-1.3455 0.91701,-2.4495 0.37459,-5.1175 0.47387,-7.6817 -0.059,-3.0498 -0.16897,-6.1016 -0.53896,-9.1323 -0.44552,-3.6695 -1.06651,-7.3327 -0.87094,-11.044 0,-2.0203 2.85715,-2.0203 2.85715,0 z"
         id="path3660"
         style="fill:#ffffff;stroke:#fafcf9;stroke-opacity:1" />
    </g>
    <g
       id="g3750">
      <path
         inkscape:connector-curvature="0"
         d="m 1043.9697,714.29856 c 0,3.25828 0,6.51656 0,9.77485 0,3.25117 0,6.50234 0,9.75352 0,3.84194 0,7.68389 0,11.52583 0,2.02031 -2.8572,2.02031 -2.8572,0 l 0,0 c 0,-3.84194 0,-7.68389 0,-11.52583 0,-3.25118 0,-6.50235 0,-9.75352 0,-3.25829 0,-6.51657 0,-9.77485 0,-2.0203 2.8572,-2.0203 2.8572,0 z"
         id="path3670"
         style="fill:#ffffff;stroke:#fafcf9;stroke-opacity:1" />
      <path
         inkscape:connector-curvature="0"
         d="m 1042.5411,780.01285 c 0,3.25828 0,6.51656 0,9.77484 0,3.03553 0,6.07106 0,9.10659 0.015,1.92928 0.059,3.84008 -0.1839,5.75486 -0.2722,2.00189 -3.1032,1.61698 -2.8311,-0.3849 l 0,0 c 0.2641,-1.78069 0.1319,-3.5732 0.1579,-5.36996 0,-3.03553 0,-6.07106 0,-9.10659 0,-3.25828 0,-6.51656 0,-9.77484 0,-2.02031 2.8571,-2.02031 2.8571,0 z"
         id="path3672"
         style="fill:#ffffff;stroke:#fafcf9;stroke-opacity:1" />
      <path
         inkscape:connector-curvature="0"
         d="m 1041.1125,837.15571 c 0,3.25828 0,6.51656 0,9.77484 -0.228,3.00967 0.4101,5.94162 0.8454,8.89872 0.3468,2.42645 0.4575,4.87573 0.5353,7.32265 0.064,2.01929 -2.7917,2.10979 -2.8557,0.0905 l 0,0 c -0.074,-2.33808 -0.1765,-4.67864 -0.5064,-6.9974 -0.4545,-3.09328 -1.1039,-6.16698 -0.8757,-9.31446 0,-3.25828 0,-6.51656 0,-9.77484 0,-2.02031 2.8571,-2.02031 2.8571,0 z"
         id="path3674"
         style="fill:#ffffff;stroke:#fafcf9;stroke-opacity:1" />
      <path
         inkscape:connector-curvature="0"
         d="m 1043.9697,897.15571 c 0,3.25828 0,6.51656 0,9.77484 0,3.03553 0,6.07106 0,9.10659 0,1.43517 0,2.87034 0,4.3055 0,2.02031 -2.8572,2.02031 -2.8572,0 l 0,0 c 0,-1.43516 0,-2.87033 0,-4.3055 0,-3.03553 0,-6.07106 0,-9.10659 0,-3.25828 0,-6.51656 0,-9.77484 0,-2.02031 2.8572,-2.02031 2.8572,0 z"
         id="path3676"
         style="fill:#ffffff;stroke:#fafcf9;stroke-opacity:1" />
      <path
         inkscape:connector-curvature="0"
         d="m 1043.9697,948.58428 c 0,3.25828 0,6.51656 0,9.77484 0,3.03553 0,6.07106 0,9.10659 0,2.86216 0,5.72431 0,8.58647 0,2.02031 -2.8572,2.02031 -2.8572,0 l 0,0 c 0,-2.86216 0,-5.72431 0,-8.58647 0,-3.03553 0,-6.07106 0,-9.10659 0,-3.25828 0,-6.51656 0,-9.77484 0,-2.02031 2.8572,-2.02031 2.8572,0 z"
         id="path3678"
         style="fill:#ffffff;stroke:#fafcf9;stroke-opacity:1" />
      <path
         inkscape:connector-curvature="0"
         d="m 1045.3983,1005.8981 c -0.1953,3.5964 0.4181,7.1438 0.8501,10.6996 0.3821,3.1266 0.498,6.2749 0.5592,9.4213 0.035,2.9392 0.2865,5.8401 -0.6282,8.6649 -0.1604,0.4557 -0.3209,0.9113 -0.4814,1.367 -0.6713,1.9055 -3.3661,0.9563 -2.6949,-0.9493 l 0,0 c 0.158,-0.4485 0.316,-0.897 0.474,-1.3455 0.9171,-2.4495 0.3746,-5.1175 0.4739,-7.6817 -0.059,-3.0498 -0.169,-6.1016 -0.5389,-9.1323 -0.4456,-3.6695 -1.0666,-7.3327 -0.871,-11.044 0,-2.0203 2.8572,-2.0203 2.8572,0 z"
         id="path3680"
         style="fill:#ffffff;stroke:#fafcf9;stroke-opacity:1" />
    </g>
    <flowRoot
       xml:space="preserve"
       id="flowRoot3811"
       style="font-style:normal;font-variant:normal;font-weight:normal;font-stretch:normal;font-size:50px;line-height:125%;font-family:Milanotica;-inkscape-font-specification:'Milanotica, Normal';text-align:start;letter-spacing:0px;word-spacing:0px;writing-mode:lr-tb;text-anchor:start;fill:#ffffff;fill-opacity:1;stroke:none;stroke-width:1px;stroke-linecap:butt;stroke-linejoin:miter;stroke-opacity:1"
       transform="translate(71.560895,677.63843)"><flowRegion
         id="flowRegion3813"><rect
           id="rect3815"
           width="80"
           height="60"
           x="2.8571429"
           y="369.4653"
           style="font-style:normal;font-variant:normal;font-weight:normal;font-stretch:normal;font-size:50px;line-height:125%;font-family:Milanotica;-inkscape-font-specification:'Milanotica, Normal';text-align:start;writing-mode:lr-tb;text-anchor:start;fill:#ffffff" /></flowRegion><flowPara
         id="flowPara3817">0</flowPara></flowRoot>    <flowRoot
       xml:space="preserve"
       id="flowRoot3811-8"
       style="font-style:normal;font-variant:normal;font-weight:normal;font-stretch:normal;font-size:50px;line-height:125%;font-family:Milanotica;-inkscape-font-specification:'Milanotica, Normal';text-align:start;letter-spacing:0px;word-spacing:0px;writing-mode:lr-tb;text-anchor:start;fill:#ffffff;fill-opacity:1;stroke:none;stroke-width:1px;stroke-linecap:butt;stroke-linejoin:miter;stroke-opacity:1"
       transform="translate(222.41636,677.63843)"><flowRegion
         id="flowRegion3813-1"><rect
           id="rect3815-2"
           width="80"
           height="60"
           x="2.8571429"
           y="369.4653"
           style="font-style:normal;font-variant:normal;font-weight:normal;font-stretch:normal;font-size:50px;line-height:125%;font-family:Milanotica;-inkscape-font-specification:'Milanotica, Normal';text-align:start;writing-mode:lr-tb;text-anchor:start;fill:#ffffff" /></flowRegion><flowPara
         id="flowPara3817-8">1</flowPara></flowRoot>    <flowRoot
       xml:space="preserve"
       id="flowRoot3811-1"
       style="font-style:normal;font-variant:normal;font-weight:normal;font-stretch:normal;font-size:50px;line-height:125%;font-family:Milanotica;-inkscape-font-specification:'Milanotica, Normal';text-align:start;letter-spacing:0px;word-spacing:0px;writing-mode:lr-tb;text-anchor:start;fill:#ffffff;fill-opacity:1;stroke:none;stroke-width:1px;stroke-linecap:butt;stroke-linejoin:miter;stroke-opacity:1"
       transform="translate(365.50814,677.63843)"><flowRegion
         id="flowRegion3813-2"><rect
           id="rect3815-1"
           width="80"
           height="60"
           x="2.8571429"
           y="369.4653"
           style="font-style:normal;font-variant:normal;font-weight:normal;font-stretch:normal;font-size:50px;line-height:125%;font-family:Milanotica;-inkscape-font-specification:'Milanotica, Normal';text-align:start;writing-mode:lr-tb;text-anchor:start;fill:#ffffff" /></flowRegion><flowPara
         id="flowPara3817-83">2</flowPara></flowRoot>    <flowRoot
       xml:space="preserve"
       id="flowRoot3811-3"
       style="font-style:normal;font-variant:normal;font-weight:normal;font-stretch:normal;font-size:50px;line-height:125%;font-family:Milanotica;-inkscape-font-specification:'Milanotica, Normal';text-align:start;letter-spacing:0px;word-spacing:0px;writing-mode:lr-tb;text-anchor:start;fill:#ffffff;fill-opacity:1;stroke:none;stroke-width:1px;stroke-linecap:butt;stroke-linejoin:miter;stroke-opacity:1"
       transform="translate(514.05646,677.63843)"><flowRegion
         id="flowRegion3813-6"><rect
           id="rect3815-7"
           width="80"
           height="60"
           x="2.8571429"
           y="369.4653"
           style="font-style:normal;font-variant:normal;font-weight:normal;font-stretch:normal;font-size:50px;line-height:125%;font-family:Milanotica;-inkscape-font-specification:'Milanotica, Normal';text-align:start;writing-mode:lr-tb;text-anchor:start;fill:#ffffff" /></flowRegion><flowPara
         id="flowPara3817-9">3</flowPara></flowRoot>    <flowRoot
       xml:space="preserve"
       id="flowRoot3811-4"
       style="font-style:normal;font-variant:normal;font-weight:normal;font-stretch:normal;font-size:50px;line-height:125%;font-family:Milanotica;-inkscape-font-specification:'Milanotica, Normal';text-align:start;letter-spacing:0px;word-spacing:0px;writing-mode:lr-tb;text-anchor:start;fill:#ffffff;fill-opacity:1;stroke:none;stroke-width:1px;stroke-linecap:butt;stroke-linejoin:miter;stroke-opacity:1"
       transform="translate(663.16629,677.63843)"><flowRegion
         id="flowRegion3813-5"><rect
           id="rect3815-8"
           width="80"
           height="60"
           x="2.8571429"
           y="369.4653"
           style="font-style:normal;font-variant:normal;font-weight:normal;font-stretch:normal;font-size:50px;line-height:125%;font-family:Milanotica;-inkscape-font-specification:'Milanotica, Normal';text-align:start;writing-mode:lr-tb;text-anchor:start;fill:#ffffff" /></flowRegion><flowPara
         id="flowPara3817-3">4</flowPara></flowRoot>    <flowRoot
       xml:space="preserve"
       id="flowRoot3811-5"
       style="font-style:normal;font-variant:normal;font-weight:normal;font-stretch:normal;font-size:50px;line-height:125%;font-family:Milanotica;-inkscape-font-specification:'Milanotica, Normal';text-align:start;letter-spacing:0px;word-spacing:0px;writing-mode:lr-tb;text-anchor:start;fill:#ffffff;fill-opacity:1;stroke:none;stroke-width:1px;stroke-linecap:butt;stroke-linejoin:miter;stroke-opacity:1"
       transform="translate(809.19997,677.63843)"><flowRegion
         id="flowRegion3813-0"><rect
           id="rect3815-4"
           width="80"
           height="60"
           x="2.8571429"
           y="369.4653"
           style="font-style:normal;font-variant:normal;font-weight:normal;font-stretch:normal;font-size:50px;line-height:125%;font-family:Milanotica;-inkscape-font-specification:'Milanotica, Normal';text-align:start;writing-mode:lr-tb;text-anchor:start;fill:#ffffff" /></flowRegion><flowPara
         id="flowPara3817-0">5</flowPara></flowRoot>    <flowRoot
       xml:space="preserve"
       id="flowRoot3811-45"
       style="font-style:normal;font-variant:normal;font-weight:normal;font-stretch:normal;font-size:50px;line-height:125%;font-family:Milanotica;-inkscape-font-specification:'Milanotica, Normal';text-align:start;letter-spacing:0px;word-spacing:0px;writing-mode:lr-tb;text-anchor:start;fill:#ffffff;fill-opacity:1;stroke:none;stroke-width:1px;stroke-linecap:butt;stroke-linejoin:miter;stroke-opacity:1"
       transform="translate(958.85908,677.63843)"><flowRegion
         id="flowRegion3813-8"><rect
           id="rect3815-0"
           width="80"
           height="60"
           x="2.8571429"
           y="369.4653"
           style="font-style:normal;font-variant:normal;font-weight:normal;font-stretch:normal;font-size:50px;line-height:125%;font-family:Milanotica;-inkscape-font-specification:'Milanotica, Normal';text-align:start;writing-mode:lr-tb;text-anchor:start;fill:#ffffff" /></flowRegion><flowPara
         id="flowPara3817-6">6</flowPara></flowRoot>    <flowRoot
       xml:space="preserve"
       id="flowRoot3811-31"
       style="font-style:normal;font-variant:normal;font-weight:normal;font-stretch:normal;font-size:50px;line-height:125%;font-family:Milanotica;-inkscape-font-specification:'Milanotica, Normal';text-align:start;letter-spacing:0px;word-spacing:0px;writing-mode:lr-tb;text-anchor:start;fill:#ffffff;fill-opacity:1;stroke:none;stroke-width:1px;stroke-linecap:butt;stroke-linejoin:miter;stroke-opacity:1"
       transform="translate(1103.6233,677.63843)"><flowRegion
         id="flowRegion3813-3"><rect
           id="rect3815-3"
           width="80"
           height="60"
           x="2.8571429"
           y="369.4653"
           style="font-style:normal;font-variant:normal;font-weight:normal;font-stretch:normal;font-size:50px;line-height:125%;font-family:Milanotica;-inkscape-font-specification:'Milanotica, Normal';text-align:start;writing-mode:lr-tb;text-anchor:start;fill:#ffffff" /></flowRegion><flowPara
         id="flowPara3817-61">7</flowPara></flowRoot>    <flowRoot
       xml:space="preserve"
       id="flowRoot3811-3-9"
       style="font-style:normal;font-variant:normal;font-weight:normal;font-stretch:normal;font-size:50px;line-height:125%;font-family:Milanotica;-inkscape-font-specification:'Milanotica, Normal';text-align:start;letter-spacing:0px;word-spacing:0px;writing-mode:lr-tb;text-anchor:start;fill:#ffffff;fill-opacity:1;stroke:none;stroke-width:1px;stroke-linecap:butt;stroke-linejoin:miter;stroke-opacity:1"
       transform="translate(554.93045,717.95244)"><flowRegion
         id="flowRegion3813-6-3"><rect
           id="rect3815-7-9"
           width="670.00006"
           height="91.428543"
           x="-201.42857"
           y="398.03674"
           style="font-style:normal;font-variant:normal;font-weight:normal;font-stretch:normal;font-size:50px;line-height:125%;font-family:Milanotica;-inkscape-font-specification:'Milanotica, Normal';text-align:start;writing-mode:lr-tb;text-anchor:start;fill:#ffffff" /></flowRegion><flowPara
         id="flowPara3817-9-3">Memory Locations (offset)</flowPara></flowRoot>    <flowRoot
       xml:space="preserve"
       id="flowRoot3811-3-9-2"
       style="font-style:normal;font-variant:normal;font-weight:normal;font-stretch:normal;font-size:50px;line-height:125%;font-family:Milanotica;-inkscape-font-specification:'Milanotica, Normal';text-align:start;letter-spacing:0px;word-spacing:0px;writing-mode:lr-tb;text-anchor:start;fill:#ffffff;fill-opacity:1;stroke:none;stroke-width:1px;stroke-linecap:butt;stroke-linejoin:miter;stroke-opacity:1"
       transform="matrix(0,-1,1,0,-430.81592,822.49097)"
       inkscape:transform-center-x="-43.43656"
       inkscape:transform-center-y="-38.385795"><flowRegion
         id="flowRegion3813-6-3-7"><rect
           id="rect3815-7-9-6"
           width="670.00006"
           height="91.428543"
           x="-201.42857"
           y="398.03674"
           style="font-style:normal;font-variant:normal;font-weight:normal;font-stretch:normal;font-size:50px;line-height:125%;font-family:Milanotica;-inkscape-font-specification:'Milanotica, Normal';text-align:start;writing-mode:lr-tb;text-anchor:start;fill:#ffffff" /></flowRegion><flowPara
         id="flowPara3817-9-3-3">Vector Elements</flowPara></flowRoot>    <g
       id="g3566">
      <path
         inkscape:connector-curvature="0"
         d="m 54.477755,975.2772 c -0.43489,4.12499 -0.4724,8.27948 -0.54307,12.42286 0.061,5.51618 -0.26148,11.01582 -0.72112,16.50924 -0.38101,4.0723 -0.62213,8.154 -0.73385,12.242 -0.12914,2.7558 0.1762,5.5084 0.8428,8.1806 0.52631,1.7587 1.2243,3.3067 2.75791,4.3663 2.05045,1.3699 4.50595,1.8072 6.87317,2.3124 3.47064,0.6001 6.98141,0.9721 10.48661,1.3111 4.24487,0.348 8.50748,0.4006 12.76429,0.4437 4.29176,0.028 8.58366,0.021 12.87548,0.018 3.073875,-0.1495 6.139275,-0.4241 9.212435,-0.5897 1.73083,-0.098 3.38119,0.2 4.65109,-1.1703 1.02335,-2.1075 0.8354,-4.6165 1.01245,-6.9055 0.28432,-4.1289 0.70079,-8.2465 0.9827,-12.3757 0.1596,-4.2215 0.52124,-8.4304 0.77209,-12.64672 0.11309,-3.23105 0.37824,-6.47298 0.19786,-9.70532 -0.15103,-2.05971 -0.42043,-4.10223 -0.92828,-6.10477 -0.42589,-1.71413 -1.11708,-3.39125 -2.1358,-4.8392 -0.96025,-1.4182 -2.36285,-2.01746 -3.90985,-2.57487 -1.97448,-0.70846 -3.98935,-1.17103 -6.06874,-1.41958 -2.6416,-0.45464 -5.307645,-0.69442 -7.981575,-0.84299 -2.74146,-0.11692 -5.48603,-0.12046 -8.22947,-0.12514 -2.839,-7.3e-4 -5.678,0.003 -8.51701,0.005 -2.95607,-0.0131 -5.89986,0.33094 -8.84801,0.51849 -2.41055,0.15369 -4.8264,0.17904 -7.24096,0.19687 -1.7678,0.048 -3.54191,-0.0807 -5.30371,0.0867 -1.00596,0.092 -1.13608,-1.33063 -0.13012,-1.42263 l 0,0 c 1.80319,-0.15938 3.61445,-0.0573 5.42329,-0.0926 2.38783,-0.0176 4.77696,-0.0422 7.16083,-0.19403 2.97801,-0.18932 5.95158,-0.53669 8.93774,-0.52137 2.84013,-0.002 5.68026,-0.006 8.52039,-0.005 2.76909,0.005 5.53933,0.008 8.30639,0.12735 2.70433,0.15067 5.401185,0.39136 8.072885,0.85101 2.18601,0.26469 4.30738,0.74878 6.3832,1.49424 1.8215,0.65888 3.47214,1.44525 4.59881,3.10471 1.0979,1.60324 1.89009,3.41414 2.34701,5.30409 0.5239,2.09279 0.81765,4.22397 0.96944,6.37601 0.17503,3.28723 -0.0743,6.58222 -0.19827,9.8679 -0.25126,4.22055 -0.61296,8.43345 -0.77289,12.65915 -0.28245,4.1336 -0.69878,8.2555 -0.98365,12.3888 -0.2033,2.6169 0.0369,5.5086 -1.4256,7.8042 -1.74769,1.6713 -3.301,1.5191 -5.58542,1.5877 -3.09836,0.1668 -6.18876,0.4466 -9.288145,0.5917 -4.29701,0 -8.59409,0.011 -12.89103,-0.018 -4.29793,-0.043 -8.60171,-0.097 -12.88748,-0.4502 -3.55904,-0.3447 -7.12399,-0.7217 -10.64722,-1.3359 -2.56126,-0.5469 -5.20109,-1.0479 -7.40781,-2.5489 -1.8584,-1.371 -2.66142,-2.9909 -3.31169,-5.1834 -0.68905,-2.7994 -1.0218,-5.6773 -0.88418,-8.5632 0.11268,-4.1147 0.35487,-8.2231 0.73829,-12.322 0.45712,-5.46197 0.7779,-10.92996 0.71636,-16.41454 0.0716,-4.19444 0.11056,-8.40013 0.5539,-12.57569 0.12529,-1.00235 1.54283,-0.82516 1.41753,0.1772 z"
         id="path3379"
         style="fill:#ffffff;stroke:#fafcf9;stroke-opacity:1" />
      <flowRoot
         transform="translate(67.886582,595.68495)"
         style="font-style:normal;font-variant:normal;font-weight:normal;font-stretch:normal;font-size:50px;line-height:125%;font-family:Milanotica;-inkscape-font-specification:'Milanotica, Normal';text-align:start;letter-spacing:0px;word-spacing:0px;writing-mode:lr-tb;text-anchor:start;fill:#ffffff;fill-opacity:1;stroke:none;stroke-width:1px;stroke-linecap:butt;stroke-linejoin:miter;stroke-opacity:1"
         id="flowRoot3811-0"
         xml:space="preserve"><flowRegion
           id="flowRegion3813-52"><rect
             style="font-style:normal;font-variant:normal;font-weight:normal;font-stretch:normal;font-size:50px;line-height:125%;font-family:Milanotica;-inkscape-font-specification:'Milanotica, Normal';text-align:start;writing-mode:lr-tb;text-anchor:start;fill:#ffffff"
             y="369.4653"
             x="2.8571429"
             height="60"
             width="80"
             id="rect3815-6" /></flowRegion><flowPara
           id="flowPara3817-2">a</flowPara></flowRoot>    </g>
    <g
       id="g3573-2-8"
       transform="translate(295.82693,0)">
      <path
         inkscape:connector-curvature="0"
         d="m 49.54791,892.57437 c 0.302588,2.84782 0.466787,5.70613 0.584235,8.56672 0.115535,3.20181 0.124859,6.40604 0.133022,9.60952 0.0042,3.32061 9.68e-4,6.64123 -7.6e-4,9.96185 0.191862,2.86839 0.439823,5.73165 0.581847,8.60342 0.09707,2.25551 0.123214,4.51314 0.133165,6.77045 0.0042,1.69321 9.97e-4,3.38644 -7.3e-4,5.07966 -0.02701,1.42325 -0.04188,2.82659 0.191723,4.232 0.09069,1.152 0.476192,1.8115 1.558912,2.16044 1.354634,0.29118 2.754359,0.24573 4.132259,0.24772 2.135425,-0.009 4.270841,-0.0185 6.406277,-0.0242 2.510929,-0.006 5.021867,-0.006 7.532802,-0.006 2.797435,-2.2e-4 5.594869,-8e-5 8.392304,-10e-6 2.329594,6e-5 4.659187,8e-5 6.988781,9e-5 2.07481,10e-6 4.149621,10e-6 6.224431,10e-6 1.988392,0 3.976784,0 5.965176,0 1.611049,0 3.222106,0 4.833146,0 1.58198,0 3.16396,0 4.74594,0 1.44377,0 2.88754,0 4.33132,0 1.13635,0.0892 1.99323,-0.18893 2.53502,-1.20668 0.50403,-1.8053 0.44208,-3.72535 0.46618,-5.58548 0.20156,-2.49529 0.44367,-4.98493 0.57486,-7.48547 0.0705,-2.72278 0.11738,-5.4369 0.32745,-8.1532 0.47204,-3.19719 0.83651,-6.40154 1.04774,-9.62635 0.19657,-2.74097 0.0874,-5.49194 0.26718,-8.23203 0.13912,-2.41092 0.46085,-4.78976 0.87615,-7.16568 0.29027,-1.74398 0.3902,-3.50968 0.43878,-5.27436 0.0322,-1.83767 0.0271,-3.67573 0.0246,-5.51361 0.0515,-1.17479 0.0845,-2.28186 -0.69662,-3.22126 -0.88987,-0.6488 -2.07765,-0.61089 -3.13115,-0.66621 -2.06585,-0.0552 -4.13297,-0.0337 -6.19933,-0.0266 -2.50149,0.009 -5.003,0.0114 -7.50451,0.013 -2.531875,10e-4 -5.063745,10e-4 -7.595616,10e-4 -2.45251,-3e-5 -4.90502,-9e-5 -7.35753,-1.2e-4 -2.37398,0.18279 -4.738559,0.44932 -7.116513,0.58367 -2.012742,-0.004 -3.994598,0.18529 -5.985665,0.45076 -1.643218,0.23021 -3.29959,0.32387 -4.956658,0.37242 -1.475736,0.0322 -2.951945,0.0274 -4.427935,0.0264 -1.608985,-0.002 -3.217969,-0.003 -4.826954,-0.004 -1.456493,-6.1e-4 -2.912986,-6.4e-4 -4.369479,-6.7e-4 -1.152581,-0.0423 -2.284025,-0.0514 -3.266269,0.60796 -0.81413,0.75754 -0.9515,1.86507 -1.073302,2.91393 -0.0839,0.9462 -0.08516,1.89676 -0.09089,2.84579 -0.0062,1.01013 -1.434718,1.0014 -1.428545,-0.009 l 0,0 c 0.0062,-1.00243 0.0084,-2.00652 0.10085,-3.0057 0.180965,-1.49237 0.487317,-2.96226 1.726581,-3.95158 1.247311,-0.76281 2.582152,-0.91934 4.031603,-0.83024 1.456718,3e-5 2.913436,6e-5 4.370154,6.6e-4 1.609086,8e-4 3.21817,0.002 4.827255,0.004 1.461754,10e-4 2.923722,0.006 4.385229,-0.0258 1.60788,-0.0468 3.215128,-0.13688 4.809555,-0.3605 2.026718,-0.27022 4.045673,-0.46364 6.094033,-0.46102 2.404779,-0.13535 4.795341,-0.41275 7.196964,-0.58594 2.452505,3e-5 4.905011,8e-5 7.357516,1.2e-4 2.53156,0 5.063121,6e-5 7.594686,-10e-4 2.5002,-0.002 5.0004,-0.004 7.50059,-0.013 2.0933,-0.007 4.18741,-0.0293 6.28015,0.0286 1.48804,0.0803 3.05756,0.11615 4.18779,1.22212 0.91016,1.23881 1.10968,2.56897 0.99258,4.09003 0.002,1.85167 0.008,3.70354 -0.0252,5.555 -0.051,1.83387 -0.15662,3.66867 -0.45957,5.48082 -0.40658,2.32598 -0.72318,4.65396 -0.85797,7.01451 -0.18484,2.73907 -0.0632,5.49065 -0.26709,8.23069 -0.21201,3.23023 -0.57156,6.44103 -1.04894,9.64309 -0.20938,2.70451 -0.25295,5.40692 -0.32516,8.11791 -0.13046,2.48173 -0.3651,4.95322 -0.57301,7.42916 -0.0275,2.09874 0.0617,4.28919 -0.6617,6.28846 -0.8662,1.40335 -2.1001,2.03744 -3.76795,1.91366 -1.44378,0 -2.88755,0 -4.33132,0 -1.58198,0 -3.16396,0 -4.74594,0 -1.61104,0 -3.222099,0 -4.833147,0 -1.988392,0 -3.976784,0 -5.965176,0 -2.074813,0 -4.149626,0 -6.224439,0 -2.329604,-2e-5 -4.659207,-4e-5 -6.98881,-10e-5 -2.79735,-7e-5 -5.5947,-2.1e-4 -8.39205,10e-6 -2.509738,3.8e-4 -5.019479,5.1e-4 -7.529213,0.006 -2.137412,0.006 -4.274804,0.0157 -6.412206,0.0242 -1.538543,-0.002 -3.104343,0.0472 -4.607947,-0.32999 -1.533629,-0.57595 -2.347553,-1.61035 -2.490583,-3.27397 -0.243559,-1.48369 -0.244512,-2.96455 -0.210813,-4.46623 0.0017,-1.69064 0.0049,-3.38128 7.44e-4,-5.07192 -0.0098,-2.23589 -0.03556,-4.4721 -0.131439,-6.70623 -0.142948,-2.89552 -0.397936,-5.78207 -0.583588,-8.67466 0.0017,-3.31916 0.005,-6.63832 7.65e-4,-9.95747 -0.0081,-3.18517 -0.01721,-6.37108 -0.131826,-9.5546 -0.118076,-2.88032 -0.2916,-5.75697 -0.585435,-8.62528 0,-1.01015 1.428571,-1.01015 1.428571,0 z"
         id="path3385-6-0"
         style="fill:#ffffff;stroke:#fafcf9;stroke-opacity:1" />
      <flowRoot
         transform="translate(70.804062,514.2199)"
         style="font-style:normal;font-variant:normal;font-weight:normal;font-stretch:normal;font-size:50px;line-height:125%;font-family:Milanotica;-inkscape-font-specification:'Milanotica, Normal';text-align:start;letter-spacing:0px;word-spacing:0px;writing-mode:lr-tb;text-anchor:start;fill:#ffffff;fill-opacity:1;stroke:none;stroke-width:1px;stroke-linecap:butt;stroke-linejoin:miter;stroke-opacity:1"
         id="flowRoot3811-83-1-1"
         xml:space="preserve"><flowRegion
           id="flowRegion3813-4-6-0"><rect
             style="font-style:normal;font-variant:normal;font-weight:normal;font-stretch:normal;font-size:50px;line-height:125%;font-family:Milanotica;-inkscape-font-specification:'Milanotica, Normal';text-align:start;writing-mode:lr-tb;text-anchor:start;fill:#ffffff"
             y="369.4653"
             x="2.8571429"
             height="60"
             width="80"
             id="rect3815-36-4-3" /></flowRegion><flowPara
           id="flowPara3817-96-6-7">b</flowPara></flowRoot>    </g>
    <g
       id="g3580-0-4"
       transform="translate(591.65389,0)">
      <path
         inkscape:connector-curvature="0"
         d="m 49.208273,804.05462 c 0,2.35136 0,4.70271 0,7.05407 0,1.99754 0,3.99508 0,5.99262 0,2.09356 0,4.18712 0,6.28067 0,2.22541 0,4.45081 0,6.67622 0.104815,2.02499 -0.08235,4.02071 -0.328799,6.02609 -0.24284,1.8717 -0.318211,3.758 -0.362082,5.643 -0.0307,1.7258 -0.02901,3.45195 -0.02802,5.17795 0.002,1.60189 0.0032,3.20378 0.004,4.80567 6.06e-4,1.51735 6.56e-4,3.0347 6.91e-4,4.55205 1.3e-5,1.43237 -8e-6,2.86474 -1.8e-5,4.29711 0.05462,1.14437 0.561047,1.91347 1.394923,2.65445 1.028227,0.74885 2.282312,0.89485 3.512749,1.00056 2.023523,0.0916 4.050602,0.063 6.075637,0.0576 2.400151,0.10391 4.775976,-0.11332 7.161106,-0.3351 2.594617,-0.12855 5.169098,-0.36773 7.745769,-0.6901 2.124416,-0.28177 4.267882,-0.35505 6.407992,-0.40069 1.998842,-0.07 4.014981,-0.27754 5.987879,-0.61729 2.264532,-0.49288 4.581895,-0.63431 6.890287,-0.74851 2.41203,-0.0923 4.82641,-0.0876 7.239803,-0.0896 1.76574,4e-4 3.53149,0.004 5.29723,0.006 1.43866,10e-4 2.87732,0.002 4.31599,0.002 1.35936,-0.0635 2.74115,0.12138 4.09006,-0.0789 0.8335,-0.34912 0.96488,-1.41533 1.20886,-2.199 0.31222,-1.7289 0.57145,-3.46935 0.83675,-5.20805 0.31678,-2.09946 0.27509,-4.22714 0.4789,-6.33499 0.29221,-2.16816 0.4693,-4.34628 0.56757,-6.53101 0.075,-2.16638 0.0767,-4.33442 0.0795,-6.50183 -0.10745,-1.92572 0.22746,-3.82402 0.43043,-5.73135 0.2088,-2.04295 0.57568,-4.06442 0.7906,-6.10803 0.15958,-1.60902 0.19021,-3.22621 0.20476,-4.84176 0.0319,-1.70381 -0.0674,-3.40962 0.0895,-5.10762 0.23879,-1.59622 0.43884,-3.19514 0.54353,-4.80589 0.01,-1.36331 0.2021,-2.75218 0.004,-4.10698 -0.033,-1.12225 -0.63662,-1.8051 -1.20115,-2.69073 -0.67424,-0.93077 -1.52189,-1.62775 -2.56663,-2.09259 -1.32924,-0.58581 -2.65206,-1.18515 -4.05716,-1.56516 -1.4474,-0.25804 -2.89619,-0.52288 -4.31104,-0.92879 -1.76804,-0.52117 -3.60832,-0.68672 -5.43963,-0.7997 -1.85218,-0.0945 -3.707303,-0.0897 -5.561293,-0.0909 -1.99259,0.002 -3.98517,0.005 -5.977753,0.007 -2.078559,10e-4 -4.157119,0.002 -6.235678,0.002 -1.767104,8e-5 -3.534207,3e-5 -5.30131,10e-6 -1.8369,-0.10316 -3.646637,0.22204 -5.464558,0.42579 -1.644608,0.16357 -3.248282,0.57517 -4.888416,0.79058 -1.60106,0.18864 -3.21478,0.20044 -4.824599,0.21471 -1.52456,0.061 -3.062711,-0.10316 -4.579182,0.0816 -1.186916,0.15847 -2.291224,0.66469 -3.352811,1.19551 -0.838285,0.51277 -1.52073,1.21112 -2.249041,1.85938 -0.721642,0.65096 -1.116397,1.51418 -1.591014,2.33996 -0.504096,0.87538 -1.742074,0.16248 -1.237978,-0.7129 l 0,0 c 0.552556,-0.95753 1.035115,-1.95135 1.882051,-2.69669 0.82451,-0.7252 1.594029,-1.51589 2.557089,-2.0675 1.21042,-0.60522 2.475296,-1.16199 3.829147,-1.33705 1.569895,-0.17061 3.151984,-0.0506 4.729107,-0.0909 1.55207,-0.0137 3.107975,-0.0232 4.651846,-0.20269 1.648885,-0.21499 3.260293,-0.63508 4.914775,-0.79378 1.870439,-0.20939 3.733693,-0.5386 5.6236,-0.43466 1.767064,2e-5 3.534129,6e-5 5.301193,-10e-6 2.078182,-1.5e-4 4.156364,-4.5e-4 6.234546,-0.002 1.993291,-0.002 3.986586,-0.005 5.979876,-0.007 1.88315,10e-4 3.767453,-0.003 5.648723,0.0936 1.93605,0.12039 3.88027,0.30164 5.74906,0.85345 1.40557,0.41237 2.85283,0.64955 4.2894,0.9227 1.4782,0.40661 2.87705,1.02104 4.27515,1.64415 1.28728,0.60088 2.36053,1.45511 3.18019,2.62865 0.65459,1.04724 1.36357,1.95991 1.40957,3.26535 0.17987,1.45464 0.0474,2.92703 0.005,4.38847 -0.10637,1.62512 -0.30294,3.23921 -0.54703,4.84935 -0.16571,1.65506 -0.0377,3.32276 -0.083,4.98409 -0.0151,1.66122 -0.0477,3.32407 -0.21256,4.97849 -0.21564,2.04412 -0.58012,4.06644 -0.79078,6.10965 -0.19799,1.85808 -0.52917,3.70597 -0.4224,5.58197 -0.003,2.18822 -0.005,4.37709 -0.081,6.56425 -0.0998,2.20978 -0.2773,4.41317 -0.57294,6.6062 -0.21256,2.13233 -0.15617,4.28772 -0.48847,6.41127 -0.27689,1.80962 -0.53614,3.62373 -0.88551,5.41877 -0.43087,1.3715 -0.81055,2.78663 -2.37964,3.18803 -1.41919,0.18024 -2.85476,0.0567 -4.28284,0.0919 -1.43914,-1.3e-4 -2.87827,-3.3e-4 -4.31741,-0.002 -1.76485,-0.002 -3.52969,-0.006 -5.29454,-0.006 -2.390263,0.002 -4.781523,-0.003 -7.170463,0.0878 -2.25163,0.11102 -4.512211,0.2468 -6.720697,0.72994 -2.043591,0.34512 -4.127609,0.56876 -6.19756,0.63728 -2.090976,0.0444 -4.185371,0.11456 -6.261022,0.38996 -2.591579,0.32424 -5.181331,0.56599 -7.790881,0.69502 -2.427629,0.22564 -4.846871,0.44398 -7.289546,0.34123 -2.067766,0.005 -4.137789,0.0356 -6.203837,-0.063 -1.548326,-0.13744 -3.091839,-0.3794 -4.352028,-1.36914 -1.104822,-1.03032 -1.808048,-2.15816 -1.859812,-3.70903 10e-6,-1.43236 3e-5,-2.86471 1.8e-5,-4.29707 -3.6e-5,-1.51714 -8.6e-5,-3.03428 -6.91e-4,-4.55141 -7.44e-4,-1.60184 -0.002,-3.20368 -0.004,-4.80552 -9.98e-4,-1.73739 -0.0027,-3.47492 0.02841,-5.2121 0.04523,-1.93211 0.123604,-3.86545 0.372361,-5.78393 0.239398,-1.94795 0.424245,-3.88434 0.318131,-5.85183 0,-2.22541 0,-4.45081 0,-6.67622 0,-2.09355 0,-4.18711 0,-6.28066 0,-1.99755 0,-3.99509 0,-5.99263 0,-2.35136 0,-4.70271 0,-7.05406 0,-1.01016 1.428572,-1.01016 1.428572,0 z"
         id="path3399-9-43"
         style="fill:#ffffff;stroke:#fafcf9;stroke-opacity:1" />
      <flowRoot
         transform="translate(70.535504,422.23237)"
         style="font-style:normal;font-variant:normal;font-weight:normal;font-stretch:normal;font-size:50px;line-height:125%;font-family:Milanotica;-inkscape-font-specification:'Milanotica, Normal';text-align:start;letter-spacing:0px;word-spacing:0px;writing-mode:lr-tb;text-anchor:start;fill:#ffffff;fill-opacity:1;stroke:none;stroke-width:1px;stroke-linecap:butt;stroke-linejoin:miter;stroke-opacity:1"
         id="flowRoot3811-2-2-94"
         xml:space="preserve"><flowRegion
           id="flowRegion3813-10-1-1"><rect
             style="font-style:normal;font-variant:normal;font-weight:normal;font-stretch:normal;font-size:50px;line-height:125%;font-family:Milanotica;-inkscape-font-specification:'Milanotica, Normal';text-align:start;writing-mode:lr-tb;text-anchor:start;fill:#ffffff"
             y="369.4653"
             x="2.8571429"
             height="60"
             width="80"
             id="rect3815-05-7-5" /></flowRegion><flowPara
           id="flowPara3817-98-6-0">c</flowPara></flowRoot>    </g>
    <g
       id="g3587-2-01"
       transform="translate(887.48088,0)">
      <path
         inkscape:connector-curvature="0"
         d="m 54.477753,715.09832 c -0.43489,4.12499 -0.4724,8.27948 -0.54307,12.42286 0.061,5.51618 -0.26148,11.01582 -0.72112,16.50924 -0.38101,4.0723 -0.62213,8.154 -0.73385,12.242 -0.12914,2.7558 0.1762,5.5084 0.8428,8.1806 0.52631,1.7587 1.2243,3.3067 2.75791,4.3663 2.05045,1.3699 4.50595,1.8072 6.87317,2.3124 3.47064,0.6001 6.98141,0.9721 10.48661,1.3111 4.24487,0.348 8.50748,0.4006 12.76429,0.4437 4.29176,0.028 8.58366,0.021 12.87548,0.018 3.073867,-0.1495 6.139277,-0.4241 9.212437,-0.5897 1.73083,-0.098 3.38119,0.2 4.65109,-1.1703 1.02335,-2.1075 0.8354,-4.6165 1.01245,-6.9055 0.28432,-4.1289 0.70079,-8.2465 0.9827,-12.3757 0.1596,-4.2215 0.52124,-8.4304 0.77209,-12.64672 0.11309,-3.23105 0.37824,-6.47298 0.19786,-9.70532 -0.15103,-2.05971 -0.42043,-4.10223 -0.92828,-6.10477 -0.42589,-1.71413 -1.11708,-3.39125 -2.1358,-4.8392 -0.96025,-1.4182 -2.36285,-2.01746 -3.90985,-2.57487 -1.97448,-0.70846 -3.98935,-1.17103 -6.06875,-1.41958 -2.6416,-0.45464 -5.307637,-0.69442 -7.981567,-0.84299 -2.74146,-0.11692 -5.48603,-0.12046 -8.22947,-0.12514 -2.839,-7.3e-4 -5.678,0.003 -8.51701,0.005 -2.95607,-0.0131 -5.89986,0.33094 -8.84801,0.51849 -2.41055,0.15369 -4.8264,0.17904 -7.24096,0.19687 -1.7678,0.048 -3.54191,-0.0807 -5.30371,0.0867 -1.00596,0.092 -1.13608,-1.33063 -0.13012,-1.42263 l 0,0 c 1.80319,-0.15938 3.61445,-0.0573 5.42329,-0.0926 2.38783,-0.0176 4.77696,-0.0422 7.16083,-0.19403 2.97801,-0.18932 5.95158,-0.53669 8.93774,-0.52137 2.84013,-0.002 5.68026,-0.006 8.52039,-0.005 2.76909,0.005 5.53933,0.008 8.30639,0.12735 2.70433,0.15067 5.401177,0.39136 8.072877,0.85101 2.18602,0.26469 4.30739,0.74878 6.38321,1.49424 1.8215,0.65888 3.47214,1.44525 4.59881,3.10471 1.0979,1.60324 1.89009,3.41414 2.34701,5.30409 0.5239,2.09279 0.81765,4.22397 0.96944,6.37601 0.17503,3.28723 -0.0743,6.58222 -0.19827,9.8679 -0.25126,4.22055 -0.61296,8.43345 -0.77289,12.65915 -0.28245,4.1336 -0.69878,8.2555 -0.98365,12.3888 -0.2033,2.6169 0.0369,5.5086 -1.4256,7.8042 -1.74769,1.6713 -3.301,1.5191 -5.58542,1.5877 -3.09836,0.1668 -6.18877,0.4466 -9.288147,0.5917 -4.29701,0 -8.59409,0.011 -12.89103,-0.018 -4.29793,-0.043 -8.60171,-0.097 -12.88748,-0.4502 -3.55904,-0.3447 -7.12399,-0.7217 -10.64722,-1.3359 -2.56126,-0.5469 -5.20109,-1.0479 -7.40781,-2.5489 -1.8584,-1.371 -2.66142,-2.9909 -3.31169,-5.1834 -0.68905,-2.7994 -1.0218,-5.6773 -0.88418,-8.5632 0.11268,-4.1147 0.35487,-8.2231 0.73829,-12.322 0.45712,-5.46197 0.7779,-10.92996 0.71636,-16.41454 0.0716,-4.19444 0.11056,-8.40013 0.5539,-12.57569 0.12529,-1.00235 1.54283,-0.82516 1.41753,0.1772 z"
         id="path3379-5-0-7"
         style="fill:#ffffff;stroke:#fafcf9;stroke-opacity:1" />
      <flowRoot
         transform="translate(68.228378,340.65744)"
         style="font-style:normal;font-variant:normal;font-weight:normal;font-stretch:normal;font-size:50px;line-height:125%;font-family:Milanotica;-inkscape-font-specification:'Milanotica, Normal';text-align:start;letter-spacing:0px;word-spacing:0px;writing-mode:lr-tb;text-anchor:start;fill:#ffffff;fill-opacity:1;stroke:none;stroke-width:1px;stroke-linecap:butt;stroke-linejoin:miter;stroke-opacity:1"
         id="flowRoot3811-26-8-05"
         xml:space="preserve"><flowRegion
           id="flowRegion3813-9-9-7"><rect
             style="font-style:normal;font-variant:normal;font-weight:normal;font-stretch:normal;font-size:50px;line-height:125%;font-family:Milanotica;-inkscape-font-specification:'Milanotica, Normal';text-align:start;writing-mode:lr-tb;text-anchor:start;fill:#ffffff"
             y="369.4653"
             x="2.8571429"
             height="60"
             width="80"
             id="rect3815-32-9-5" /></flowRegion><flowPara
           id="flowPara3817-5-6-2">d</flowPara></flowRoot>    </g>
  </g>
</svg>
