<?xml version="1.0" encoding="UTF-8" standalone="no"?>
<!-- Created with Inkscape (http://www.inkscape.org/) -->

<svg
   xmlns:dc="http://purl.org/dc/elements/1.1/"
   xmlns:cc="http://creativecommons.org/ns#"
   xmlns:rdf="http://www.w3.org/1999/02/22-rdf-syntax-ns#"
   xmlns:svg="http://www.w3.org/2000/svg"
   xmlns="http://www.w3.org/2000/svg"
   xmlns:sodipodi="http://sodipodi.sourceforge.net/DTD/sodipodi-0.dtd"
   xmlns:inkscape="http://www.inkscape.org/namespaces/inkscape"
   id="svg2"
   version="1.1"
   inkscape:version="0.91 r13725"
   xml:space="preserve"
   width="244.50931"
   height="227.48749"
   viewBox="0 0 244.50931 227.4875"
   sodipodi:docname="load-addressing.svg"><metadata
     id="metadata8"><rdf:RDF><cc:Work
         rdf:about=""><dc:format>image/svg+xml</dc:format><dc:type
           rdf:resource="http://purl.org/dc/dcmitype/StillImage" /><dc:title></dc:title></cc:Work></rdf:RDF></metadata><defs
     id="defs6"><clipPath
       clipPathUnits="userSpaceOnUse"
       id="clipPath54"><path
         d="m 303.43,685.66 88.56,0 0,47.16 -88.56,0 0,-47.16 z"
         id="path56"
         inkscape:connector-curvature="0"
         style="clip-rule:evenodd" /></clipPath><clipPath
       clipPathUnits="userSpaceOnUse"
       id="clipPath84"><path
         d="m 101.06,621.7 104.04,0 0,81.12 -104.04,0 0,-81.12 z"
         id="path86"
         inkscape:connector-curvature="0"
         style="clip-rule:evenodd" /></clipPath><clipPath
       clipPathUnits="userSpaceOnUse"
       id="clipPath104"><path
         d="m 64.296,685.66 228.26,0 0,55.56 -228.26,0 0,-55.56 z"
         id="path106"
         inkscape:connector-curvature="0"
         style="clip-rule:evenodd" /></clipPath><clipPath
       clipPathUnits="userSpaceOnUse"
       id="clipPath138"><path
         d="m 64.296,685.66 228.26,0 0,55.56 -228.26,0 0,-55.56 z"
         id="path140"
         inkscape:connector-curvature="0"
         style="clip-rule:evenodd" /></clipPath><clipPath
       clipPathUnits="userSpaceOnUse"
       id="clipPath148"><path
         d="m 64.296,685.66 228.26,0 0,55.56 -228.26,0 0,-55.56 z"
         id="path150"
         inkscape:connector-curvature="0"
         style="clip-rule:evenodd" /></clipPath><clipPath
       clipPathUnits="userSpaceOnUse"
       id="clipPath176"><path
         d="m 64.296,685.66 228.26,0 0,55.56 -228.26,0 0,-55.56 z"
         id="path178"
         inkscape:connector-curvature="0"
         style="clip-rule:evenodd" /></clipPath><clipPath
       clipPathUnits="userSpaceOnUse"
       id="clipPath186"><path
         d="m 64.296,685.66 228.26,0 0,55.56 -228.26,0 0,-55.56 z"
         id="path188"
         inkscape:connector-curvature="0"
         style="clip-rule:evenodd" /></clipPath><clipPath
       clipPathUnits="userSpaceOnUse"
       id="clipPath216"><path
         d="m 97.392,550.63 84.96,0 0,42.12 -84.96,0 0,-42.12 z"
         id="path218"
         inkscape:connector-curvature="0"
         style="clip-rule:evenodd" /></clipPath><clipPath
       clipPathUnits="userSpaceOnUse"
       id="clipPath240"><path
         d="m 188.16,511.15 79.44,0 0,27.6 -79.44,0 0,-27.6 z"
         id="path242"
         inkscape:connector-curvature="0"
         style="clip-rule:evenodd" /></clipPath><clipPath
       clipPathUnits="userSpaceOnUse"
       id="clipPath262"><path
         d="m 431.4,625.66 107.9,0 0,39.12 -107.9,0 0,-39.12 z"
         id="path264"
         inkscape:connector-curvature="0"
         style="clip-rule:evenodd" /></clipPath><clipPath
       clipPathUnits="userSpaceOnUse"
       id="clipPath288"><path
         d="m 352.46,623.14 55.92,0 0,41.64 -55.92,0 0,-41.64 z"
         id="path290"
         inkscape:connector-curvature="0"
         style="clip-rule:evenodd" /></clipPath><clipPath
       clipPathUnits="userSpaceOnUse"
       id="clipPath304"><path
         d="m 352.46,613.66 45.48,0 0,15.12 -45.48,0 0,-15.12 z"
         id="path306"
         inkscape:connector-curvature="0"
         style="clip-rule:evenodd" /></clipPath><clipPath
       clipPathUnits="userSpaceOnUse"
       id="clipPath314"><path
         d="m 352.46,601.66 45.48,0 0,15.12 -45.48,0 0,-15.12 z"
         id="path316"
         inkscape:connector-curvature="0"
         style="clip-rule:evenodd" /></clipPath><clipPath
       clipPathUnits="userSpaceOnUse"
       id="clipPath324"><path
         d="m 352.46,589.66 45.48,0 0,15.12 -45.48,0 0,-15.12 z"
         id="path326"
         inkscape:connector-curvature="0"
         style="clip-rule:evenodd" /></clipPath><clipPath
       clipPathUnits="userSpaceOnUse"
       id="clipPath334"><path
         d="m 352.46,553.63 110.04,0 0,46.56 -110.04,0 0,-46.56 z"
         id="path336"
         inkscape:connector-curvature="0"
         style="clip-rule:evenodd" /></clipPath><clipPath
       clipPathUnits="userSpaceOnUse"
       id="clipPath354"><path
         d="m 251.93,442.61 94.2,0 0,30.144 -94.2,0 0,-30.144 z"
         id="path356"
         inkscape:connector-curvature="0"
         style="clip-rule:evenodd" /></clipPath><clipPath
       clipPathUnits="userSpaceOnUse"
       id="clipPath376"><path
         d="m 197.54,449.57 90.72,0 0,55.704 -90.72,0 0,-55.704 z"
         id="path378"
         inkscape:connector-curvature="0"
         style="clip-rule:evenodd" /></clipPath><clipPath
       clipPathUnits="userSpaceOnUse"
       id="clipPath390"><path
         d="m 217.78,638.14 111.5,0 0,67.08 -111.5,0 0,-67.08 z"
         id="path392"
         inkscape:connector-curvature="0"
         style="clip-rule:evenodd" /></clipPath><clipPath
       clipPathUnits="userSpaceOnUse"
       id="clipPath408"><path
         d="m 64.56,782.76 151.82,0 0,24.6 -151.82,0 0,-24.6 z"
         id="path410"
         inkscape:connector-curvature="0"
         style="clip-rule:evenodd" /></clipPath><clipPath
       clipPathUnits="userSpaceOnUse"
       id="clipPath416"><path
         d="m 64.56,783 151.82,0 0,24.36 -151.82,0 0,-24.36 z"
         id="path418"
         inkscape:connector-curvature="0"
         style="clip-rule:evenodd" /></clipPath><clipPath
       clipPathUnits="userSpaceOnUse"
       id="clipPath428"><path
         d="m 64.56,766.97 83.784,0 0,12.36 -83.784,0 0,-12.36 z"
         id="path430"
         inkscape:connector-curvature="0"
         style="clip-rule:evenodd" /></clipPath><clipPath
       clipPathUnits="userSpaceOnUse"
       id="clipPath436"><path
         d="m 64.56,767.09 83.784,0 0,12.24 -83.784,0 0,-12.24 z"
         id="path438"
         inkscape:connector-curvature="0"
         style="clip-rule:evenodd" /></clipPath><clipPath
       clipPathUnits="userSpaceOnUse"
       id="clipPath448"><path
         d="m 152.5,766.97 38.52,0 0,12.36 -38.52,0 0,-12.36 z"
         id="path450"
         inkscape:connector-curvature="0"
         style="clip-rule:evenodd" /></clipPath><clipPath
       clipPathUnits="userSpaceOnUse"
       id="clipPath456"><path
         d="m 152.5,767.09 38.52,0 0,12.24 -38.52,0 0,-12.24 z"
         id="path458"
         inkscape:connector-curvature="0"
         style="clip-rule:evenodd" /></clipPath><clipPath
       clipPathUnits="userSpaceOnUse"
       id="clipPath468"><path
         d="m 64.56,1.344 53.544,0 0,11.16 -53.544,0 0,-11.16 z"
         id="path470"
         inkscape:connector-curvature="0"
         style="clip-rule:evenodd" /></clipPath><clipPath
       clipPathUnits="userSpaceOnUse"
       id="clipPath476"><path
         d="m 64.56,1.464 53.544,0 0,11.04 -53.544,0 0,-11.04 z"
         id="path478"
         inkscape:connector-curvature="0"
         style="clip-rule:evenodd" /></clipPath><clipPath
       clipPathUnits="userSpaceOnUse"
       id="clipPath484"><path
         d="m 0,1.344 595.27,0 0,11.16 -595.27,0 0,-11.16 z"
         id="path486"
         inkscape:connector-curvature="0"
         style="clip-rule:evenodd" /></clipPath><clipPath
       clipPathUnits="userSpaceOnUse"
       id="clipPath492"><path
         d="m 0,1.464 595.27,0 0,11.04 -595.27,0 0,-11.04 z"
         id="path494"
         inkscape:connector-curvature="0"
         style="clip-rule:evenodd" /></clipPath><clipPath
       clipPathUnits="userSpaceOnUse"
       id="clipPath504"><path
         d="m 477.38,1.344 53.52,0 0,11.16 -53.52,0 0,-11.16 z"
         id="path506"
         inkscape:connector-curvature="0"
         style="clip-rule:evenodd" /></clipPath><clipPath
       clipPathUnits="userSpaceOnUse"
       id="clipPath512"><path
         d="m 477.38,1.464 53.52,0 0,11.04 -53.52,0 0,-11.04 z"
         id="path514"
         inkscape:connector-curvature="0"
         style="clip-rule:evenodd" /></clipPath></defs><sodipodi:namedview
     pagecolor="#000000"
     bordercolor="#666666"
     borderopacity="1"
     objecttolerance="10"
     gridtolerance="10"
     guidetolerance="10"
     inkscape:pageopacity="0"
     inkscape:pageshadow="2"
     inkscape:window-width="1920"
     inkscape:window-height="1002"
     id="namedview4"
     showgrid="false"
     fit-margin-top="0"
     fit-margin-left="0"
     fit-margin-right="0"
     fit-margin-bottom="0"
     inkscape:zoom="1.2663799"
     inkscape:cx="400.65809"
     inkscape:cy="50.861796"
     inkscape:window-x="0"
     inkscape:window-y="41"
     inkscape:window-maximized="1"
     inkscape:current-layer="g10"
     inkscape:snap-nodes="false" /><g
     id="g10"
     inkscape:groupmode="layer"
     inkscape:label="Memory Access"
     transform="matrix(1.25,0,0,-1.25,-90.378201,924.325)"><g
       id="g50"
       style="fill:#ffffff"><g
         id="g52"
         clip-path="url(#clipPath54)"
         style="fill:#ffffff"><g
           id="g58"
           style="fill:#ffffff" /></g></g><g
       id="g80"
       style="fill:#ffffff"><g
         id="g82"
         clip-path="url(#clipPath84)"
         style="fill:#ffffff"><g
           id="g88"
           style="fill:#ffffff" /></g></g><g
       id="g100"
       style="fill:#ffffff"><g
         id="g102"
         clip-path="url(#clipPath104)"
         style="fill:#ffffff"><g
           id="g108"
           style="fill:#ffffff" /></g></g><g
       id="g134"
       style="fill:#ffffff"><g
         id="g136"
         clip-path="url(#clipPath138)"
         style="fill:#ffffff"><g
           id="g142"
           style="fill:#ffffff" /></g></g><g
       id="g144"
       style="fill:#ffffff"><g
         id="g146"
         clip-path="url(#clipPath148)"
         style="fill:#ffffff"><g
           id="g152"
           style="fill:#ffffff" /></g></g><g
       id="g172"
       style="fill:#ffffff"><g
         id="g174"
         clip-path="url(#clipPath176)"
         style="fill:#ffffff"><g
           id="g180"
           style="fill:#ffffff" /></g></g><g
       id="g182"
       style="fill:#ffffff"><g
         id="g184"
         clip-path="url(#clipPath186)"
         style="fill:#ffffff"><g
           id="g190"
           style="fill:#ffffff" /></g></g><g
       id="g212"
       style="fill:#ffffff"><g
         id="g214"
         clip-path="url(#clipPath216)"
         style="fill:#ffffff"><g
           id="g220"
           style="fill:#ffffff" /></g></g><g
       id="g236"
       style="fill:#ffffff"><g
         id="g238"
         clip-path="url(#clipPath240)"
         style="fill:#ffffff"><g
           id="g244"
           style="fill:#ffffff" /></g></g><g
       id="g258"
       style="fill:#ffffff"><g
         id="g260"
         clip-path="url(#clipPath262)"
         style="fill:#ffffff"><g
           id="g266"
           style="fill:#ffffff" /></g></g><g
       id="g284"
       style="fill:#ffffff"><g
         id="g286"
         clip-path="url(#clipPath288)"
         style="fill:#ffffff"><g
           id="g292"
           style="fill:#ffffff" /></g></g><g
       id="g300"
       style="fill:#ffffff"><g
         id="g302"
         clip-path="url(#clipPath304)"
         style="fill:#ffffff"><g
           id="g308"
           style="fill:#ffffff" /></g></g><g
       id="g310"
       style="fill:#ffffff"><g
         id="g312"
         clip-path="url(#clipPath314)"
         style="fill:#ffffff"><g
           id="g318"
           style="fill:#ffffff" /></g></g><g
       id="g320"
       style="fill:#ffffff"><g
         id="g322"
         clip-path="url(#clipPath324)"
         style="fill:#ffffff"><g
           id="g328"
           style="fill:#ffffff" /></g></g><g
       id="g330"
       style="fill:#ffffff"><g
         id="g332"
         clip-path="url(#clipPath334)"
         style="fill:#ffffff"><g
           id="g338"
           style="fill:#ffffff" /></g></g><g
       id="g350"
       style="fill:#ffffff"><g
         id="g352"
         clip-path="url(#clipPath354)"
         style="fill:#ffffff"><g
           id="g358"
           style="fill:#ffffff" /></g></g><g
       id="g372"
       style="fill:#ffffff"><g
         id="g374"
         clip-path="url(#clipPath376)"
         style="fill:#ffffff"><g
           id="g380"
           style="fill:#ffffff" /></g></g><g
       id="g386"
       style="fill:#ffffff"><g
         id="g388"
         clip-path="url(#clipPath390)"
         style="fill:#ffffff"><g
           id="g394"
           style="fill:#ffffff" /></g></g><g
       id="g464"
       style="fill:#ffffff"><g
         id="g466"
         clip-path="url(#clipPath468)"
         style="fill:#ffffff"><g
           id="g472"
           style="fill:#ffffff"><g
             id="g474"
             clip-path="url(#clipPath476)"
             style="fill:#ffffff" /></g></g></g><g
       id="g500"
       style="fill:#ffffff"><g
         id="g502"
         clip-path="url(#clipPath504)"
         style="fill:#ffffff"><g
           id="g508"
           style="fill:#ffffff"><g
             id="g510"
             clip-path="url(#clipPath512)"
             style="fill:#ffffff" /></g></g></g><path
       inkscape:connector-curvature="0"
       id="path20"
       style="fill:#ffffff;fill-opacity:1;fill-rule:nonzero;stroke:none"
       d="m 135.74,670.44 0.15,0.1 0,0 0.14,0.09 -0.05,-0.02 0.2,0.12 -0.05,-0.03 0.21,0.1 0,0 0.29,0.12 0.22,0.14 0.12,0.12 -0.07,-0.04 0.28,0.24 0.05,0.04 0.36,0.39 0,0 0.53,0.53 0,0 0.55,0.52 0,0 0.51,0.51 -0.03,0 0.55,0.53 0,0 0.68,0.64 0.07,0.08 0.5,0.67 0,0 0.51,0.65 -0.05,-0.05 0.65,0.65 0.04,0.04 0.68,0.8 -0.03,-0.05 0.79,0.81 0.05,0.05 0.63,0.82 -0.05,-0.05 0.5,0.5 0,0 0.67,0.65 0.03,0.03 0.62,0.67 -0.02,-0.03 0.67,0.65 0.02,0 0.53,0.55 -0.02,-0.04 0.48,0.4 0.02,0.03 0.53,0.5 0.02,0 0.56,0.55 0,0 0.5,0.56 0,-0.03 0.67,0.67 -0.05,-0.04 0.8,0.67 0.04,0.02 0.77,0.79 -0.05,-0.04 0.8,0.64 0,0 0.64,0.53 0.05,0.05 0.55,0.53 -0.04,-0.03 0.64,0.51 0,0 0.51,0.38 0,0 0.5,0.41 0.05,0.02 0.55,0.51 0.03,0 0.62,0.57 -0.07,-0.04 0.5,0.36 0.03,0.02 0.55,0.43 -0.05,-0.02 0.55,0.36 0.1,0.09 0.5,0.53 0,-0.02 0.53,0.55 0,0 0.5,0.5 -0.02,-0.04 0.65,0.55 0.05,0.02 0.52,0.55 -0.04,-0.04 0.5,0.38 -0.05,-0.02 0.41,0.24 0.1,0.09 0.4,0.39 -0.09,-0.08 0.41,0.29 0,0 0.36,0.24 -0.03,0 0.41,0.24 0.02,0.03 0.41,0.28 0.07,0.08 0.12,0.09 -0.09,-0.07 0.17,0.12 0.02,0 0.38,0.29 -0.4,-0.12 0.07,0 c 0.19,-0.03 0.38,0.05 0.53,0.19 l 0.12,0.14 -0.46,-0.19 0.14,0 0,0 0.12,0 0,0 0.12,0 0,0 0.15,0 0.02,0 0.15,0 0.33,0.1 0.22,0.14 0,0 0.19,0.12 -0.36,-0.12 0.1,0 c 0.26,0 0.48,0.15 0.6,0.36 l 0.09,0.22 c 0.05,0.05 0.05,0.14 0,0.19 l -0.09,0.22 c -0.12,0.21 -0.34,0.36 -0.6,0.36 l -0.1,0 -0.38,-0.12 -0.17,-0.12 0.02,0.02 -0.21,-0.14 0.36,0.09 -0.15,0 -0.02,0 -0.15,0 0,0 -0.12,0 0,0 -0.12,0 0,0 -0.14,0 c -0.19,0 -0.36,-0.07 -0.48,-0.19 l -0.14,-0.14 0.43,0.21 -0.07,-0.02 -0.36,-0.12 -0.41,-0.29 0.02,0.02 -0.17,-0.12 -0.09,-0.07 -0.12,-0.12 0.09,0.07 -0.4,-0.28 0.04,0 -0.4,-0.24 -0.03,-0.03 -0.36,-0.24 -0.02,-0.02 -0.39,-0.29 -0.07,-0.05 -0.41,-0.41 0.12,0.08 -0.4,-0.27 -0.03,-0.02 -0.53,-0.39 -0.04,-0.07 -0.56,-0.53 0.05,0.03 -0.65,-0.53 -0.04,-0.05 -0.51,-0.5 0,0 -0.53,-0.55 -0.02,0 -0.5,-0.53 0.09,0.07 -0.53,-0.36 -0.04,-0.02 -0.53,-0.44 0.02,0.03 -0.53,-0.36 -0.04,-0.05 -0.63,-0.58 0,0 -0.55,-0.5 0.02,0.02 -0.5,-0.4 0,0 -0.5,-0.39 0,0 -0.68,-0.5 -0.04,-0.07 -0.53,-0.53 0.02,0.02 -0.65,-0.53 0.03,0 -0.79,-0.64 -0.08,-0.05 -0.74,-0.82 0.05,0.05 -0.79,-0.65 -0.05,-0.05 -0.65,-0.69 0,0 -0.5,-0.53 0,0 -0.53,-0.55 0,0.02 -0.53,-0.53 0.02,0.05 -0.48,-0.41 -0.04,-0.02 -0.53,-0.55 0.02,0 -0.69,-0.65 -0.03,-0.02 -0.62,-0.68 0.02,0.03 -0.67,-0.65 -0.02,-0.02 -0.51,-0.51 -0.05,-0.05 -0.62,-0.84 0.07,0.08 -0.81,-0.8 -0.03,-0.04 -0.67,-0.8 0.02,0.05 -0.64,-0.65 -0.05,-0.07 -0.51,-0.65 -0.02,0 -0.5,-0.69 0.07,0.07 -0.67,-0.65 -0.03,-0.02 -0.53,-0.53 -0.02,-0.02 -0.48,-0.53 0.02,0.02 -0.52,-0.55 0,0 -0.53,-0.53 -0.03,-0.02 -0.36,-0.41 0.03,0.05 -0.29,-0.27 -0.05,-0.07 -0.09,-0.14 0.12,0.14 -0.27,-0.17 0,0 -0.21,-0.14 -0.12,-0.07 -0.12,-0.17 -0.05,-0.02 -0.07,-0.15 -0.05,-0.07 -0.07,-0.17 c -0.08,-0.14 -0.03,-0.31 0.09,-0.43 0.15,-0.1 0.31,-0.1 0.43,0 z" /><path
       inkscape:connector-curvature="0"
       id="path94"
       style="fill:#ff99ff;fill-opacity:1;fill-rule:nonzero;stroke:none"
       d="m 108.29,666.38 -0.07,-0.07 -0.08,-0.17 -0.02,-0.09 -0.02,-0.05 0,-0.14 0.02,0.09 -0.05,-0.14 0.03,0.07 -0.05,-0.1 -0.05,-0.16 -0.02,-0.15 0,0 0,-0.14 0.02,-0.19 0.14,-0.41 -0.02,0.17 -0.02,-0.51 0,0 0,-0.69 0,0 0,-0.65 0,0 0,-0.67 0,0 0,-0.68 0,0.03 0,-0.51 0,-0.14 0.14,-0.53 -0.02,0.12 0,-0.55 0,0 0,-0.65 0,0 0,-0.67 0,-0.07 0.12,-0.79 0,-0.03 0.12,-0.65 -0.03,0.08 0,-0.65 0,0 0,-0.67 0,0 0,-0.65 0,0 0,-0.7 0,0 0.03,-0.65 0,0 0,-0.64 0,0 0,-0.68 0,0 0,-0.64 0,-0.03 0,-0.53 0,0 0,-0.5 0,0 0,-0.53 0,0 0,-0.55 0,0 0,-0.41 0,0 0,-0.38 0,0 0,-0.41 0,0 0,-0.53 0,0 0,-0.36 0,0 0,-0.55 0,0 0,-0.53 0,0 0,-0.5 0,0 0,-0.55 0,0 0,-0.53 0,0 0,-0.41 0,0 0,-0.41 0,0.03 0,-0.41 0,0 0,-0.39 0,0 -0.03,-0.4 0,0 0,-0.41 0,0 0,-0.39 0,0 0,-0.4 0,0.02 0,-0.14 0,0 0,-0.41 0,0.02 0,-0.09 0.03,0.09 -0.12,-0.38 -0.03,-0.15 0,-0.4 0,0.04 -0.02,-0.12 0,-0.02 0,-0.43 0,0 0,-0.12 0,-0.03 0,-0.4 0.02,0.16 -0.12,-0.4 -0.02,-0.15 0,-0.41 0,0 0,-0.38 0,0 0,-0.41 0,0.03 -0.03,-0.12 0,-0.03 0,-0.12 0,0 0,-0.14 0,0.02 0,-0.14 0,-0.03 0,-0.12 0,0 0,-0.12 0,0 0,-0.14 0,0 -0.02,-0.12 0,-0.02 0,-0.15 0,0.03 0,-0.15 0,0 0,-0.14 0,0 0,-0.12 0,0.02 0,-0.14 0.29,0.5 -0.05,-0.02 c -0.22,-0.12 -0.34,-0.36 -0.34,-0.6 l -0.02,-0.15 0,0 0,-0.28 0,-0.03 0,-0.24 0,0 0,-0.12 0,0.07 0,-0.14 c -0.02,-0.22 0.05,-0.41 0.19,-0.58 0.15,-0.14 0.34,-0.24 0.55,-0.24 l 0.12,0 0,0 0.1,0 0.02,0 0.17,0 -0.02,0 0.12,0 0.02,0 0.15,0 0,0 0.14,0 0.02,0 0.08,0.03 -0.05,0 0.14,0 0,0 0.15,0 0.02,0 0.14,0 -0.02,0 0.12,0 0.02,0 0.15,0 -0.03,0 0.15,0 0,0 0.12,0 0,0 0.12,0 0.02,0 0.15,0 0,0 0.12,0 -0.03,0 0.15,0 0,0 0.12,0 0,0 0.14,0 0.02,0 0.1,0.02 0,0 0.14,0 -0.02,0 0.14,0 0,0 0.12,0 0.03,0 0.12,0 0,0 0.12,0 0,0 0.12,0 0,0 0.14,0 0.03,0 0.12,0 -0.03,0 0.17,0 0,0 0.1,0 0,0 0.12,0 0,0 0.14,0 0,0 0.14,0 0,0 0.12,0 0,0 0.12,0 0,0 0.15,0 0,0 0.12,0 0,0 0.09,0 0.03,0 0.17,0 0,0 0.12,0 0,0 0.12,0 -0.03,0 0.15,0 0,0 0.14,0 0.02,0 0.1,0 0,0 0.14,0 0,0 0.15,0 0,0 0.12,0 0,0 0.12,0 0,0 0.12,0 0,0 0.14,0 0,0 0.12,0 -0.02,0 0.14,-0.02 0.03,0 0.14,0 0,0 0.12,0 0,0 0.14,0 -0.5,0.21 0.14,-0.14 c 0.12,-0.12 0.32,-0.22 0.51,-0.22 l 0.12,0 -0.03,0 0.12,0 0.03,0 0.12,0 0,0 0.14,0 0,0 0.1,0 -0.51,0.22 0.15,-0.14 c 0.14,-0.12 0.33,-0.2 0.5,-0.2 l 0.15,0 0,0 0.14,0 0,0 0.24,0 0,0 0.17,0 0,0 0.24,0 0,0 0.24,0 0,0 0.29,0 0,0 0.24,0 0,0 0.12,0 0,0 0.28,0 0,0 0.27,0 0,0 0.24,0 0,0 0.29,0 0,0 0.24,0 0,0 0.14,0 0,0 0.12,0 0,0 0.41,0 0,0 0.41,0 0,0 0.36,-0.02 0,0 0.38,0 0,0 0.38,0 0.03,0 0.38,0 0,0 0.41,0 0,0 0.38,0 0,0 0.41,0 0,0 0.39,0 0,0 0.38,0 0,0 0.38,0 0,0 0.56,0 -0.03,0 0.39,0 0,0 0.52,0 0.03,0 0.38,0 0,0 0.36,0 0,0 0.43,0 0,0 0.39,0 0,0 0.38,0 0,0 0.41,0 -0.02,0 0.4,0 0,0 0.41,0 0,0 0.39,0 0,0 0.36,0 0,0 0.4,0 0,0 0.41,0 0,0 0.39,0 0,0 0.14,0 0,0 0.36,0 0.26,0.02 0.39,0.15 -0.24,-0.03 0.14,0 0,0 0.39,0 0,0 0.38,0 0.24,0.03 0.41,0.14 -0.27,-0.05 0.15,0 0.26,0.05 0.39,0.15 -0.05,0 0.41,0.12 0.02,0 0.41,0.14 -0.24,-0.05 0.12,0 0,0 0.12,0 0.21,0.05 0.39,0.1 -0.19,-0.03 0.16,0 0.24,0.05 0.36,0.17 -0.26,-0.07 0.14,0 0,0 0.41,0 0,0 0.1,0 0,0 0.14,0 0,0 0.39,0 0,0 0.12,0 0.26,0.04 0.38,0.15 -0.24,-0.05 0.12,0 0,0 0.44,0 0,0 0.12,0 0,0 0.09,0 0,0 0.43,0 0,0 0.1,0 0,0 0.41,0 0,0 0.14,0 0,0 0.15,0 0,0 0.12,0 0.24,0.05 0.38,0.14 -0.24,-0.05 0.12,0 0,0 0.14,0 0,0 0.15,0 0,0 0.09,0 c 0.17,0 0.34,0.08 0.48,0.17 l 0.12,0.12 -0.21,-0.12 0.41,0.15 0.28,0.19 0.1,0.12 -0.5,-0.24 0.16,0 0.03,0 0.07,0 0.29,0.09 0.29,0.12 0.02,0.03 0.26,0.14 -0.33,-0.09 0.09,0 0,0 0.17,0 c 0.22,0 0.43,0.09 0.55,0.26 l 0.12,0.14 -0.04,-0.04 0.12,0.09 -0.05,-0.02 0.17,0.12 0.09,0.12 0.1,0.12 -0.07,-0.07 0.14,0.16 0,-0.02 0.29,0.29 0,0 0.09,0.12 0,0 0.15,0.12 0,0 0.14,0.14 0.07,0.07 0.1,0.15 -0.05,-0.07 0.12,0.12 0,0 0.15,0.14 -0.08,-0.05 0.15,0.12 c 0.12,0.1 0.19,0.22 0.24,0.34 l 0.09,0.41 -0.16,-0.32 0.14,0.15 0.17,0.26 0.14,0.39 0,0.04 0.12,0.41 -0.02,-0.05 0.14,0.39 0.03,0.05 0.12,0.4 -0.05,-0.09 0.17,0.41 0.04,0.14 0.08,0.38 0,-0.02 0.14,0.53 0,0 0.14,0.53 0,0.04 0.12,0.53 0.03,0.15 0,0.52 0,0 0,0.39 -0.05,-0.24 0.14,0.41 0.05,0.21 0,0.55 0,0 0,0.41 0,0 0,0.39 0,0 0,0.4 -0.02,-0.02 0.02,0.14 0,0.03 0,0.36 0,0 0,0.43 0,0 0,0.36 0,0 0,0.43 0,0 0,0.36 0,0 0,0.43 0,0 0,0.36 0,0 0,0.15 0,0 0,0.38 0,0 0,0.55 0,0 0,0.41 0,0 0,0.39 0,0 0,0.38 0,0.02 0,0.53 0,0 0,0.36 0,0 0,0.43 0,0 0,0.44 0,-0.03 0,0.39 0,0 0,0.36 -0.05,-0.22 0.15,0.43 0.05,0.22 0,0.41 -0.03,-0.2 0.12,0.39 0.03,0.19 0,0.53 0,0 0,0.53 0,0 0,0.4 -0.03,-0.19 0.15,0.55 0.02,0.17 0,0.51 0,0 0,0.4 -0.02,-0.14 0.12,0.53 0,0.14 0,0.41 0,0 0,0.53 0,0 0,0.55 -0.05,-0.26 0.17,0.38 0.04,0.26 0,0.41 0,0 0,0.53 -0.02,-0.19 0.12,0.36 0.02,0.19 0,0.43 0,0 0,0.39 0,0 0,0.12 0,0 0,0.12 0,0 0,0.16 0,0 0,0.12 0,0 0,0.15 0,0 0,0.12 0,0 0,0.14 0,0 0,0.15 0,0 0,0.12 0,0 0,0.12 0,0 0,0.14 0,0 0,0.12 0,0 0,0.14 0,0 0,0.15 0,0 0,0.14 0,0 0,0.1 0,0 0,0.14 0,0 0,0.12 0,-0.02 0,0.14 0,0.03 0,0.14 0,0 0,0.14 0,-0.02 0,0.1 0,0.02 0,0.14 c 0,0.17 -0.04,0.34 -0.14,0.46 l -0.12,0.12 c -0.12,0.19 -0.34,0.29 -0.55,0.29 l -0.17,0 c -0.38,0 -0.7,-0.34 -0.7,-0.72 0,-0.39 0.32,-0.7 0.7,-0.7 0.38,0 0.72,0.31 0.72,0.7 l 0,0.12 c 0,0.19 -0.1,0.36 -0.22,0.5 -0.14,0.12 -0.31,0.19 -0.5,0.19 l -0.12,0 0.53,-0.21 -0.15,0.14 0.2,-0.48 0,0.15 c 0,0.16 -0.08,0.36 -0.2,0.48 l -0.12,0.12 c -0.12,0.14 -0.28,0.21 -0.48,0.21 l -0.14,0 0.48,-0.19 -0.14,0.12 0,0 -0.12,0.12 0,0 -0.12,0.14 0,0 -0.15,0.15 c -0.12,0.14 -0.31,0.21 -0.53,0.21 l -0.07,0 0.48,-0.16 -0.17,0.14 0.05,-0.05 -0.12,0.1 0,0.02 -0.14,0.15 -0.22,0.14 -0.24,0.12 0.22,-0.14 -0.15,0.14 -0.16,0.12 -0.24,0.14 0.14,-0.12 -0.14,0.15 0,0 -0.12,0.12 -0.22,0.14 -0.26,0.12 -0.29,0.05 -0.15,0 0.36,-0.1 -0.26,0.15 0.19,-0.12 -0.14,0.14 -0.15,0.12 -0.24,0.15 -0.04,0.02 -0.29,0.14 0.19,-0.14 -0.12,0.12 -0.19,0.14 -0.29,0.15 -0.1,0.05 -0.4,0.12 0.33,-0.22 -0.14,0.14 -0.29,0.2 -0.36,0.14 -0.26,0.05 -0.12,0 0.33,-0.07 -0.29,0.14 0.22,-0.14 -0.14,0.14 -0.32,0.17 -0.4,0.12 0.38,-0.27 -0.1,0.15 c -0.09,0.14 -0.24,0.24 -0.4,0.29 l -0.39,0.12 0.05,-0.03 -0.38,0.15 0,0 -0.41,0.14 -0.29,0.05 -0.1,0 0.2,-0.03 -0.41,0.12 -0.22,0.03 -0.09,0 0.28,-0.05 -0.4,0.14 0,0 -0.39,0.15 -0.29,0.05 -0.14,0 0.22,-0.03 -0.39,0.1 0.05,0 -0.38,0.14 -0.29,0.05 -0.41,-0.02 0.02,0 -0.12,0 0,0 -0.14,0 0.29,-0.05 -0.36,0.14 -0.29,0.05 -0.17,0 0.29,-0.05 -0.38,0.15 -0.29,0.04 -0.39,0 -0.02,0 -0.14,0 0,0 -0.12,0 0.02,0 -0.38,0 0,0 -0.12,0 0,0 -0.44,0 0,0 -0.09,0 0,0 -0.39,0 0,0 -0.38,0 0,0 -0.43,0 -0.03,0 -0.12,-0.02 0.03,0 -0.39,0 -0.02,0 -0.38,0 0,0 -0.41,0 0.02,0 -0.41,0 0,0 -0.12,0 0,0 -0.38,0 0,0 -0.41,0 0,0 -0.38,0 0.02,0 -0.12,0 -0.29,-0.02 -0.38,-0.15 -0.02,0 -0.39,-0.14 0.27,0.05 -0.41,0 -0.27,-0.05 -0.38,-0.15 0.26,0.05 -0.12,0 -0.02,0 -0.41,0 -0.24,-0.05 -0.36,-0.12 0.24,0.05 -0.38,0 -0.29,-0.07 -0.36,-0.12 0.26,0.05 -0.38,0 -0.24,-0.05 -0.43,-0.12 0.24,0.02 -0.41,0 -0.22,-0.02 -0.36,-0.12 -0.04,0 -0.39,-0.14 0.24,0.02 -0.38,0 -0.29,-0.05 -0.36,-0.14 0.07,0.02 -0.41,-0.09 0.22,0.02 -0.41,0 0,0 -0.38,0 0,0 -0.41,0 0,0 -0.38,0 0,0 -0.41,0 0,0 -0.39,0 0,0 -0.38,0 -0.24,-0.05 -0.41,-0.14 0.27,0.05 -0.41,0 0,0 -0.39,0 -0.21,-0.03 -0.41,-0.12 0.22,0.03 -0.39,0 0,0 -0.14,0 0,0 -0.36,0 0,0 -0.12,0 -0.27,-0.05 -0.4,-0.15 0.26,0.05 -0.14,0 -0.03,0 -0.14,0 0.02,0 -0.14,0 0.05,0 -0.12,0 -0.03,0 -0.14,0 0.02,0 -0.12,0 -0.29,-0.05 -0.38,-0.14 0.26,0.05 -0.14,0 0,0 -0.12,0 -0.26,-0.05 -0.41,-0.12 0,0 -0.39,-0.14 0.27,0.04 -0.12,0 -0.03,0 -0.14,-0.02 0,0 -0.14,0 0.02,0 -0.1,0 0,0 -0.14,0 0,0 -0.14,0 0.02,0 -0.12,0 -0.02,0 -0.12,0 0,0 -0.17,0 0,0 -0.12,0 0,0 -0.12,0 -0.24,-0.02 -0.36,-0.12 0.19,0.04 -0.14,-0.02 0.02,0 -0.14,0 c -0.2,0 -0.39,-0.07 -0.53,-0.22 l -0.15,-0.14 0.32,0.19 -0.36,-0.09 0.21,0.02 -0.14,0 0,0 -0.12,0 0,0 -0.12,0 0.02,0 -0.14,0 -0.03,0 -0.12,0 0,0 -0.14,0 0,0 -0.14,0 -0.03,0 -0.12,0 0.05,0 -0.14,0 0,0 -0.12,0 0,0 -0.15,0 0,0 -0.12,0 0,0 -0.14,0 0,0 -0.15,0 0.03,0 -0.12,0 c -0.22,0 -0.41,-0.1 -0.58,-0.24 -0.14,-0.17 -0.21,-0.36 -0.19,-0.58 l 0,-0.14 c 0.02,-0.41 0.38,-0.72 0.79,-0.72 0.43,0.02 0.75,0.38 0.72,0.79 -0.02,0.41 -0.36,0.75 -0.77,0.75 l -0.14,-0.03 c -0.19,0 -0.38,-0.07 -0.53,-0.21 l -0.14,-0.15 0.17,0.12 -0.24,-0.14 -0.17,-0.12 -0.15,-0.15 0.08,0.08 -0.15,-0.12 c -0.17,-0.15 -0.29,-0.36 -0.29,-0.58 l 0,-0.12 0.12,0.36 -0.09,-0.14 -0.1,-0.36 0,-0.15 0,0 0,-0.14 0,0 0,-0.12 0,0 0,-0.15 0,0 0,-0.09 0,0 0,-0.15 c 0,-0.36 0.24,-0.64 0.58,-0.72 l 0.12,-0.02 c 0.02,0 0.07,0 0.09,0 l 0.12,0.02 c 0.34,0.08 0.58,0.36 0.58,0.72 l 0,0.15 0,0 0,0.09 0,0 0,0.15 0,0 0,0.12 0,0 0,0.14 0,0 0,0.15 -0.12,-0.41 0.1,0.14 c 0.07,0.12 0.09,0.27 0.09,0.41 l 0,0.12 -0.26,-0.6 0.14,0.12 0.05,0.05 0.14,0.14 -0.16,-0.12 0.26,0.15 0.17,0.12 0.12,0.14 -0.53,-0.22 0.14,-0.02 c 0.41,0 0.75,0.31 0.77,0.72 l 0,0.14 -0.74,-0.72 0.12,0 -0.03,0 0.15,0 0,0 0.14,0 0,0 0.12,0 0,0 0.15,0 0,0 0.12,0 0,0 0.14,0 -0.05,0 0.12,0 0.03,0 0.14,0 0,0 0.14,0 0,0 0.12,0 0.03,0 0.14,0 -0.02,0 0.12,0 0,0 0.12,0 0,0 0.14,0 0.24,0.03 0.36,0.12 0.31,0.19 0.15,0.14 -0.55,-0.24 0.14,0 -0.02,0 0.14,0 0.26,0.05 0.36,0.1 -0.21,-0.03 0.12,0 0,0 0.12,0 0,0 0.17,0 0,0 0.12,0 0.02,0 0.12,0 -0.02,0 0.14,0 0,0 0.14,0 0,0 0.1,0 -0.02,0 0.14,0 0,0 0.14,0 0.03,0 0.12,0 0.26,0.05 0.39,0.15 0,0 0.4,0.14 -0.26,-0.05 0.12,0 0,0 0.14,0 0.27,0.05 0.38,0.12 -0.24,-0.02 0.12,0 -0.02,0 0.14,0 0.03,0 0.12,0 -0.05,0 0.14,0 -0.02,0 0.14,0 0.03,0 0.14,0 0.26,0.04 0.39,0.12 -0.24,-0.02 0.12,0 0,0 0.36,0 0,0 0.14,0 0,0 0.39,0 0.21,0.02 0.41,0.12 -0.22,-0.02 0.39,0 0,0 0.41,0 0.26,0.02 0.38,0.15 -0.26,-0.05 0.38,0 0,0 0.39,0 0,0 0.41,0 0,0 0.38,0 0,0 0.41,0 0,0 0.38,0 0,0 0.41,0 0.22,0.02 0.38,0.12 0.07,0.03 0.36,0.14 -0.26,-0.05 0.38,0 0.27,0.05 0.4,0.15 -0.02,-0.03 0.36,0.12 -0.24,-0.02 0.41,0 0.24,0.02 0.43,0.17 -0.24,-0.05 0.38,0 0.29,0.05 0.36,0.14 -0.26,-0.04 0.38,0 0.22,0.02 0.38,0.12 -0.24,-0.05 0.41,0 0.02,0 0.12,0 0.27,0.05 0.38,0.12 -0.26,-0.02 0.41,0 0.26,0.02 0.38,0.14 0.03,0.03 0.38,0.14 -0.24,-0.05 0.12,0 -0.02,0 0.38,0 0,0 0.41,0 0,0 0.38,0 0,0 0.12,0 0,0 0.41,0 -0.02,0 0.41,0 0,0 0.38,-0.02 0.02,0 0.39,0 -0.03,0 0.12,0 0.03,0 0.43,0 0,0 0.38,0 0,0 0.39,0 0,0 0.09,0 0,0 0.44,0 0,0 0.12,0 0,0 0.38,0 -0.02,0 0.12,0 0,0 0.14,0 0.02,0 0.39,0 -0.29,0.05 0.38,-0.15 0.29,-0.04 0.17,0 -0.29,0.04 0.36,-0.14 0.29,-0.05 0.14,0 0,0 0.12,0 -0.02,0 0.41,0 -0.27,0.05 0.41,-0.14 0.05,-0.03 0.38,-0.09 0.22,-0.05 0.14,0 -0.26,0.05 0.41,-0.15 0,0 0.38,-0.14 0.27,-0.05 0.09,0 -0.21,0.05 0.43,-0.12 0.21,-0.03 0.1,0 -0.26,0.05 0.4,-0.14 0,0 0.41,-0.15 0.05,-0.02 0.41,-0.1 -0.41,0.27 0.12,-0.15 c 0.1,-0.14 0.24,-0.21 0.41,-0.26 l 0.41,-0.1 -0.36,0.2 0.14,-0.12 0.19,-0.17 0.29,-0.12 0.34,-0.1 0.12,0 -0.29,0.05 0.38,-0.12 -0.26,0.14 0.14,-0.14 0.34,-0.17 0.41,-0.12 -0.15,0.05 0.27,-0.12 -0.2,0.12 0.12,-0.1 0.2,-0.14 0.28,-0.14 -0.07,0.02 0.24,-0.12 -0.12,0.1 0.15,-0.15 0.14,-0.12 0.26,-0.14 0.36,-0.1 0.15,0 -0.31,0.07 0.26,-0.12 -0.24,0.17 0.12,-0.12 0,0 0.14,-0.14 0.17,-0.15 0.27,-0.12 -0.17,0.12 0.14,-0.14 0.24,-0.14 0.24,-0.12 -0.21,0.14 0.14,-0.12 0,0 0.12,-0.12 0.05,-0.05 0.17,-0.14 c 0.12,-0.1 0.28,-0.15 0.45,-0.15 l 0.07,0 -0.48,0.2 0.15,-0.15 -0.03,0.03 0.15,-0.15 0,0 0.12,-0.12 0,0 0.14,-0.14 c 0.15,-0.15 0.34,-0.22 0.53,-0.19 l 0.14,0 -0.52,0.19 0.12,-0.12 -0.22,0.53 0,-0.15 c 0,-0.19 0.07,-0.38 0.22,-0.53 l 0.14,-0.12 c 0.12,-0.14 0.31,-0.21 0.48,-0.21 l 0.12,0 c 0.38,0 0.72,0.33 0.72,0.72 0,0.38 -0.34,0.69 -0.72,0.69 -0.38,0 -0.7,-0.31 -0.7,-0.69 l 0,-0.12 c 0,-0.19 0.08,-0.36 0.2,-0.51 0.14,-0.12 0.31,-0.19 0.5,-0.19 l 0.17,0 -0.55,0.27 0.12,-0.15 -0.15,0.43 0,-0.14 0,-0.02 0,-0.1 0,0.02 0,-0.14 0,0 0,-0.14 0,-0.03 0,-0.14 0,0.02 0,-0.12 0,0 0,-0.14 0,0 0,-0.1 0,0 0,-0.14 0,0 0,-0.15 0,0 0,-0.14 0,0 0,-0.12 0,0 0,-0.14 0,0 0,-0.12 0,0 0,-0.12 0,0 0,-0.15 0,0 0,-0.14 0,0 0,-0.12 0,0 0,-0.15 0,0 0,-0.12 0,0 0,-0.16 0,0 0,-0.12 0,0 0,-0.12 0,0 0,-0.39 0,0 0,-0.43 0.03,0.22 -0.12,-0.36 -0.03,-0.22 0,-0.53 0,0 0,-0.41 0.07,0.29 -0.16,-0.41 -0.08,-0.26 0,-0.55 0,0 0,-0.53 0,0 0,-0.41 0.03,0.15 -0.12,-0.53 -0.03,-0.15 0,-0.4 0,0 0,-0.51 0.03,0.17 -0.15,-0.53 -0.02,-0.17 0,-0.4 0,0 0,-0.53 0,0 0,-0.53 0.05,0.19 -0.12,-0.38 -0.03,-0.19 0,-0.41 0.03,0.24 -0.15,-0.43 -0.02,-0.24 0,-0.36 0,0 0,-0.39 0,0.03 0,-0.44 0,0 0,-0.43 0,0 0,-0.36 0,0 0,-0.53 0,-0.02 0,-0.38 0,0 0,-0.39 0,0 0,-0.41 0,0 0,-0.55 0,0 0,-0.38 0,0 0,-0.15 0,0 0,-0.36 0,0 0,-0.43 0,0 0,-0.36 0,0 0,-0.43 0,0 0,-0.36 0,0 0,-0.43 0,0 0,-0.36 0,-0.03 0,-0.14 0,0.02 0,-0.4 0,0 0,-0.39 0,0 0,-0.41 0,0 0,-0.55 0.05,0.24 -0.15,-0.38 -0.04,-0.24 0,-0.39 0,0 0,-0.52 0.02,0.14 -0.12,-0.53 0.02,0.03 -0.14,-0.53 0,0 -0.14,-0.55 0,-0.03 -0.1,-0.38 0.02,0.12 -0.16,-0.41 -0.03,-0.07 -0.12,-0.41 0.03,0.05 -0.15,-0.39 -0.02,-0.04 -0.1,-0.41 0,0.05 -0.14,-0.41 0.17,0.26 -0.15,-0.14 -0.17,-0.29 -0.12,-0.41 0.24,0.36 -0.14,-0.12 -0.05,-0.05 -0.14,-0.14 0,0 -0.12,-0.12 -0.05,-0.05 -0.12,-0.12 0.05,0.05 -0.15,-0.14 0,0 -0.14,-0.15 0,0 -0.12,-0.12 0,0 -0.26,-0.29 0,0.03 -0.15,-0.15 -0.07,-0.09 -0.1,-0.12 0.12,0.12 -0.16,-0.12 -0.05,-0.05 -0.12,-0.12 -0.05,-0.05 -0.12,-0.14 0.55,0.26 -0.17,0 0,0 -0.09,0 -0.36,-0.09 -0.24,-0.15 0.02,0.03 -0.29,-0.15 0.34,0.07 -0.07,0 -0.03,0 -0.16,0 c -0.17,0.03 -0.36,-0.04 -0.48,-0.16 l -0.12,-0.12 0.24,0.14 -0.41,-0.14 -0.19,-0.1 -0.15,-0.12 0.43,0.17 -0.09,0 0,0 -0.15,0 0,0 -0.14,0 0,0 -0.12,0 -0.24,-0.05 -0.41,-0.14 0.27,0.04 -0.12,0 0,0 -0.15,0 0,0 -0.14,0 0,0 -0.41,0 0,0 -0.1,0 0,0 -0.43,0 0,0 -0.09,0 0,0 -0.12,0 0,0 -0.44,0 0,0 -0.12,0 -0.24,-0.04 -0.4,-0.15 0.24,0.05 -0.12,0 0,0 -0.39,0 0,0 -0.14,0 0,0 -0.1,0 0,0 -0.41,0 0,0 -0.14,0 -0.24,-0.05 -0.38,-0.14 0.28,0.05 -0.16,0 -0.24,-0.03 -0.36,-0.12 0.19,0.03 -0.12,0 0,0 -0.12,0 -0.24,-0.05 -0.41,-0.12 0.05,0 -0.39,-0.1 -0.07,-0.02 -0.38,-0.15 0.24,0.05 -0.15,0 -0.24,-0.05 -0.4,-0.14 0.26,0.05 -0.38,0 0,0 -0.39,0 0,0 -0.14,0 -0.24,-0.05 -0.41,-0.14 0.24,0.04 -0.36,0 0,0 -0.14,0 0,0 -0.39,0 0,0 -0.41,0 0,0 -0.4,0 0,0 -0.36,0 0,0 -0.39,0 0,0 -0.41,0 0,0 -0.4,0 0.02,0 -0.41,0 0,0 -0.38,0 0,0 -0.39,0 0,0 -0.43,0 0,0 -0.36,0 0,0 -0.38,0 -0.03,0 -0.52,0 0,0 -0.39,0 0.03,0 -0.56,0 0,0 -0.38,0 0,0 -0.38,0 0,0 -0.39,0 0,0 -0.41,0 0,0 -0.38,0 0,0 -0.41,0 0,0 -0.38,0 -0.03,0 -0.38,0 0,0 -0.38,0 0,0 -0.36,0 0,0 -0.41,0 0,0 -0.41,0 0,0 -0.12,0 0,0 -0.14,0 0,0 -0.24,0 0,0 -0.29,0 0,0 -0.24,0 0,0 -0.27,0 0,0 -0.28,0 0,0 -0.12,0 0,0 -0.24,0 0,0 -0.29,0 0,0 -0.24,0 0,0 -0.24,0 0,0 -0.17,0 0,0 -0.24,0 0,0 -0.14,0 0,0 -0.15,0 0.53,-0.21 -0.14,0.12 c -0.15,0.14 -0.34,0.21 -0.53,0.21 l -0.1,0 0,0 -0.14,0 0,0 -0.12,0 -0.03,0 -0.12,0 0.03,0 -0.12,0 0.48,-0.21 -0.12,0.14 c -0.15,0.15 -0.34,0.22 -0.51,0.22 l -0.14,0 0,0 -0.12,0 0,0 -0.14,0 -0.03,0 -0.14,0 0.02,0 -0.12,0 0,0 -0.14,0 0,0 -0.12,0 0,0 -0.12,0 0,0 -0.12,0 0,0 -0.15,0 0,0 -0.14,0 0,0 -0.1,0 -0.02,0 -0.14,0 0,0 -0.15,0 0.03,0 -0.12,0 0,0 -0.12,0 0,0 -0.17,0 -0.03,0 -0.09,-0.03 0,0.03 -0.12,0 0,0 -0.15,0 0,0 -0.12,0 0,0 -0.12,0 0,0 -0.14,0 0,0 -0.14,0 0,0 -0.12,0 0,0 -0.1,0 0,0 -0.17,0 0.03,-0.03 -0.12,0.03 -0.03,0 -0.14,0 0,0 -0.12,0 0,0 -0.12,0 0,0 -0.12,0 -0.03,0 -0.12,0 0,0 -0.14,0 0.02,0 -0.14,0 0,0 -0.1,0 -0.02,0 -0.14,0 0,0 -0.12,0 0,0 -0.15,0 0.03,0 -0.12,0 0,0 -0.15,0 -0.02,0 -0.12,0 0,0 -0.12,0 0,0 -0.15,0 0.03,0 -0.15,0 -0.02,0 -0.12,0 0.02,0 -0.14,0.02 -0.02,0 -0.15,0 0,0 -0.14,0 0.05,0 -0.08,0 -0.02,0 -0.14,0 0,0 -0.15,0 -0.02,0 -0.12,0 0.02,0 -0.17,0 -0.02,0 -0.1,0 0,0 -0.12,0 0.75,-0.67 -0.03,0.14 0,-0.07 0,0.12 0,0 0,0.24 0,0.03 0,0.28 0,0 0,0.15 c 0,0.24 -0.12,0.48 -0.33,0.6 l -0.05,0.02 0.29,-0.5 0,0.14 0,-0.02 0,0.12 0,0 -0.03,0.14 0,0 0,0.15 0,-0.03 0,0.15 0,0.02 0,0.12 0,0 0,0.14 0,0 0,0.12 0,0 0,0.12 0,0.03 -0.02,0.14 0.02,-0.02 -0.02,0.14 0,0 0,0.12 0,0.03 0,0.12 0,-0.03 0,0.41 0,0 0,0.38 0,0 0,0.41 -0.02,-0.17 0.09,0.41 0.03,0.15 0,0.4 0,0.03 0,0.12 0,0 0,0.43 0,0.02 -0.03,0.12 0,-0.04 0,0.4 -0.02,-0.14 0.12,0.38 0.02,0.2 -0.02,0.09 0,-0.02 0,0.41 0,0 0,0.14 0,-0.02 0,0.4 0,0 0,0.39 0,0 0,0.41 0,0 0,0.4 0,0 0,0.39 0,0 0,0.41 0,-0.03 0,0.41 0,0 -0.03,0.41 0,0 0,0.53 0,0 0,0.55 0,0 0,0.5 0,0 0,0.53 0,0 0,0.55 0,0 0,0.36 0,0 0,0.53 0,0 0,0.41 0,0 0,0.38 0,0 0,0.41 0,0 0,0.55 0,0 0,0.53 0,0 0,0.5 0,0 0,0.53 0,0.03 0,0.64 0,0 0,0.68 0,0 0.03,0.64 0,0 0,0.65 0,0 0,0.7 0,0 0,0.65 0,0 0,0.67 0,0 0,0.65 0,0.09 -0.12,0.65 0,0 -0.12,0.79 0.02,-0.07 -0.02,0.67 0,0 0,0.65 0,0 0,0.55 -0.03,0.15 -0.12,0.52 0,-0.12 0,0.51 0,-0.03 0,0.68 0,0 0,0.67 0,0 0,0.65 0,0 0,0.69 0,0 -0.02,0.51 -0.02,0.16 -0.15,0.39 0.03,-0.12 0,0.14 0,0 -0.03,0.15 -0.05,0.16 -0.04,0.1 0.02,-0.07 -0.05,0.14 0.03,-0.09 0,0.14 -0.03,0.05 -0.02,0.09 -0.07,0.17 -0.08,0.07 c -0.04,0.05 -0.12,0.08 -0.16,0.08 -0.08,0 -0.12,-0.03 -0.17,-0.08 z" /><g
       id="g3553"
       transform="translate(-0.22334746,1.3400848)"><path
         d="m 125.81,597.31 0.02,0.12 0,0 0.03,0.12 -0.08,-0.12 0.17,0.24 0.05,0.17 0.02,0.26 0,0.03 0.03,0.29 0,-0.03 0.02,0.27 0,-0.03 0,0.12 0,0.05 0.03,0.12 0,0 0,0.55 0,0 0,0.53 0,0.02 0.02,0.65 0,0 0,0.79 -0.02,0 0.02,0.65 0,0 0,0.79 0,0 0.02,0.82 0,0 0,0.79 0,0 0,0.82 0,0 0,0.77 0,0 0,0.81 0,0 0,0.77 0,0 0,0.96 0,0 0,0.79 0,0 0,0.79 0,0 0,0.8 0,0 0,0.79 0,0 0,0.79 0,0.12 -0.16,0.65 0,0.05 -0.15,0.5 0.03,-0.14 0,0.55 0,0 0,0.53 0,0 0,0.64 0,0 0,0.68 0,0 0,0.64 0,0 0,0.7 0,0 0,0.65 0,0 0,0.65 0,0 0,0.64 0,0 0,0.44 0,0 0,0.5 0,0 0.02,0.53 0,0 0,0.41 0,0 0,0.38 0,0 0,0.41 0,0 0,0.41 0,0 0,0.38 0,0 0.02,0.41 0,0 0,0.5 0,0 0,0.53 0,0 0,0.55 0,0 0,0.67 0,-0.02 0,0.7 0,0 0,0.64 0,0 0,0.68 0,0 0,0.36 0,0 0,0.4 0,0 0,0.12 0,0 0.03,0.15 -0.03,-0.15 0.03,0.12 0.02,0.2 0,0.14 0,-0.02 0,0.12 0,0 0,0.16 0,0 -0.02,0.15 0,-0.03 0.02,0.1 0,0.02 0,0.15 -0.02,-0.05 0.02,0.12 0,0.02 0,0.15 0,-0.03 0,0.1 0,0.05 0,0.17 0,-0.12 0.03,0.12 0,0.14 0,0.26 0,0 0,0.12 -0.03,0.03 0,0.19 -0.05,0.14 -0.04,0.12 0.02,-0.09 -0.02,0.09 0.02,-0.04 -0.02,0.14 c 0,0.17 -0.12,0.34 -0.24,0.41 l -0.08,0.05 0.17,-0.63 0.31,0.55 c 0.05,0.08 0.05,0.17 0,0.24 -0.07,0.08 -0.16,0.1 -0.24,0.08 l -0.6,-0.2 -0.12,-0.04 -0.04,-0.05 c -0.15,-0.07 -0.24,-0.24 -0.27,-0.41 l 0,-0.14 0,0.04 0,-0.09 0,0.09 -0.05,-0.12 -0.02,-0.14 -0.02,-0.19 0,-0.03 0,-0.12 0,0 -0.03,-0.26 0.03,-0.14 0.02,-0.12 -0.02,0.12 0,-0.17 0,-0.05 0.02,-0.1 0,0.03 0,-0.15 0,-0.02 0.02,-0.12 -0.02,0.05 0,-0.15 0,-0.02 0.02,-0.1 0,0.03 -0.02,-0.15 0,0 0,-0.16 0,0 0,-0.12 0,0.02 -0.02,-0.14 0.04,-0.2 0.03,-0.12 -0.03,0.15 0,-0.15 0,0 0,-0.12 0,0 0,-0.4 0,0 0,-0.36 0,0 0.03,-0.68 0,0 0,-0.64 0,0 0,-0.7 0,0.02 0,-0.67 0,0 0,-0.55 0,0 0,-0.53 0,0 0,-0.5 0,0 0.02,-0.41 0,0 0,-0.38 0,0 0,-0.41 0,0 0,-0.41 0,0 0,-0.38 0,0 0,-0.41 0,0 0,-0.53 0,0 0,-0.5 0,0 0,-0.44 0,0 0,-0.64 0,0 0,-0.65 0,0 0,-0.65 0,0 0,-0.7 0,0 0,-0.64 0,0 0,-0.68 0,0 0,-0.64 0,0 0,-0.53 0,0 0,-0.55 0.03,-0.15 0.14,-0.5 0,0.02 0.14,-0.67 -0.02,0.12 0,-0.79 0,0 0.02,-0.79 0,0 0,-0.8 0,0 0,-0.79 0,0 0,-0.79 0,0 0,-0.96 0,0 0,-0.77 0,0 0,-0.81 0,0 0,-0.77 0,0 0,-0.82 0,0 0,-0.79 0,0 0,-0.82 0,0 0,-0.79 0,0 0,-0.65 0,0 0,-0.79 0,0 0.03,-0.65 0,-0.02 0,-0.53 0,0 0.02,-0.55 0,0 0,-0.12 0,-0.05 0.03,-0.12 -0.03,0.03 0.03,-0.27 0,0.03 0.02,-0.29 0,-0.03 0.02,-0.26 0.05,0.24 -0.14,-0.26 -0.03,-0.27 0.03,-0.12 0,0 0.02,-0.12 c 0.03,-0.19 0.17,-0.31 0.34,-0.31 0.17,0 0.33,0.12 0.36,0.31 z"
         style="fill:#ffffff;fill-opacity:1;fill-rule:nonzero;stroke:none"
         id="path22"
         inkscape:connector-curvature="0" /><path
         d="m 119.66,625.46 0.12,0.12 0.2,0.32 0,0.07 -0.12,-0.27 0.14,0.17 0.05,0.07 0.31,0.51 0.02,0.05 0.24,0.52 0,0 0.27,0.53 -0.07,-0.09 0.4,0.5 -0.07,-0.07 0.43,0.38 0.05,0.05 0.39,0.43 0.04,0.07 0.27,0.39 -0.12,-0.12 0.41,0.36 0.02,0.05 0.26,0.26 0,0 0.24,0.24 -0.04,-0.05 0.14,0.12 0.1,0.1 0.14,0.17 -0.14,-0.15 0.38,0.27 0.17,0.14 0.12,0.14 -0.05,-0.04 0.1,0.09 0,0 0.28,0.29 0.05,0.05 0.12,0.14 -0.53,-0.24 0.15,0 0,0 0.14,0 -0.05,0 0.12,-0.02 0.03,0 0.14,0 -0.02,0 0.09,0 0.05,0 0.17,0 -0.02,0 0.09,-0.03 0,0 0.41,0 0,0 0.43,0 0,0 0.39,-0.02 0,0.02 0.09,-0.02 -0.21,0.05 0.4,-0.15 0.24,-0.04 0.12,0 -0.26,0.04 0.41,-0.14 -0.34,0.24 0.12,-0.14 c 0.1,-0.12 0.24,-0.22 0.39,-0.27 l 0.43,-0.12 -0.17,0.07 0.26,-0.14 -0.04,0.02 0.38,-0.24 -0.05,0.03 0.36,-0.29 0.05,-0.02 0.41,-0.27 -0.05,0.03 0.55,-0.41 -0.07,0.07 0.55,-0.5 -0.07,0.04 0.38,-0.43 -0.07,0.1 0.27,-0.41 0.09,-0.12 0.15,-0.14 -0.1,0.12 0.24,-0.39 0.1,-0.12 0.28,-0.29 0.1,-0.07 0.1,-0.07 -0.08,0.05 0.15,-0.15 -0.05,0.08 0.1,-0.15 0.07,-0.05 0.14,-0.14 -0.07,0.05 0.12,-0.15 -0.17,0.48 0,-0.12 0,0 0,-0.14 0.1,-0.36 0.14,-0.26 0.15,-0.2 0.16,-0.12 c 0.29,-0.26 0.72,-0.24 1.01,0.03 0.27,0.26 0.27,0.69 0.03,1.01 l -0.15,0.14 0.1,-0.14 -0.15,0.26 0.1,-0.36 0,0.14 0,0 0,0.12 c 0,0.17 -0.05,0.34 -0.17,0.46 l -0.09,0.14 -0.08,0.05 -0.14,0.15 0.07,-0.05 -0.12,0.14 -0.05,0.05 -0.14,0.14 -0.07,0.08 -0.12,0.09 0.07,-0.07 -0.29,0.26 0.12,-0.12 -0.26,0.41 -0.1,0.12 -0.14,0.15 0.09,-0.12 -0.26,0.38 -0.05,0.1 -0.36,0.4 -0.07,0.08 -0.53,0.5 -0.07,0.07 -0.53,0.39 -0.05,0.04 -0.4,0.24 0.04,-0.02 -0.36,0.26 -0.04,0.03 -0.41,0.26 -0.03,0.03 -0.26,0.14 -0.17,0.07 -0.43,0.1 0.38,-0.24 -0.12,0.14 -0.31,0.24 -0.41,0.12 -0.24,0.05 -0.12,0 0.24,-0.05 -0.38,0.15 -0.29,0.04 -0.09,0 0,0 -0.39,-0.02 0,0 -0.43,0 0,0 -0.41,-0.02 0,0 -0.09,0 0.02,0 -0.17,0 -0.05,0 -0.09,0 0.02,0 -0.14,0 -0.03,-0.03 -0.12,0 0.05,0 -0.14,0 0,0 -0.15,0 c -0.19,0 -0.38,-0.09 -0.5,-0.24 l -0.12,-0.14 0.05,0.05 -0.29,-0.29 0,0 -0.1,-0.12 -0.07,-0.05 -0.09,-0.14 0.14,0.14 -0.38,-0.24 -0.15,-0.14 -0.14,-0.17 0.09,0.09 -0.14,-0.12 -0.07,-0.04 -0.24,-0.27 -0.03,-0.02 -0.26,-0.29 0.05,0.05 -0.39,-0.39 -0.09,-0.12 -0.27,-0.38 0.05,0.07 -0.36,-0.43 0.05,0.05 -0.43,-0.41 -0.05,-0.07 -0.41,-0.51 -0.07,-0.12 -0.24,-0.55 0,0 -0.24,-0.53 0,0.03 -0.26,-0.53 0,0 -0.1,-0.19 -0.05,-0.36 0.03,-0.07 0.04,0.36 -0.09,-0.17 c -0.12,-0.22 -0.05,-0.48 0.14,-0.65 0.19,-0.14 0.48,-0.14 0.67,0.02 z"
         style="fill:#ffffff;fill-opacity:1;fill-rule:nonzero;stroke:none"
         id="path96"
         inkscape:connector-curvature="0" /></g><path
       inkscape:connector-curvature="0"
       id="path98"
       style="fill:#ffffff;fill-opacity:1;fill-rule:nonzero;stroke:none"
       d="m 156.05,696.41 0.09,-0.05 0.34,0 0.31,0.14 -0.31,-0.04 0.12,-0.03 0.22,0 0.38,0.1 0.02,0 0.53,0.12 0.05,0.02 0.79,0.24 0.03,0 0.79,0.29 -0.12,-0.02 0.67,0.09 0.02,0 0.65,0.15 -0.02,0 0.65,0.09 0.04,0.03 0.68,0.16 -0.03,0 0.51,0.1 0.02,0.02 0.53,0.12 0.02,0.03 0.39,0.09 -0.2,-0.02 0.41,0 0,0 0.39,0 0,0 0.12,0 0,0 0.14,0 0.02,0 0.12,0 -0.02,0 0.14,0 0,0 0.15,0 -0.05,0 0.1,-0.02 -0.08,0.02 0.1,-0.02 0.02,-0.03 0.17,-0.02 0.07,0 0.12,-0.03 0,0 0.15,0 0.05,-0.02 0.09,0 -0.43,0.17 0.14,-0.1 -0.12,0.12 0.1,-0.14 0,0 0.26,-0.39 0.03,-0.02 0.09,-0.14 0.08,-0.08 0.09,-0.12 -0.05,0.1 0.27,-0.41 -0.05,0.12 0.12,-0.29 -0.07,0.34 0,-0.12 0.02,-0.22 0.12,-0.4 -0.02,0.19 0,-0.12 c 0,-0.22 0.09,-0.41 0.24,-0.55 l 0.14,-0.15 -0.02,0.03 0.12,-0.12 0.02,-0.03 0.15,-0.12 -0.24,0.53 0,-0.14 c 0.02,-0.24 0.14,-0.46 0.33,-0.6 l 0.15,-0.1 -0.32,0.58 0,-0.15 0,-0.12 0.05,-0.12 c 0.03,-0.19 0.12,-0.36 0.29,-0.45 l 0.14,-0.1 -0.26,0.34 0.05,-0.15 c 0.09,-0.29 0.41,-0.48 0.72,-0.41 l 0.09,0 0.12,0.05 0.08,0.03 -0.41,0.09 0.74,-0.86 c 0.07,-0.07 0.19,-0.1 0.29,-0.03 0.1,0.05 0.12,0.17 0.07,0.27 l -0.55,1.01 0.05,-0.24 0,0.09 0,0 0.02,0.07 -0.02,-0.07 0.05,0.15 c 0.09,0.26 0.02,0.55 -0.17,0.74 l -0.15,0.12 0.22,-0.65 0.02,0.12 0.03,0.12 0,0.15 c 0,0.21 -0.07,0.43 -0.24,0.57 l -0.15,0.12 0.24,-0.57 0.03,0.14 c 0,0.19 -0.07,0.38 -0.22,0.53 l -0.12,0.14 -0.02,0.03 -0.12,0.12 0.02,-0.03 -0.14,0.15 0.21,-0.53 0,0.12 -0.02,0.24 -0.12,0.41 0.02,-0.22 0,0.12 -0.07,0.34 -0.17,0.28 -0.04,0.1 -0.29,0.41 -0.1,0.09 -0.12,0.1 0.05,-0.05 -0.12,0.15 0.05,-0.05 -0.29,0.38 -0.05,0.07 -0.12,0.12 -0.09,0.1 -0.15,0.12 c -0.14,0.1 -0.29,0.14 -0.48,0.14 l -0.09,0 -0.05,0 -0.15,-0.02 0,0 -0.12,0 -0.07,-0.02 -0.17,-0.03 -0.02,0 -0.1,-0.02 0.08,0 -0.1,0 0.05,0 -0.15,0 0,0 -0.14,0 0.02,0 -0.12,0 -0.02,0 -0.14,-0.03 0,0 -0.12,0 0,0 -0.39,0 0,0 -0.41,0 -0.16,-0.02 -0.39,-0.12 0.03,0.02 -0.53,-0.16 0.02,0.02 -0.5,-0.12 -0.03,0 -0.64,-0.17 0.04,0 -0.67,-0.12 -0.02,0 -0.65,-0.14 0.02,0 -0.64,-0.12 -0.1,-0.03 -0.79,-0.28 0.02,0 -0.79,-0.27 0,0 -0.5,-0.14 -0.03,-0.03 -0.38,-0.14 0.07,0.02 -0.12,-0.02 -0.19,-0.1 -0.27,-0.19 0.12,0.05 -0.09,-0.02 c -0.17,-0.08 -0.27,-0.22 -0.27,-0.39 0,-0.17 0.1,-0.33 0.27,-0.38 z" /><g
       id="g3815"><g
         id="g3879"
         style="fill:#ff99ff"><path
           inkscape:connector-curvature="0"
           id="path14"
           style="fill:#ff99ff;fill-opacity:1;fill-rule:nonzero;stroke:none"
           d="m 143.95,698.76 0.12,0 0.03,0 0.12,-0.02 -0.1,0.02 0.14,-0.05 0.08,0 0.12,-0.02 0.07,0 0.26,0 0,0 0.24,0 -0.05,0 0.27,-0.05 0.02,0 0.19,0 0,0 0.39,0 0,0 0.41,0 0.16,0 0.56,0.12 0,0 0.5,0.12 0.02,0 0.65,0.17 -0.07,-0.03 0.67,0.1 0.1,0.05 0.5,0.12 -0.05,0 0.65,0.14 -0.05,-0.02 0.8,0.12 -0.12,0 0.79,0 0.19,0.02 0.62,0.12 0,0 0.77,0.15 -0.02,0 0.79,0.14 -0.14,0 0.79,0 0,0 0.77,0 0,0 0.64,0 0,0 0.53,0 0,0 0.55,0 0,0 0.53,0 -0.02,0 0.38,0 0,0 0.55,0 -0.02,0 0.55,0.02 -0.21,0.03 0.52,-0.15 0.22,-0.02 0.5,0 0.03,0 0.38,0 0,0 0.41,0.02 0,0 0.36,0 0,0 0.14,0 -0.28,0.05 0.4,-0.14 0.29,-0.05 0.12,0 -0.02,0 0.14,0 -0.26,0.05 0.38,-0.15 0.27,-0.04 0.12,0 0.02,0 0.17,0.02 -0.03,0 0.1,0 -0.05,0 0.17,-0.02 0,0 0.14,0 0,0 0.12,0 -0.5,0.19 0.14,-0.12 c 0.12,-0.12 0.29,-0.17 0.48,-0.17 l 0.12,-0.02 0.03,0 0.17,0 -0.63,0.31 0.1,-0.15 c 0.09,-0.09 0.21,-0.19 0.33,-0.26 l 0.39,-0.12 0.29,-0.07 0.14,0 -0.05,0.02 0.15,-0.02 -0.2,0.02 0.41,-0.12 -0.17,0.07 0.36,-0.19 0.36,-0.07 0.17,-0.02 -0.21,0.04 0.38,-0.12 0.24,-0.04 0.38,0 0,0 0.36,-0.03 0,0 0.46,0 -0.26,0.05 0.38,-0.12 0.24,-0.02 0.43,0 0,0 0.36,0 0,0 0.41,0 0,0 0.53,0 0,0 0.5,0 0,0 0.53,0 0,0 0.53,0 0,0 0.65,0 0.14,0 0.67,0.12 -0.17,-0.03 0.7,0 0.14,0.03 0.63,0.09 -0.17,0 0.67,0 0,0 0.65,0 0.24,0.03 0.65,0.16 -0.1,-0.02 0.67,0.12 -0.14,0 0.65,0 0.17,0 0.67,0.14 -0.17,-0.02 0.5,0 0,0 0.65,0 0,0 0.65,0 0,0 0.67,0 0,0 0.53,0 0,0 0.65,0 0.19,0.05 0.65,0.12 -0.17,0 0.53,0 0,0 0.5,0 0,0 0.53,0 0,0 0.65,0 0,0 0.38,0 0,0 0.53,0 0,0 0.38,0 0,0 0.41,0 0,0 0.51,0 0,0 0.43,0 0,0 0.5,0 0,0 0.36,0 0,0 0.53,0 0,0 0.41,0 0,0 0.38,0 0,0 0.41,0 0,0 0.41,0 0,0 0.38,0 0,0 0.41,0 0,0 0.5,0 0,0 0.41,0 0,0 0.39,0 0.02,0 0.36,0 0,0 0.38,0 0,0 0.41,0 0,0 0.39,0 0,0 0.5,0 0,0 0.41,0 0,0 0.38,0 0,0 0.41,0 -0.29,0.05 0.39,-0.15 0.31,-0.05 0.38,0 0,0 0.36,0 0,0 0.41,0 0,0 0.41,0 0,0 0.38,0 0,0 0.39,0 0.02,0 0.38,0 0,0 0.41,0 0,0 0.39,0 0,0 0.38,0 0,0 0.12,0 0,0 0.53,0 0,0 0.41,0 0,0 0.5,0 0,0 0.53,0 0,0 0.5,0 0,0 0.39,0 0.02,0 0.38,0 0.03,0 0.38,0 0,0 0.39,0 0,0 0.4,0 0,0 0.39,0 0,0 0.38,0 0,0 0.39,0 -0.29,0.05 0.41,-0.14 0.26,-0.05 0.38,0 -0.16,0.02 0.52,-0.12 -0.07,0.03 0.53,-0.17 0.26,-0.05 0.41,0 0,0 0.51,0 0,0 0.52,0 0,0 0.56,0 0,0 0.62,0 0,0 0.67,0 0,0 0.48,0 0,0 0.65,0 0,0 0.7,0 0,0 0.5,0 0,0 0.65,0 0,0 0.65,0 0,0 0.67,0 0,0 0.53,0 0,0 0.64,0 0,0 0.8,0 0,0 0.76,0 0,0 0.92,0 0,0 0.79,0 0,0 0.79,0 0.17,0 0.89,0.17 -0.15,0 0.79,0 0.1,0 1.06,0.12 0.04,0 0.89,0.14 0,0 0.91,0.15 -0.14,0 0.79,0 0.12,0 0.91,0.12 0,0 0.96,0.12 -0.14,0 0.79,0 0.15,0 0.91,0.14 -0.15,-0.02 0.77,0 0,0 0.79,0 0,0 0.8,0.02 0,0 0.64,0 0,0 0.56,0 0,0 0.48,0 0,0 0.52,0 0,0 0.65,0 0.22,0 0.55,0.17 -0.22,-0.05 0.6,0 0.03,0 0.53,0 0.19,0.03 0.53,0.09 0.07,0.03 0.38,0.12 -0.24,-0.03 0.51,0 0,0 0.4,0 0,0 0.51,0 0,0 0.41,0 -0.03,0 0.41,-0.02 0,0 0.38,0 0.32,0.05 0.4,0.14 -0.28,-0.05 0.36,0 0,0 0.4,0 0,0 0.39,0 0,0 0.38,0 0,0 0.41,0 0,0 0.36,0 0.31,0.05 0.39,0.17 -0.29,-0.07 0.41,0 0,0 0.52,0 0.24,0.02 0.51,0.17 -0.24,-0.05 0.41,0 0,0 0.38,0 0,0 0.5,0 0,0 0.39,0 0.02,0 0.53,0 0,0 0.5,0 0,0 0.56,0 0,0 0.64,0 0,0 0.65,0 0,0 0.67,0 0,0 0.51,0 0,0 0.65,0 0,0 0.64,0 0,0 0.65,0 0,0 0.67,0 0,0 0.65,0 0,0 0.79,0 0,0 0.68,0 0,0 0.76,0 0,0 0.65,0 0,0 0.79,-0.02 -0.24,0.04 0.51,-0.14 0.26,-0.05 0.53,0 0,0 0.65,0 -0.24,0.05 0.5,-0.14 0.07,-0.03 0.65,-0.12 0.19,-0.02 0.53,0 -0.21,0.02 0.52,-0.12 0.2,-0.02 0.4,0 0,0 0.51,0 -0.19,0.02 0.55,-0.12 0.17,0 0.4,0 -0.31,0.05 0.36,-0.14 0.31,-0.05 0.15,0 0,0 0.41,0 0,0 0.12,0 0,0 0.16,0 0,0 0.36,0 0,0 0.15,0 0,0 0.14,0 -0.05,0 0.12,0 0.05,0 0.12,0 0,0 0.12,0 0.03,0 0.14,0 -0.02,0 0.14,0 0.02,0 0.12,0 0,0 0.12,0 0,0 0.1,0 0,0 0.14,0 -0.04,0 0.14,0 0.02,0 0.15,0 -0.03,0 0.12,0 c 0.29,-0.03 0.58,0.12 0.77,0.33 l 0.1,0.15 -0.15,-0.15 0.15,0.1 0,0 0.14,0.12 0.22,0.24 0.26,0.43 -0.02,-0.02 0.26,0.41 0.03,0.04 0.12,0.27 -0.03,-0.07 0.27,0.4 0.09,0.17 0.15,0.41 0,0.05 0.12,0.36 -0.03,-0.03 0.15,0.44 0,0.02 0.12,0.41 0,0.02 0.16,0.53 -0.04,-0.07 0.16,0.41 0.05,0.28 0,0.51 0,0.02 0,0.53 0,0 0,0.53 0,0 0,0.41 0,0 0,0.5 0,0 0,0.55 0,0 0,0.53 0,0 0,0.53 0,0 0,0.53 0,0 0,0.55 0,0 0,0.65 0,0 0,0.5 0,0.02 0,0.65 -0.02,0.24 -0.15,0.53 0.05,-0.24 0,0.41 0,0 0,0.55 -0.05,0.24 -0.14,0.5 0.02,-0.24 0,0.56 0,0 0,0.5 -0.02,0.26 -0.12,0.41 0.05,-0.26 -0.03,0.55 0,0 0,0.5 0,0 0,0.39 0,0 0,0.53 0,0.21 -0.16,0.55 0.04,-0.21 0,0.53 0,0 0,0.4 0,0 0,0.39 0,0 0,0.55 0,0 -0.02,0.38 0,0 0,0.56 0,0 0,0.38 -0.05,0.24 -0.09,0.41 0.02,-0.27 0,0.39 -0.02,0.21 -0.15,0.56 0.03,-0.24 0,0.55 -0.03,0.21 -0.14,0.56 0.02,-0.24 0,0.36 0,0.19 -0.12,0.57 -0.05,0.12 -0.14,0.39 0.07,-0.34 0,0.43 0,0 0,0.51 0,0 0,0.41 0,0 0,0.52 -0.05,0.27 -0.12,0.36 0.05,-0.24 0,0.57 0,0 0,0.36 0,0 0,0.39 -0.05,0.29 -0.14,0.43 0.05,-0.27 0,0.39 0,-0.03 0,0.41 0,0 0,0.1 0,0 0,0.45 0,0 0,0.1 -0.07,0.29 -0.12,0.41 0.04,-0.32 0,0.12 0,0.03 0,0.41 0,-0.05 0,0.12 0,0.05 0,0.14 0,-0.05 0,0.12 0,0.03 0,0.16 0,-0.02 0.03,0.12 0,0.02 0,0.15 0,0 0,0.12 0,-0.03 0,0.15 0,0 0,0.12 0,0 0,0.17 0,-0.03 0.02,0.12 0,0 0,0.15 0,0 0,0.12 c 0,0.21 -0.07,0.43 -0.21,0.6 l -0.12,0.14 -0.05,0.07 -0.15,0.15 0,0 -0.14,0.14 0,0 -0.12,0.12 0.02,-0.05 -0.24,0.29 -0.07,0.07 -0.29,0.27 0.12,-0.12 -0.12,0.14 -0.07,0.07 -0.26,0.27 -0.07,0.07 -0.15,0.09 0.12,-0.09 -0.26,0.29 -0.03,0.02 -0.26,0.26 0,0 -0.26,0.27 -0.15,0.12 -0.36,0.26 -0.12,0.07 -0.29,0.15 0.08,-0.07 -0.39,0.26 -0.17,0.1 -0.36,0.14 0.15,-0.07 -0.43,0.24 -0.2,0.09 -0.38,0.12 0.05,0 -0.41,0.12 -0.07,0.03 -0.55,0.14 0.12,-0.02 -0.39,0.14 0.03,-0.02 -0.53,0.24 0.02,0 -0.67,0.29 -0.12,0.02 -0.5,0.14 -0.03,0 -0.53,0.15 -0.04,0 -0.65,0.14 -0.03,0 -0.67,0.12 0,0 -0.65,0.1 0.05,0 -0.65,0.14 -0.04,0.03 -0.8,0.12 -0.16,0.02 -0.63,0 0,0 -0.79,0 0,0 -0.77,0 0,0 -0.81,0 0.14,-0.02 -0.89,0.16 -0.17,0 -0.79,0 0.03,0 -0.8,0 0,0 -0.67,0 0,0 -0.65,0 0,0 -0.76,0 0,0 -0.8,0 0,0 -0.79,0 0,0 -0.77,0 0,0 -0.79,0 0,0 -0.93,0 0,0 -0.77,0 0,0 -0.79,0 0,0 -0.8,0 0,0 -0.76,0 0,0 -0.8,0 -0.14,0 -0.91,-0.14 0,0 -0.91,-0.14 0.14,0 -0.79,0 0,0 -0.79,0 -0.15,0 -0.89,-0.17 0.03,0 -0.91,-0.1 0.12,0 -0.8,0 0,0 -0.96,0 0.03,0 -0.77,0.03 -0.14,-0.03 -0.8,-0.12 0,0 -0.91,-0.14 -0.02,0 -0.79,-0.15 -0.05,0 -0.63,-0.14 0.22,0.02 -0.82,0 0,0 -0.76,0 0,0 -0.8,0 0,0 -0.76,0 0,0 -0.8,0 0,0 -0.81,0 -0.12,0 -0.89,-0.12 -0.05,0 -0.93,-0.16 0.07,0 -0.91,-0.1 -0.08,0 -0.79,-0.14 -0.02,0 -0.77,-0.17 0.17,0.02 -0.77,0 0,0 -0.79,0 -0.17,-0.02 -0.77,-0.15 0.03,0.03 -0.92,-0.15 0.03,0 -0.91,-0.12 -0.05,0 -0.91,-0.14 0.02,0.02 -0.91,-0.12 -0.05,-0.02 -0.91,-0.14 0.02,0 -1.03,-0.15 0.14,0 -1.08,0 -0.09,0 -0.91,-0.12 0.09,0.03 -1.03,0 0,0 -1.03,0 -0.12,-0.03 -1.08,-0.14 0,0 -1.01,-0.15 0.02,0.03 -1.05,-0.12 0.09,0 -1.08,0 0,0 -1,0 0,0 -1.06,0 0,0 -1.06,0 0,0 -1.17,0 0,0 -1.06,0 0,0 -1.03,0 0,0 -1.03,0 0,0 -0.94,0 0,0 -1.05,0 0,0 -1.18,0 0,0 -1.03,0 0,0 -1.06,0 0,0 -1.05,0 0,0 -0.89,0 0.02,0 -0.96,0 0,0 -0.89,0 0,0 -0.93,0 0.12,0 -0.96,0.09 0.02,0 -0.86,0.15 0,0 -0.94,0.14 -0.14,0.03 -0.91,-0.03 0.02,0 -0.77,0 0.1,0 -0.94,0.1 -0.12,0.02 -0.79,0 0.02,0 -0.79,0 0,0 -0.79,0 0.14,-0.02 -0.93,0.17 -0.12,0 -1.03,0 0,0 -0.8,0 0,0 -0.93,0 0,0 -0.91,0 0,0 -0.92,0 0,0 -0.91,0 0,0 -0.91,0 0,0 -0.91,0 0,0 -0.91,0 0,0 -0.94,0 0,0 -0.89,0 -0.02,0 -0.89,0 0,0 -0.94,0 0,0 -0.88,0 0,0 -0.92,0 0,0 -0.81,0 0,0 -0.79,0 0,0 -0.92,0 0,0 -0.76,0 0,0 -0.8,0 0,0 -0.91,0 -0.12,0 -0.91,-0.17 0.12,0.02 -0.82,0 0,0 -0.76,0 0.02,0 -0.82,0.03 0,0 -0.74,0 0,0 -0.55,0 0,0 -0.65,0 0,0 -0.53,0 0,0 -0.53,0 0,0 -0.5,0 0,0 -0.55,0 0,0 -0.51,0 0,0 -0.38,0 0,0 -0.41,0 -0.24,-0.05 -0.41,-0.1 0.27,0.03 -0.39,0 0,0 -0.38,0 0,0 -0.17,0 0,0 -0.17,0 0.05,0 -0.14,0 0,0 -0.39,0 0,0 -0.12,0 0,0 -0.16,0 0,0 -0.1,0 0,0 -0.14,0 0.07,0 -0.12,0 c -0.19,0.02 -0.39,-0.03 -0.55,-0.12 l -0.29,-0.2 -0.27,-0.28 -0.04,-0.12 0.16,0.19 -0.67,-0.46 c -0.09,-0.05 -0.12,-0.17 -0.09,-0.26 0.04,-0.12 0.16,-0.19 0.26,-0.17 l 0.79,0.1 -0.45,0.24 0.04,-0.1 0.27,-0.31 0.29,-0.17 c 0.16,-0.1 0.36,-0.14 0.55,-0.14 l 0.12,0 -0.07,0 0.14,0 0,0 0.1,0 0,0 0.16,0 0,0 0.12,0 0,0 0.39,0 0,0 0.14,0 -0.05,0 0.17,0 0,0 0.17,0 0,0 0.38,0 0,0 0.39,0 0.24,0.04 0.38,0.12 -0.24,-0.04 0.41,0 0,0 0.38,0 0,0 0.51,0 0,0 0.55,0 0,0 0.5,0 0,0 0.53,0 0,0 0.53,0 0,0 0.65,0 0,0 0.55,0 0,0 0.74,0.02 0,0 0.82,0 -0.02,0 0.76,0 0,0 0.82,0 0.14,0.02 0.92,0.15 -0.15,-0.03 0.91,0 0,0 0.8,0 0,0 0.76,0 0,0 0.92,0 0,0 0.79,0 0,0 0.81,0 0,0 0.92,0 0,0 0.88,0 0,0 0.94,0 0,0 0.89,0 0.02,0 0.89,0 0,0 0.94,0 0,0 0.91,0 0,0 0.91,0 0,0 0.91,0 0,0 0.91,0 0,0 0.92,0 0,0 0.91,0 0,0 0.93,0 0,0 0.8,0 0,0 1.03,0 -0.15,0 0.94,-0.12 0.12,-0.02 0.79,0 0,0 0.79,0 -0.02,0 0.79,0 -0.09,0.02 0.93,-0.12 0.12,0 0.77,0 -0.02,0 0.91,0 -0.12,0 0.93,-0.14 -0.02,0 0.89,-0.14 0.02,0 0.94,-0.12 0.12,0 0.93,0 0,0 0.89,0 0,0 0.96,0 -0.02,0 0.89,0 0,0 1.05,0 0,0 1.06,0 0,0 1.03,0 0,0 1.18,0 0,0 1.05,0 0,0 0.94,0 0,0 1.03,0 0,0 1.03,0 0,0 1.06,0 0,0 1.17,0 0,0 1.06,0 0,0 1.06,0 0,0 1,0 0,0 1.08,0 0.1,0 1.06,0.12 0.02,0 1.01,0.12 0,0 1.08,0.16 -0.12,-0.02 1.03,0.02 0,0 1.03,0 0.12,0 0.89,0.12 -0.1,-0.02 1.08,0 0.1,0 1.03,0.14 0.03,0 0.91,0.15 -0.05,-0.03 0.96,0.12 0.02,0 0.92,0.15 -0.05,0 0.96,0.12 0.02,0 0.89,0.12 0.05,0.02 0.77,0.15 -0.17,-0.03 0.79,0 0,0 0.77,0 0.17,0.03 0.76,0.12 0,0 0.8,0.14 -0.08,-0.02 0.92,0.09 0.07,0 0.96,0.19 -0.07,-0.02 0.91,0.12 -0.12,-0.02 0.81,0 0,0 0.8,0 0,0 0.76,0 0,0 0.8,0 0,0 0.76,0 0,0 0.82,0 0.19,0.04 0.63,0.12 -0.05,0 0.81,0.15 -0.02,0 0.89,0.12 0,0 0.79,0.12 -0.12,0 0.77,0 -0.03,0 0.96,0 0,0 0.8,0 0.09,0 0.91,0.12 0.03,0 0.91,0.14 -0.14,-0.02 0.79,0 0,0 0.79,0 0.14,0.02 0.92,0.15 0,0 0.91,0.12 -0.15,0 0.8,0 0,0 0.76,0 0,0 0.8,0 0,0 0.79,0 0,0 0.77,0 0,0 0.93,0 0,0 0.79,0 0,0 0.77,0 0,0 0.79,0 0,0 0.8,0 0,0 0.76,0 0,0 0.65,0 0,0 0.67,0 0,0 0.8,0 -0.03,0 0.79,0 -0.12,0.02 0.89,-0.14 0.15,0 0.81,0 0,0 0.77,0 0,0 0.79,0 0,0 0.63,0 -0.15,0 0.79,-0.15 -0.04,0.03 0.64,-0.17 0.05,0 0.65,-0.12 0,0 0.67,-0.12 -0.05,0.02 0.65,-0.14 -0.05,0 0.56,-0.15 -0.03,0 0.51,-0.12 -0.12,0.03 0.64,-0.27 0.03,-0.02 0.53,-0.22 0.04,-0.02 0.36,-0.14 0.1,-0.03 0.55,-0.14 -0.09,0.02 0.4,-0.14 0.05,-0.03 0.36,-0.09 -0.21,0.09 0.43,-0.26 0.14,-0.07 0.36,-0.15 -0.17,0.1 0.41,-0.26 0.07,-0.05 0.29,-0.15 -0.12,0.08 0.39,-0.24 -0.12,0.07 0.28,-0.27 0,0 0.24,-0.24 -0.04,0.03 0.26,-0.29 0.12,-0.1 0.14,-0.12 -0.07,0.08 0.24,-0.24 -0.07,0.07 0.12,-0.15 0.1,-0.12 0.28,-0.24 -0.07,0.05 0.27,-0.29 0.02,-0.02 0.12,-0.12 0,0 0.14,-0.14 0,0 0.15,-0.12 -0.07,0.07 0.12,-0.15 -0.22,0.56 0,-0.12 0,0 0.02,-0.15 0,0 0,-0.12 0,0.03 0,-0.17 0,0 0,-0.12 0,0 0,-0.15 0,0.03 0,-0.12 0,0 0,-0.15 0,-0.02 0,-0.12 0,0.02 0,-0.16 0,-0.03 0.03,-0.12 0,0.05 0,-0.14 0,-0.05 0,-0.12 0,0.05 0,-0.41 0,-0.03 0,-0.12 0.05,-0.28 0.14,-0.41 -0.05,0.31 0,-0.1 0,0 0,-0.45 0,0 0,-0.1 0,0 0,-0.41 0,0.03 0,-0.39 0.03,-0.28 0.14,-0.44 -0.02,0.27 0,-0.39 0,0 0,-0.36 0,0 0,-0.57 0.02,-0.27 0.12,-0.36 -0.05,0.24 0,-0.52 0,0 0,-0.41 0,0 0,-0.51 0,0 0,-0.43 0.07,-0.31 0.12,-0.38 -0.02,0.16 0.1,-0.57 0,0.17 0,-0.36 0.02,-0.24 0.14,-0.53 -0.02,0.24 0,-0.55 0.02,-0.22 0.15,-0.55 -0.03,0.24 0,-0.39 0.03,-0.24 0.12,-0.4 -0.03,0.26 -0.02,-0.38 0,0 0,-0.56 0,0 0,-0.38 0,0 -0.02,-0.55 0,0 0,-0.39 0,0 0,-0.4 0,0 0,-0.53 0.04,-0.22 0.15,-0.57 -0.03,0.24 0,-0.53 0,0 0,-0.39 0,0 0,-0.5 0,0 0,-0.55 0.03,-0.24 0.09,-0.41 -0.02,0.24 0,-0.5 0,0 0,-0.56 0.02,-0.26 0.17,-0.5 -0.05,0.26 0,-0.55 0,0 0,-0.41 0.05,-0.22 0.12,-0.52 -0.02,0.21 0,-0.65 0,-0.02 0.02,-0.5 0,0 0,-0.65 0,0 0,-0.55 0,0 0,-0.53 0,0 0,-0.53 0,0 0,-0.53 0,0 0,-0.55 0,0 -0.02,-0.5 0,0 0,-0.41 0,0 0.02,-0.53 0,0 0,-0.53 0,-0.02 0,-0.51 0.03,0.32 -0.12,-0.41 -0.03,-0.07 -0.14,-0.53 0,0.02 -0.1,-0.41 0,0.05 -0.14,-0.43 0,0 -0.12,-0.38 0.02,0.02 -0.17,-0.38 0.1,0.19 -0.26,-0.41 -0.03,-0.05 -0.12,-0.26 0.03,0.07 -0.27,-0.41 0,-0.02 -0.26,-0.43 0.21,0.26 -0.16,-0.12 0,0 -0.12,-0.12 -0.15,-0.14 -0.12,-0.15 0.67,0.34 -0.12,0 0.03,0 -0.15,0 -0.02,0 -0.14,0 0.04,0 -0.14,0 0,0 -0.1,0 0,0 -0.12,0 0,0 -0.12,0 -0.02,0 -0.14,0 0.02,0 -0.14,0 -0.03,0 -0.12,0 0,0 -0.12,0 -0.05,0 -0.12,0 0.05,0 -0.14,0 0,0 -0.15,0 0,0 -0.36,0 0,0 -0.16,0 0,0 -0.12,0 0,0 -0.41,0 0,0 -0.15,0 0.34,-0.07 -0.36,0.14 -0.34,0.07 -0.4,0 0.19,-0.02 -0.53,0.12 -0.19,0.02 -0.51,0 0,0 -0.4,0 0.21,-0.02 -0.53,0.12 -0.19,0.02 -0.53,0 0.2,-0.02 -0.65,0.14 0.05,-0.02 -0.51,0.14 -0.26,0.05 -0.65,0 0,0 -0.53,0 0.24,-0.05 -0.53,0.15 -0.24,0.02 -0.79,0 0,0 -0.65,0 0,0 -0.76,0 0,0 -0.68,0 0,0 -0.79,0 0,0 -0.65,0 0,0 -0.67,0 0,0 -0.65,0 0,0 -0.64,0 0,0 -0.65,0 0,0 -0.51,0 0,0 -0.67,0 0,0 -0.65,0 0,0 -0.64,0 0,0 -0.56,0 0,0 -0.5,0 0,0 -0.53,0 -0.02,0 -0.39,0 0,0 -0.5,0 0,0 -0.38,0 0,0 -0.41,0 -0.24,-0.05 -0.51,-0.12 0.24,0.03 -0.52,0 0,0 -0.41,0 -0.31,-0.05 -0.41,-0.15 0.31,0.05 -0.36,0 0,0 -0.41,0 0,0 -0.38,0 0,0 -0.39,0 0,0 -0.4,0 0,0 -0.36,0 -0.32,-0.05 -0.4,-0.14 0.28,0.05 -0.38,0 0,0 -0.41,0 0.03,0 -0.41,0 0,0 -0.51,0 0,0 -0.4,0 0,0 -0.51,0 -0.24,-0.05 -0.41,-0.1 0.08,0.03 -0.56,-0.12 0.2,0.02 -0.53,0 -0.03,0 -0.6,-0.02 -0.24,-0.03 -0.52,-0.14 0.21,0.05 -0.65,0 0,0 -0.52,0 0,0 -0.48,0 0,0 -0.56,0 0,0 -0.64,0 0,0 -0.8,0 0,0 -0.79,0 0,0 -0.77,0 -0.14,-0.03 -0.91,-0.14 0.14,0 -0.79,0 -0.14,0 -0.92,-0.17 0.03,0.03 -0.91,-0.12 0.09,0.02 -0.79,0 -0.14,-0.02 -0.89,-0.15 0,0 -0.91,-0.14 0.04,0 -1.05,-0.1 0.09,0 -0.79,0 -0.17,-0.02 -0.91,-0.17 0.17,0.02 -0.79,0 0,0 -0.79,0 0,0 -0.92,0 0,0 -0.76,0 0,0 -0.8,0 0,0 -0.64,0 0,0 -0.53,0 0,0 -0.67,0 0,0 -0.65,0 0,0 -0.65,0 0,0 -0.5,0 0,0 -0.7,-0.02 0,0 -0.65,0 0,0 -0.48,0 0,0 -0.67,0 0,0 -0.62,0 0,0 -0.56,0 0,0 -0.52,0 0,0 -0.51,0 0,0 -0.41,0 0.27,-0.02 -0.53,0.16 -0.1,0.03 -0.52,0.12 -0.2,0 -0.38,0 0.31,-0.05 -0.38,0.14 -0.31,0.05 -0.39,0 0,0 -0.38,0 0,0 -0.39,0 0,0 -0.4,0 0,0 -0.39,0 0,0 -0.38,0 -0.03,0 -0.38,0 -0.02,0 -0.39,0 0,0 -0.5,0 0,0 -0.53,0 0,0 -0.5,0 0,0 -0.41,0 0,0 -0.53,0 0,0 -0.12,0 0,0 -0.38,0 0,0 -0.39,0 0,0 -0.41,0 0,0 -0.38,0 -0.02,0 -0.39,0 0,0 -0.38,0 0,0 -0.41,0 0,0 -0.41,0 0,0 -0.36,0 0,0 -0.38,0 0.26,-0.05 -0.38,0.15 -0.29,0.05 -0.41,0 0,0 -0.38,0 0,0 -0.41,0 0,0 -0.5,0 0,0 -0.39,0 0,0 -0.41,0 0,0 -0.38,0 0,0 -0.36,0 -0.02,0 -0.39,0 0,0 -0.41,0 0,0 -0.5,0 0,0 -0.41,0 0,0 -0.38,0 0,0 -0.41,0.02 0,0 -0.41,0 0,0 -0.38,0 0,0 -0.41,0 0,0 -0.53,0 0,0 -0.36,0 0,0 -0.5,0 0,0 -0.43,0 0,0 -0.51,0 0,0 -0.41,0 0,0 -0.38,0 0,0 -0.53,0 0,0 -0.38,0 0,0 -0.65,0 0,0 -0.53,0 0,0 -0.5,0 0,0 -0.53,0 -0.19,-0.05 -0.65,-0.12 0.17,0 -0.65,0 0,0 -0.53,0 0,0 -0.67,0 0,0 -0.65,0 0,0 -0.65,0 0,0 -0.5,0 -0.17,0 -0.69,-0.14 0.19,0.02 -0.65,0 -0.17,-0.02 -0.65,-0.12 -0.07,0 -0.65,-0.17 0.22,0.02 -0.65,0 0,0 -0.67,0 -0.14,-0.02 -0.63,-0.12 0.17,0.02 -0.7,-0.02 -0.14,0 -0.65,-0.12 0.15,0.02 -0.65,0 0,0 -0.53,0 0,0 -0.53,0 0,0 -0.5,0 0,0 -0.53,0 0,0 -0.41,0 0,0 -0.36,0 0,0 -0.43,0 0.26,-0.04 -0.38,0.12 -0.24,0.02 -0.46,0 0,0 -0.36,0 0,0 -0.38,0 0.24,-0.05 -0.36,0.12 -0.29,0.05 -0.17,-0.02 0.36,-0.05 -0.38,0.14 -0.1,0.03 -0.38,0.12 -0.26,0.02 -0.15,0 0.05,0 -0.14,0 0.28,-0.07 -0.36,0.14 0.34,-0.24 -0.12,0.15 c -0.14,0.19 -0.38,0.31 -0.62,0.31 l -0.17,0 -0.03,0 -0.12,0 0.51,-0.17 -0.15,0.1 c -0.12,0.09 -0.31,0.16 -0.48,0.16 l -0.12,0 0,0 -0.14,0 0,0 -0.17,0 0.05,0 -0.1,0 0.03,0 -0.17,0 -0.02,0 -0.12,0 0.28,-0.04 -0.38,0.14 -0.29,0.05 -0.14,0 0.02,0 -0.12,0 0.24,-0.05 -0.38,0.14 -0.27,0.05 -0.14,0 0,0 -0.36,0 0,0 -0.41,0 0,0 -0.38,0 -0.03,0 -0.5,0.03 0.22,-0.03 -0.56,0.15 -0.19,0.02 -0.55,0 0.02,0 -0.55,0 0,0 -0.38,0 0.02,0 -0.53,0.02 0,0 -0.55,0 0,0 -0.53,0 0,0 -0.64,0 0,0 -0.77,0 0,0 -0.79,0 -0.15,0 -0.79,-0.14 0,0 -0.77,-0.14 -0.05,-0.03 -0.62,-0.12 0.17,0 -0.79,0 -0.12,0 -0.8,-0.12 -0.07,0 -0.65,-0.14 -0.04,0 -0.51,-0.15 0.07,0.03 -0.67,-0.12 -0.07,-0.03 -0.65,-0.19 0,0.03 -0.48,-0.12 0.03,0 -0.56,-0.12 0.2,0.02 -0.41,0 0,0 -0.39,0 0,0 -0.19,-0.02 -0.02,0 -0.27,-0.03 0.05,0 -0.24,0 0,0 -0.26,-0.02 -0.07,0 -0.12,0 -0.08,-0.03 -0.14,-0.02 0.1,0 -0.12,0 -0.03,0 -0.12,-0.02 c -0.36,-0.05 -0.6,-0.34 -0.6,-0.7 0,-0.36 0.24,-0.65 0.6,-0.72 z" /></g><path
         d="m 144.26,733.39 0.05,0.12 -0.26,-0.29 0.12,0.05 c 0.31,0.17 0.48,0.55 0.38,0.91 -0.12,0.34 -0.45,0.58 -0.81,0.53 -0.36,-0.02 -0.68,-0.31 -0.72,-0.67 l 0,-0.12 0,-0.05 0,-0.12 0,-0.05 -0.03,-0.24 0,-0.02 0,-0.14 0,0 0,-0.15 0.05,-0.26 0.14,-0.39 -0.02,0.1 0.12,-0.55 0,0.02 0.1,-0.65 0,0.15 0,-0.79 0,0 0,-0.8 0,0 0,-0.81 0,0 0,-0.65 0,0 0,-0.67 0,0 0,-0.67 0,0 0,-0.65 0,0 0,-0.65 0,-0.14 0.14,-0.8 0,0.12 0,-0.64 0,0 0,-0.8 0,0 0.02,-0.79 0,0 0,-0.81 0,0 0,-0.77 0,0 0,-0.65 0.03,-0.17 0.14,-0.67 0,0.02 0.12,-0.64 0,-0.03 0.15,-0.67 -0.03,0.14 0,-0.64 0,0 0,-0.56 0,0 0.03,-0.52 0,0 0,-0.51 0,0 0,-0.67 0,0 0,-0.53 0,0 0,-0.65 0,0 0,-0.81 0,0 0,-0.79 0,0 0,-0.68 0,0 0,-0.52 0,0 0,-0.51 0,0 0,-0.55 0,0.02 0,-0.4 0,0 -0.03,-0.39 0,-0.02 0,-0.43 0,0 0,-0.36 0,0.02 0,-0.41 0,0 0,-0.41 0,0.03 0,-0.15 0.03,-0.28 0.14,-0.39 -0.02,0.27 0,-0.41 0,0 0,-0.39 0,0 0,-0.4 0,0 -0.03,-0.39 0,0 0,-0.41 0,0.03 0,-0.41 0,0 0,-0.43 0,0 0,-0.36 0,0 -0.02,-0.41 0,0 0,-0.41 0,0.03 0,-0.15 0,-0.02 0,-0.36 0,0 0,-0.43 0,0 0,-0.15 0,0 0,-0.12 0,0 0,-0.38 0,0 0,-0.15 0,0 0,-0.09 0,-0.05 0,-0.12 0,0.02 0,-0.12 0,0 0,-0.14 0,0 0,-0.14 0,0.02 0,-0.14 0,-0.03 0,-0.24 0.02,-0.17 0.03,-0.09 c 0.04,-0.36 0.38,-0.63 0.74,-0.63 0.38,0 0.7,0.27 0.77,0.63 l 0.02,0.09 0.03,0.17 0,0.24 -0.03,0.03 0,0.14 0,-0.02 0,0.14 0,0 0,0.14 0,0 0,0.12 0,-0.02 0,0.12 0.03,0.05 0,0.09 0,0 0,0.15 0,0 0,0.38 0,0 0,0.12 0,0 0,0.15 0,0 0,0.43 0,0 0,0.36 -0.03,0.02 0,0.15 0,-0.03 0,0.41 0,0 0,0.41 0,0 0,0.36 0,0 0,0.43 0,0 -0.02,0.41 0,-0.03 0,0.41 0,0 0,0.39 0,0 0,0.4 0,0 0,0.39 0,0 0,0.41 -0.05,0.24 -0.14,0.4 0.04,-0.24 0,0.15 0,-0.03 0,0.41 0,0 -0.02,0.41 0,-0.02 0,0.36 0,0 0,0.43 0,0.02 0,0.39 0,0 0,0.4 0,-0.02 0,0.55 0,0 0,0.51 0,0 0,0.52 0,0 0,0.68 0,0 0,0.79 0,0 0,0.81 0,0 0,0.65 0,0 0,0.53 0,0 0,0.67 0,0 0,0.51 0,0 0,0.52 0,0 0,0.56 0,0 0,0.64 0,0.15 -0.14,0.69 0,-0.02 -0.1,0.65 -0.02,0.02 -0.12,0.67 0,-0.14 0,0.65 0,0 0.02,0.77 0,0 0,0.81 0,0 0,0.79 0,0 0.02,0.8 0,0 0,0.64 -0.02,0.15 -0.14,0.81 0.02,-0.14 0,0.65 0,0 0,0.65 0,0 0,0.67 0,0 0,0.67 0,0 0,0.65 0,0 0,0.81 0,0 0,0.8 0,0 0,0.79 -0.02,0.12 -0.1,0.67 0,0.02 -0.12,0.53 -0.02,0.12 -0.15,0.39 0.05,-0.27 0,0.15 0,0 0,0.14 0,0.02 0,0.24 -0.02,0.05 0,0.12 0,0.05 0,0.12 c -0.05,0.36 -0.34,0.65 -0.72,0.67 -0.36,0.05 -0.7,-0.19 -0.8,-0.53 -0.12,-0.36 0.05,-0.74 0.36,-0.91 l 0.12,-0.05 -0.26,0.29 0.05,-0.12 c 0.07,-0.19 0.26,-0.33 0.48,-0.33 0.19,0 0.41,0.14 0.45,0.33 z"
         style="fill:#ff99ff;fill-opacity:1;fill-rule:nonzero;stroke:none"
         id="path168"
         inkscape:connector-curvature="0" /></g><path
       inkscape:connector-curvature="0"
       id="path170"
       style="fill:#ff99ff;fill-opacity:1;fill-rule:nonzero;stroke:none"
       d="m 144.34,734.23 -0.1,0.05 0.26,-0.29 -0.04,0.1 0.02,-0.12 0,0.14 0,-0.07 0.02,0.12 0,0.05 0,0.12 0,0 0.03,0.14 0,0.03 0,0.09 -0.46,-0.45 0.12,0 0.29,0.14 0.14,0.14 0,0 0.15,0.15 0.05,0.02 0.12,0.15 -0.1,-0.08 0.14,0.12 -0.28,-0.09 0.14,0 -0.17,0.02 0.07,-0.02 c 0.22,-0.1 0.46,-0.05 0.6,0.12 0.15,0.17 0.17,0.41 0.05,0.6 -0.09,0.19 -0.33,0.26 -0.55,0.24 l -0.1,-0.03 -0.21,-0.12 -0.12,-0.09 0.05,0.02 -0.24,-0.14 0.02,0.02 -0.29,-0.14 -0.14,-0.12 -0.12,-0.15 0.02,0.03 -0.09,-0.1 -0.1,-0.09 -0.14,-0.27 0.09,0.1 -0.14,-0.15 -0.05,-0.04 -0.12,-0.15 -0.1,-0.29 0,-0.12 0.15,0.36 -0.15,-0.14 0,0 -0.14,-0.14 -0.14,-0.34 0,-0.12 0,0.02 0,-0.14 0,-0.02 0,-0.15 0,0.03 0,-0.15 0.07,0.22 -0.15,-0.27 0.05,0.08 -0.09,-0.1 0.07,0.07 -0.17,-0.14 -0.17,-0.34 -0.02,-0.14 0.17,0.33 -0.12,-0.12 c -0.2,-0.14 -0.27,-0.43 -0.15,-0.64 0.12,-0.22 0.39,-0.34 0.63,-0.27 0.24,0.07 0.4,0.29 0.38,0.55 l 0,0.12 0,-0.02 0,0.14 0,0.05 -0.02,0.15 0,-0.03 0,0.1 0,0 0,0.14 -0.12,-0.36 0.09,0.12 0.07,0.1 0.17,0.29 0.03,0.09 0.09,0.27 -0.09,-0.2 0.12,0.15 0.12,0.33 0,0.15 0,0.05 0,0.09 -0.15,-0.36 0.15,0.15 c 0.12,0.12 0.14,0.28 0.12,0.43 l -0.05,0.14 -0.27,-0.53 0.12,0.05 c 0.15,0.05 0.27,0.19 0.27,0.34 0,0.17 -0.1,0.31 -0.24,0.38 l -0.05,0 c -0.12,0.07 -0.26,0.03 -0.34,-0.09 -0.07,-0.1 -0.04,-0.24 0.05,-0.34 0.1,-0.1 0.24,-0.12 0.36,-0.05 l 0.46,0.34 c 0.07,0.05 0.12,0.14 0.07,0.24 -0.05,0.09 -0.14,0.14 -0.26,0.12 l -0.53,-0.19 -0.03,-0.03 -0.02,0 0.26,0 -0.12,0.05 c -0.12,0.05 -0.24,0.02 -0.33,-0.02 -0.12,-0.05 -0.19,-0.17 -0.22,-0.27 l -0.05,-0.14 0.15,0.21 -0.15,-0.12 -0.14,-0.31 -0.02,-0.09 0,-0.05 0,-0.15 0.14,0.36 -0.14,-0.14 -0.12,-0.22 -0.1,-0.24 0.05,0.1 -0.17,-0.29 0.1,0.12 -0.12,-0.12 c -0.12,-0.09 -0.17,-0.21 -0.17,-0.36 l 0,-0.14 0,0 -0.03,-0.1 0.03,0.03 -0.03,-0.15 0,-0.05 0,-0.14 0,0.02 0,-0.12 c -0.02,-0.26 0.15,-0.48 0.39,-0.55 0.24,-0.07 0.5,0.05 0.62,0.27 l 0.07,0.16 0.05,0.27 0,0.14 -0.17,-0.41 0.17,0.15 0.07,0.09 0.08,0.1 0.04,0.05 0.15,0.26 0.05,0.24 0,0.15 0,-0.03 0,0.15 0,0.02 0,0.14 0,-0.02 0,0.12 -0.15,-0.34 0.15,0.15 0,0 0.14,0.14 0.12,0.31 0.02,0.12 -0.12,-0.28 0.12,0.12 -0.02,-0.03 0.14,0.15 0.08,0.12 0.14,0.24 -0.1,-0.1 0.12,0.12 0.05,0.02 0.1,0.15 -0.15,-0.12 0.29,0.14 0,0 0.27,0.15 0.04,0.02 0.17,0.12 -0.41,-0.07 0.1,-0.05 c 0.22,-0.05 0.46,0.05 0.55,0.24 0.12,0.19 0.1,0.43 -0.05,0.6 -0.14,0.17 -0.38,0.22 -0.6,0.12 l -0.07,-0.05 0.17,0.05 -0.14,0 -0.29,-0.1 -0.15,-0.12 -0.04,-0.07 -0.12,-0.14 0.02,0.05 -0.14,-0.15 0,0 -0.15,-0.14 0.36,0.14 -0.12,0 c -0.12,0 -0.24,-0.05 -0.33,-0.14 -0.1,-0.07 -0.15,-0.19 -0.15,-0.34 l 0,-0.09 0,-0.03 0,-0.14 0,0 0.03,-0.12 0,-0.05 0,-0.12 0,0.07 0,-0.14 0.02,0.12 -0.02,-0.1 c -0.08,-0.17 -0.03,-0.38 0.12,-0.5 0.12,-0.15 0.33,-0.17 0.5,-0.1 l 0.1,0.05 c 0.16,0.07 0.26,0.24 0.26,0.38 0,0.2 -0.1,0.34 -0.26,0.41 z" /><g
       id="g4582"><path
         d="m 130.37042,671.86339 -0.14,0.14 -0.12,0.12 -0.27,0.15 0.08,-0.05 -0.15,0.12 0.1,-0.07 -0.12,0.14 -0.15,0.12 -0.4,0.24 0.04,-0.02 -0.4,0.28 -0.03,0 -0.53,0.39 0,0 -0.67,0.43 0.03,-0.02 -0.92,0.64 0,0.03 -0.76,0.5 -0.03,0 -0.81,0.53 0.02,0 -0.77,0.53 0.03,-0.03 -0.65,0.51 -0.05,0.02 -0.79,0.55 -0.03,0.03 -0.91,0.53 0.07,-0.05 -0.79,0.65 -0.02,0.02 -0.82,0.55 0.03,-0.02 -0.75,0.55 -0.05,0.02 -0.93,0.53 0.05,-0.02 -0.8,0.53 0,0 -0.79,0.52 -0.07,0.05 -0.77,0.41 0.03,0 -0.65,0.36 -0.03,0 -0.79,0.43 0.07,-0.05 -0.52,0.39 -0.05,0.02 -0.63,0.41 0.05,-0.02 -0.69,0.5 0.02,-0.02 -0.62,0.5 -0.03,0.02 -0.79,0.58 0.02,0 -0.69,0.5 0.09,-0.07 -0.52,0.58 -0.1,0.07 -0.53,0.38 0.1,-0.09 -0.36,0.43 -0.05,0.05 -0.38,0.36 0.02,-0.03 -0.38,0.41 -0.03,0.05 -0.41,0.36 0.03,-0.02 -0.51,0.55 0.05,-0.05 -0.41,0.53 -0.04,0.07 -0.53,0.53 0.07,-0.12 -0.36,0.55 -0.07,0.07 -0.386,0.41 0.048,-0.07 -0.384,0.55 0,0 -0.384,0.55 -0.096,0.1 -0.384,0.36 0.024,-0.03 -0.408,0.41 -0.024,0.05 -0.408,0.36 0.048,-0.02 -0.408,0.43 0.072,-0.12 -0.216,0.36 -0.096,0.14 -0.408,0.41 0.072,-0.07 -0.384,0.5 -0.048,0.1 -0.408,0.38 0.096,-0.09 -0.264,0.38 -0.024,0.05 -0.264,0.38 0,-0.02 -0.24,0.41 0.024,-0.03 -0.24,0.39 -0.12,0.14 -0.264,0.29 -0.072,0.05 -0.144,0.09 0.096,-0.07 -0.264,0.29 -0.096,0.07 -0.144,0.12 0.12,-0.12 -0.12,0.14 0.024,0 -0.12,0.15 0.024,-0.03 -0.288,0.41 -0.096,0.1 -0.287996,0.26 0.048,-0.05 -0.216,0.24 -0.024,0.05 -0.288,0.27 0.096,-0.15 -0.216,0.41 -0.216,0.22 -0.168,0.12 0.24,-0.32 -0.096,0.29 0.048,-0.24 0,0.12 c 0,0.17 -0.072,0.31 -0.192,0.46 l -0.144,0.14 -0.048,0.05 -0.144,0.12 0.24,-0.58 0,0.17 c 0.024,0.22 -0.072,0.43 -0.24,0.58 l -0.12,0.12 0.144,-0.22 -0.072,0.15 0,0 -0.144,0.26 -0.096,0.14 -0.144,0.17 0,0 -0.144,0.12 0.192,-0.48 0,0.12 0,0 0,0.15 0,0 0,0.14 0,0.02 0,0.12 0,-0.02 0,0.1 0,0.02 0,0.17 -0.072,0.26 -0.12,0.27 -0.144,0.21 -0.144,0.15 c -0.264,0.24 -0.672,0.21 -0.936,-0.03 -0.264,-0.26 -0.264,-0.67 -0.024,-0.93 l 0.144,-0.15 -0.144,0.19 0.12,-0.26 -0.048,0.29 0,-0.17 0,-0.02 0,-0.1 0,0.02 0,-0.12 0,-0.02 0,-0.14 0,0 0,-0.15 0,0 0,-0.12 c 0,-0.17 0.072,-0.36 0.192,-0.48 l 0.144,-0.14 0,0 0.168,-0.15 -0.12,0.17 0.12,-0.26 0.024,-0.05 0.096,-0.14 0.168,-0.15 0.144,-0.12 -0.264,0.48 0,-0.17 c 0.024,-0.16 0.096,-0.33 0.24,-0.45 l 0.144,-0.12 -0.048,0.05 0.168,-0.15 -0.216,0.48 0,-0.12 0.048,-0.24 0.12,-0.29 0.24,-0.31 0.168,-0.09 -0.192,0.21 0.216,-0.41 0.096,-0.12 0.288,-0.28 -0.024,0.02 0.216,-0.26 0.048,-0.05 0.288,-0.24 -0.072,0.09 0.264,-0.4 0.048,-0.03 0.096,-0.14 0,0.02 0.12,-0.14 0.096,-0.1 0.12,-0.12 -0.048,0.07 0.239996,-0.28 0.072,-0.08 0.144,-0.12 -0.048,0.05 0.288,-0.29 -0.12,0.15 0.24,-0.41 0,-0.02 0.264,-0.41 0.024,-0.03 0.288,-0.38 -0.024,0.02 0.264,-0.4 0.096,-0.1 0.384,-0.41 -0.072,0.1 0.384,-0.53 0.072,-0.07 0.408,-0.41 -0.096,0.1 0.24,-0.36 0.072,-0.1 0.408,-0.43 0.024,-0.03 0.408,-0.36 -0.048,0.03 0.408,-0.43 0.024,-0.03 0.408,-0.36 -0.072,0.07 0.384,-0.52 0,0 0.408,-0.53 0.072,-0.1 0.408,-0.38 -0.096,0.09 0.384,-0.52 0.096,-0.1 0.532,-0.5 -0.076,0.07 0.406,-0.53 0.05,-0.07 0.5,-0.53 0.03,-0.02 0.41,-0.39 -0.03,0.05 0.41,-0.43 0.02,-0.03 0.39,-0.36 -0.03,0.05 0.36,-0.43 0.12,-0.1 0.53,-0.36 -0.09,0.1 0.5,-0.58 0.1,-0.07 0.67,-0.5 0,-0.03 0.81,-0.55 -0.04,0.03 0.62,-0.51 0.02,-0.02 0.68,-0.51 0.04,-0.02 0.6,-0.41 0,0.03 0.53,-0.41 0.07,-0.03 0.8,-0.43 -0.03,0 0.65,-0.36 0.02,-0.02 0.77,-0.39 -0.05,0.03 0.8,-0.53 0,0 0.79,-0.55 0.05,-0.03 0.93,-0.5 -0.07,0.05 0.74,-0.55 0.03,0 0.79,-0.56 -0.05,0.05 0.79,-0.65 0.08,-0.04 0.91,-0.56 -0.03,0.03 0.8,-0.55 -0.05,0.02 0.67,-0.5 0.02,-0.03 0.75,-0.55 0.02,0 0.82,-0.53 0,0 0.77,-0.53 -0.03,0.03 0.91,-0.65 0.03,-0.02 0.65,-0.44 -0.03,0 0.55,-0.36 -0.02,0 0.41,-0.28 0.02,0 0.39,-0.27 -0.15,0.15 0.1,-0.15 0.12,-0.12 0.14,-0.12 0.1,-0.05 0.26,-0.14 -0.12,0.1 0.15,-0.15 c 0.21,-0.19 0.57,-0.19 0.79,0.03 0.21,0.21 0.21,0.57 0.02,0.79 z"
         style="fill:#ffffff;fill-opacity:1;fill-rule:nonzero;stroke:none"
         id="path18"
         inkscape:connector-curvature="0" /><path
         d="m 96.621077,694.10347 0.096,0.27 0,0.07 0.048,0.24 0,-0.05 0.024,0.1 0.024,0.12 0.024,0.38 0,0 0,0.41 0,0 0,0.69 0,0.15 -0.12,0.38 0.024,-0.14 0,0.55 0,0 0,0.38 0,0 0.024,0.39 0,0.02 0,0.39 0,0 0,0.4 0,0 0.024,0.41 0,-0.02 0,0.12 0,0 0,0.14 0,0 0,0.15 0,0 0,0.12 0,0 0,0.14 0,-0.05 0,0.15 -0.048,-0.2 0.12,0.27 -0.144,-0.22 0.12,0.12 c 0.12,0.1 0.192,0.24 0.192,0.41 l 0.024,0.17 -0.288,-0.46 0.168,0.1 0.144,0.12 0.12,0.14 -0.12,-0.12 0.144,0.12 0.12,0.1 0.12,0.14 -0.024,-0.05 0.12,0.15 -0.48,-0.17 0.12,-0.02 0.024,0 0.144,0 0.24,0.02 0.36,0.12 -0.216,-0.02 0.432,0 0.168,0 0.408,0.09 -0.192,0 0.408,-0.02 0,0 0.504,0 0,0 0.527993,0 0,0 0.528,0 0.024,0 0.36,0 0,0 0.528,0 -0.144,0.02 0.504,-0.12 -0.024,0 0.552,-0.14 0.168,-0.03 0.528,0 -0.192,0.03 0.528,-0.15 -0.024,0 0.528,-0.14 0,0 0.384,-0.12 -0.048,0.02 0.408,-0.14 0.24,-0.05 0.408,0 0,0 0.12,0 0,0 0.12,0 0,0 0.144,0 0.096,0 0.12,0.03 -0.24,0 0.288,-0.08 0.264,0 0.096,0.03 -0.024,0 0.892,0.12 c 0.07,0.02 0.14,0.07 0.16,0.17 0.03,0.07 0,0.16 -0.04,0.21 l -0.68,0.6 -0.308,0.15 -0.096,0.02 0.216,-0.07 -0.264,0.14 -0.264,0.1 -0.12,0.02 -0.096,0 -0.144,0 0,0 -0.12,0 0,0 -0.12,0 0,0 -0.408,0 0.24,-0.05 -0.408,0.15 -0.024,0.02 -0.408,0.1 0,0 -0.528,0.14 0,0 -0.504,0.12 -0.192,0.05 -0.528,-0.02 0.168,-0.03 -0.528,0.15 -0.024,0.02 -0.504,0.1 -0.168,0.02 -0.528,0 0,0 -0.36,0 -0.024,0 -0.528,0 0,0 -0.527993,0 0,0 -0.504,-0.02 0,0 -0.408,0 -0.192,-0.03 -0.384,-0.14 0.192,0.05 -0.432,-0.03 -0.24,-0.05 -0.36,-0.14 0.216,0.05 -0.144,-0.03 -0.024,0 -0.12,0 c -0.144,-0.02 -0.264,-0.07 -0.384,-0.19 l -0.12,-0.14 -0.048,-0.05 -0.12,-0.14 0.072,0.07 -0.12,-0.12 -0.072,-0.07 -0.12,-0.15 0.12,0.12 -0.168,-0.12 c -0.144,-0.12 -0.24,-0.31 -0.24,-0.5 l 0,-0.17 0.144,0.41 -0.096,-0.12 -0.096,-0.15 -0.096,-0.26 -0.048,-0.26 0,-0.15 0,0.05 0,-0.14 0,0 0,-0.12 0,0 0,-0.15 0,0 0,-0.14 0,0 0,-0.12 0,0.02 0.024,-0.41 0,0 0,-0.4 0,0 0,-0.39 0,-0.02 0.024,-0.39 0,0 0,-0.38 0,0 0,-0.55 0.024,-0.12 0.12,-0.41 -0.024,0.14 0,-0.69 0,0 0.024,-0.41 0,0 0.024,-0.38 0,-0.12 0.048,-0.1 -0.024,0.05 0.048,-0.24 0.024,-0.07 0.072,-0.27 c 0.048,-0.12 0.168,-0.19 0.288,-0.19 0.12,0 0.24,0.07 0.264,0.19 z"
         style="fill:#ffffff;fill-opacity:1;fill-rule:nonzero;stroke:none"
         id="path210"
         inkscape:connector-curvature="0" /></g><path
       inkscape:connector-curvature="0"
       id="path24"
       style="fill:#ff99ff;fill-opacity:1;fill-rule:nonzero;stroke:none"
       d="m 93.84,594.79 0.12,-0.79 0,0 0.096,-0.65 0,0 0.072,-0.79 0,0 0.072,-0.79 0,-0.03 0.12,-0.79 0,0 0.072,-0.65 0,-0.02 0.12,-0.67 0,0.02 0.12,-0.69 0,0.02 0.12,-0.94 0,0.05 0,-1.17 0,-0.05 0.096,-1.18 0,-0.02 0.12,-1.18 0,-0.05 0.168,-1.03 0,0 0.096,-0.79 0,0 0.096,-0.79 0,0.07 0,-0.79 0,-0.07 0.144,-0.94 -0.024,0.02 0.12,-1.08 0,0.05 -0.024,-1.03 0,0 0,-1.06 0,0 0,-1.08 0,-0.07 0.144,-1.05 0,0.07 0,-0.91 0,0.02 -0.024,-0.82 0,0 0,-0.79 0,0 -0.024,-0.79 0,0 0,-0.79 0,-0.03 0,-0.79 0,0 0,-0.79 0,0 0,-0.77 0,0 0,-0.84 0,0 0,-0.65 0.048,-0.14 0.12,-0.55 0,0 0.144,-0.53 -0.024,0.14 0,-0.36 0,0 0,-0.43 0,0 0,-0.12 0,0 0,-0.38 0,0 0,-0.43 0,0 0,-0.12 0,0 0,-0.12 0,0 0,-0.12 0,0 0,-0.15 0,0.03 0,-0.15 0,-0.02 0,-0.39 0,0 0,-0.4 0,0 0,-0.15 0.024,-0.19 0.096,-0.36 0,0.02 0.12,-0.43 0.048,-0.09 0.144,-0.36 -0.024,0.07 0.12,-0.39 -0.024,0.17 0,-0.14 c 0,-0.15 0.048,-0.27 0.12,-0.39 l 0.12,-0.14 0.144,-0.14 0.192,-0.12 -0.168,0.12 0.12,-0.12 0.048,-0.08 0.12,-0.09 0.072,-0.07 0.384,-0.29 -0.048,0.05 0.264,-0.27 0.096,-0.05 0.216,-0.16 -0.024,0.02 0.408,-0.29 0.192,-0.12 0.408,-0.12 0,0 0.504,-0.14 -0.048,0.02 0.668,-0.26 0.12,-0.03 0.63,-0.12 -0.03,0 0.68,-0.16 0.07,0 0.79,-0.12 -0.05,0 0.65,-0.12 0.05,-0.03 0.77,-0.09 0.09,-0.03 0.79,0 0,0 0.92,0 0,0 0.79,0 0,0 0.79,0 0,0 0.79,0 0.1,0 0.77,0.12 0,0 0.91,0.15 -0.03,0 0.96,0.12 0.03,0 0.91,0.16 -0.05,0 0.91,0.1 -0.09,0 0.79,0 0,0 0.79,-0.02 0.12,0.02 0.91,0.14 -0.02,0 0.91,0.12 0,0 1.06,0.12 0.09,0.03 0.92,0.26 -0.05,-0.02 0.86,0.14 0.07,0.03 0.94,0.24 -0.07,0 0.91,0.12 -0.02,0 0.79,0.12 0.02,0 1.06,0.16 -0.03,0 0.92,0.12 -0.08,-0.02 0.77,0 0.12,0.02 0.77,0.12 -0.02,0 0.81,0.12 0.03,0 0.76,0.15 -0.12,0 0.77,0 0.12,0 0.91,0.14 0,0 0.8,0.12 -0.1,-0.02 0.79,0 0.15,0.02 0.76,0.15 -0.14,-0.03 0.65,0 0,0 0.65,0 0,0 0.79,0 0,0 0.69,0 0,0 0.6,0 0,0 0.7,0 0,0 0.62,0 0,0 0.68,0 0,0 0.62,0 0,0 0.55,0 0,0 0.65,0 0,0 0.55,0 0,0 0.48,0 0,0 0.63,0 0,0 0.57,0 0,0 0.51,0 -0.2,0.03 0.53,-0.15 0.19,0 0.53,0 0,0 0.51,0 0,0 0.69,0 0,0 0.48,0 0,0 0.53,0 0,0 0.41,0 0.19,0.03 0.5,0.12 0,0 0.53,0.16 -0.17,-0.04 0.36,0 0,0 0.53,0 0.17,0.02 0.5,0.12 0.05,0 0.53,0.14 -0.19,-0.02 0.55,0 0.14,0.02 0.51,0.12 0.05,0 0.5,0.15 0,0 0.53,0.14 -0.17,-0.02 0.38,0 0.24,0.05 0.41,0.12 -0.05,0 0.36,0.12 0.03,0 0.43,0.14 0,0 0.36,0.12 0.02,0 0.41,0.14 0,0 0.39,0.15 -0.24,-0.03 0.4,0 0,0 0.12,0 0,0 0.15,0 0.21,0.05 0.41,0.12 0.24,0.17 0.12,0.12 0.05,0.05 0.14,0.17 -0.31,-0.22 0.24,0.1 0.17,0.07 0.43,0.29 0.15,0.12 0.21,0.24 -0.05,-0.03 0.27,0.27 0.09,0.12 0.27,0.43 -0.03,-0.05 0.29,0.38 0.12,0.29 0.1,0.53 -0.03,-0.07 0.17,0.5 0.05,0.1 0.12,0.67 0,0 0.1,0.67 0,-0.05 0.14,0.68 0,0.14 0,0.53 0,-0.15 0.12,0.56 0,0.14 0,0.65 0,-0.12 0.14,0.79 0,0.12 0,0.79 0,-0.09 0.12,0.93 0.03,0.1 -0.03,0.93 0,0 0,1.18 0,0 0.03,1.2 0,0 0,1.18 -0.03,-0.1 0.17,0.91 0,0.03 0.12,0.93 0,0 0.1,1.06 0,-0.03 0.17,1.06 0.02,0.02 0.1,0.94 0,-0.02 0.14,1.08 0,0.02 0.12,1.2 0,0.07 0,0.89 0,0 0,0.84 0,-0.17 0.12,0.65 0.02,0.07 0.12,0.77 0,0.12 0,0.65 0,0 0,0.65 0,0 0,0.57 0,0 0,0.51 0,0 0,0.5 0,0 0,0.58 0,0 0,0.5 0,0 0.03,0.41 0,0 0,0.38 0,0 0,0.65 0,0 0,0.55 0,0 0,0.51 -0.03,0.19 -0.12,0.43 0,0.05 -0.14,0.38 0.02,-0.24 0.03,0.12 0,0 0,0.12 -0.03,0.22 -0.09,0.38 0.02,-0.19 0,0.1 c 0,0.19 -0.05,0.33 -0.17,0.5 l -0.12,0.17 -0.02,0.05 -0.12,0.12 -0.07,0.07 -0.17,0.14 0.05,-0.05 -0.1,0.12 0.05,-0.07 -0.12,0.17 -0.07,0.05 -0.27,0.29 -0.07,0.07 -0.14,0.09 -0.05,0.05 -0.36,0.24 -0.19,0.1 -0.41,0.14 0.19,-0.09 -0.38,0.28 -0.24,0.1 -0.41,0.12 0.14,-0.05 -0.5,0.24 -0.17,0.07 -0.53,0.15 0,0 -0.5,0.14 0,0 -0.53,0.12 -0.07,0.03 -0.67,0.12 0.02,0 -0.6,0.12 -0.07,0.02 -0.79,0.1 0.07,0 -0.67,0.14 -0.17,0 -0.79,0 0,0 -0.67,0 0,0 -0.77,0 0.14,0 -0.79,0.14 -0.02,0 -0.8,0.15 -0.12,0 -0.76,0 0,0 -0.77,0 0,0 -0.91,0 0.09,0 -0.93,0.12 -0.1,0 -0.94,0 0,0 -0.76,0 0,0 -0.92,0 0.15,0 -0.91,0.14 -0.12,0 -1.08,0 0,0 -0.92,0 0,0 -0.93,0 0,0 -0.91,0 0,0 -0.92,0 0,0 -1,0 -0.1,-0.02 -1.08,-0.12 0.1,0 -0.75,0 0,0 -0.93,0 0,0 -0.92,0 0.08,0 -1.04,0.14 -0.09,0 -0.94,0 0,0 -1.03,0 0,0 -0.94,0 -0.09,-0.02 -1.03,-0.12 0.12,0 -0.92,0 0,0 -0.93,0 0,0 -1.06,0 0,0 -0.89,0 0,0 -0.96,0 0,0 -0.88,0 0,0 -0.77,0 0,0 -0.79,0 0,0 -0.77,0 -0.12,0 -0.82,-0.12 0.1,0 -0.75,0 0,0 -0.76,0 0,0 -0.8,0 0,0 -0.69,0 0,0 -0.65,0 0,0 -0.65,0 0,0 -0.65,0 0,0 -0.64,0 0,0 -0.65,0 0,0 -0.67,0 0,0 -0.65,0 -0.19,-0.03 -0.56,-0.14 0.22,0.02 -0.5,0 -0.22,-0.02 -0.5,-0.14 0.19,0.02 -0.53,0 0,0 -0.67,0 0,0 -0.51,0 0,0 -0.67,0 -0.02,0 -0.51,0 -0.16,-0.02 -0.56,-0.15 0.03,0 -0.51,-0.09 -0.09,-0.03 -0.39,-0.14 0.03,0 -0.39,-0.1 0.22,0.03 -0.38,0 -0.29,-0.05 -0.36,-0.15 0,0 -0.39,-0.14 0,0 -0.404,-0.12 0.048,0 -0.408,-0.12 0.24,0.05 -0.408,0 0,0 -0.12,0 -0.264,-0.05 -0.384,-0.17 0.264,0.05 -0.144,0 0,0 -0.144,0 0,0 -0.12,0 -0.192,0 -0.408,-0.12 0.192,0.02 -0.096,0 -0.024,0 -0.144,0 -0.36,-0.09 -0.264,-0.17 0.384,0.12 -0.096,0 0,0 -0.192,0 0,0 -0.096,0 0,0 -0.12,0 c -0.192,0 -0.36,-0.07 -0.504,-0.19 l -0.168,-0.12 -0.096,-0.12 -0.12,-0.15 0.048,0.05 -0.096,-0.09 0,0 -0.144,-0.15 0.024,0.03 -0.288,-0.27 -0.096,-0.12 -0.12,-0.14 0.072,0.09 -0.144,-0.14 c -0.12,-0.17 -0.192,-0.36 -0.192,-0.55 l 0,-0.12 0,0.02 0,-0.14 0,0 0,-0.12 0.12,0.41 -0.12,-0.17 c -0.096,-0.12 -0.12,-0.29 -0.12,-0.43 l 0,-0.1 0.168,0.48 -0.096,-0.14 0.552,0.28 -0.144,0 -0.36,-0.09 -0.24,-0.12 -0.168,-0.15 -0.144,-0.14 -0.024,0 -0.12,-0.14 0,-0.03 -0.12,-0.14 c -0.12,-0.12 -0.168,-0.27 -0.168,-0.43 l -0.024,-0.53 c 0,-0.1 0.024,-0.15 0.072,-0.19 0.048,-0.05 0.12,-0.05 0.168,-0.05 l 0.552,0.07 0.36,0.17 0.168,0.12 -0.12,-0.07 0.144,0.09 0.144,0.1 0.144,0.14 -0.192,-0.14 0.24,0.12 -0.312,-0.1 0.144,0 c 0.24,0 0.456,0.12 0.6,0.29 l 0.12,0.17 c 0.096,0.12 0.144,0.26 0.144,0.43 l 0.024,0.1 -0.144,-0.39 0.12,0.17 c 0.072,0.12 0.144,0.26 0.144,0.41 l 0,0.12 0,0 0,0.14 0,-0.02 0,0.12 -0.24,-0.53 0.144,0.14 0.048,0.05 0.12,0.12 -0.072,-0.05 0.288,0.27 0.024,0.02 0.144,0.12 0,0 0.12,0.12 0.048,0.07 0.12,0.15 -0.096,-0.12 0.144,0.14 -0.48,-0.17 0.12,0 0,0 0.096,0 0,0 0.192,0 0,0 0.096,0 0.384,0.1 0.24,0.12 -0.384,-0.07 0.144,-0.03 0.024,0 0.096,0 0.24,0.05 0.384,0.1 -0.216,-0.03 0.12,0 0,0 0.144,0 0,0 0.144,0 0.264,0.05 0.384,0.15 -0.264,-0.05 0.12,0 0,0 0.408,0 0.192,0.02 0.412,0.12 0.04,0 0.39,0.15 0,0.02 0.41,0.12 0.02,0.02 0.36,0.15 -0.26,-0.05 0.38,0 0.22,0.02 0.4,0.1 0.03,0.02 0.41,0.15 -0.1,-0.03 0.5,0.1 0.03,0.02 0.55,0.15 -0.22,-0.03 0.51,-0.02 0.02,0 0.67,0 0,0 0.51,0 0,0 0.67,0 0,0 0.53,0 0.21,0.05 0.51,0.14 -0.19,-0.02 0.5,0 0.19,0.02 0.55,0.12 -0.21,-0.02 0.65,0 0,0 0.67,0 0,0 0.65,0 0,0 0.64,0 0,0 0.65,0 0,0 0.65,0 0,0 0.65,0 0,0 0.69,0 0,0 0.8,0 0,0 0.76,0 0,0 0.75,0 0.12,0.02 0.81,0.1 -0.09,0 0.77,0 0,0 0.79,0 0,0 0.77,0 0,0 0.88,0 0,0 0.96,0 0,0 0.89,0 0,0 1.06,0 0,0 0.93,0 0,0 0.92,0 0.09,0.02 1.03,0.12 -0.12,0 0.94,0 0,0 1.03,0 0,0 0.94,0 -0.1,0 1.03,-0.14 0.12,0 0.92,0 0,0 0.93,0 0,0 0.75,0 0.09,0 1.08,0.14 -0.09,0 1,0 0,0 0.92,0 0,0 0.91,0 0,0 0.93,0 0,0 0.92,-0.02 0,0 1.08,0.02 -0.12,0 0.91,-0.14 0.09,0 0.92,0 0,0 0.76,0 0,0 0.94,0 -0.1,0 0.94,-0.12 0.1,0 0.91,0 0,0 0.77,0 0,0 0.76,0 -0.14,0.02 0.79,-0.14 0,0 0.79,-0.15 0.15,-0.02 0.77,0 0,0 0.67,0 0,0 0.79,0 -0.17,0.02 0.67,-0.14 0.05,0 0.79,-0.12 -0.07,0 0.63,-0.14 0.04,0 0.7,-0.12 -0.1,0.02 0.51,-0.14 0,-0.03 0.5,-0.12 0.03,0 0.52,-0.14 -0.14,0.05 0.5,-0.27 0.15,-0.02 0.38,-0.12 -0.24,0.12 0.41,-0.29 0.19,-0.12 0.41,-0.12 -0.19,0.07 0.36,-0.24 -0.05,0.03 0.14,-0.1 -0.07,0.05 0.29,-0.29 -0.05,0.07 0.12,-0.14 0.07,-0.1 0.12,-0.09 0.05,-0.05 0.17,-0.12 -0.05,0.02 0.12,-0.12 -0.05,0.05 0.17,-0.17 -0.21,0.51 0,-0.1 0.04,-0.22 0.12,-0.38 -0.02,0.19 0,-0.12 0,0 0,-0.12 0.02,-0.24 0.17,-0.38 -0.02,0.02 0.12,-0.41 -0.03,0.2 0,-0.51 0,0 0,-0.55 0,0 0,-0.65 0,0 0,-0.38 0,0 0,-0.41 0,0 0,-0.5 0,0 0,-0.58 0,0 0,-0.5 0,0 0,-0.51 0,0 0,-0.57 0,0 0,-0.65 0,0 0,-0.65 0.03,0.1 -0.1,-0.8 0,0.05 -0.14,-0.65 -0.03,-0.14 0,-0.84 0,0 0,-0.89 0.03,0.05 -0.12,-1.18 0,0 -0.15,-1.05 0,-0.03 -0.12,-0.91 0,0.03 -0.14,-1.06 0,-0.05 -0.12,-1.03 0,0 -0.12,-0.94 0,0.03 -0.12,-0.94 -0.02,-0.09 0,-1.18 0,0 0,-1.2 0,0 0,-1.18 0,0 0,-0.93 0.02,0.09 -0.17,-0.91 0,-0.12 0,-0.79 0,0.12 -0.12,-0.79 -0.02,-0.12 0,-0.65 0.02,0.14 -0.12,-0.55 0,-0.14 0,-0.53 0,0.14 -0.14,-0.64 0,-0.03 -0.12,-0.69 0,0.02 -0.1,-0.67 0,0.09 -0.17,-0.5 0,-0.07 -0.12,-0.55 0.12,0.26 -0.28,-0.38 -0.03,-0.05 -0.26,-0.43 0.09,0.12 -0.24,-0.24 -0.02,-0.03 -0.24,-0.24 0.14,0.1 -0.43,-0.29 0.17,0.1 -0.26,-0.1 -0.32,-0.22 -0.14,-0.16 0.05,0.04 -0.12,-0.12 0.26,0.17 -0.41,-0.14 0.27,0.05 -0.15,0 0,0 -0.12,0 0,0 -0.4,0 -0.24,-0.03 -0.39,-0.14 0,0 -0.41,-0.15 0.05,0 -0.38,-0.09 -0.03,-0.03 -0.43,-0.12 0.03,0 -0.36,-0.12 -0.03,0 -0.41,-0.14 0.24,0.05 -0.38,0 -0.19,-0.03 -0.53,-0.14 -0.02,-0.02 -0.51,-0.12 0.05,0 -0.53,-0.12 0.17,0.02 -0.55,0 -0.19,-0.02 -0.53,-0.12 0.02,0 -0.5,-0.12 0.14,0 -0.53,0 0,0 -0.36,0 -0.19,0 -0.55,-0.15 0,0 -0.5,-0.14 0.19,0.02 -0.41,0 0,0 -0.53,0 0,0 -0.48,0 0,0 -0.69,0 0,0 -0.51,0 0,0 -0.53,0 0.2,-0.02 -0.51,0.14 -0.21,0.03 -0.51,0 0,0 -0.57,0 0,0 -0.63,0 0,0 -0.48,0 0,0 -0.55,0 0,0 -0.65,0 0,0 -0.55,0 0,0 -0.62,0 0,0 -0.68,0 0,0 -0.62,0 0,0 -0.7,0 0,0 -0.6,0 0,0 -0.69,0 0,0 -0.79,0 0,0 -0.65,0 0,0 -0.65,0 -0.14,0 -0.75,-0.15 0.12,0 -0.79,0 -0.12,0 -0.77,-0.12 -0.02,0 -0.94,-0.12 0.12,0 -0.77,0 -0.14,-0.02 -0.77,-0.15 0.05,0 -0.82,-0.09 -0.04,-0.03 -0.77,-0.12 0.14,0 -0.77,0 -0.07,0 -0.96,-0.12 -0.02,0 -1.06,-0.16 0.03,0 -0.8,-0.12 0,0 -0.93,-0.15 -0.07,-0.02 -0.92,-0.27 0.08,0.03 -0.89,-0.15 -0.07,0 -0.94,-0.26 0.1,0.02 -1.06,-0.14 0.02,0 -0.93,-0.12 0,0 -0.91,-0.14 0.09,0 -0.79,0 0,0 -0.79,0 -0.07,0 -0.92,-0.12 -0.04,0 -0.92,-0.2 0.05,0.03 -0.93,-0.12 -0.03,0 -0.89,-0.15 0,0 -0.76,-0.12 0.09,0 -0.79,0 0,0 -0.79,0 0,0 -0.79,0 0,0 -0.92,0 0,0 -0.79,0 0.1,0 -0.75,0.12 0.03,0 -0.65,0.12 -0.05,0.03 -0.79,0.12 0.07,-0.03 -0.67,0.17 -0.05,0.03 -0.62,0.09 0.12,-0.02 -0.7,0.26 -0.046,0 -0.528,0.15 0,0 -0.408,0.09 0.24,-0.09 -0.408,0.28 -0.072,0.03 -0.216,0.14 0.096,-0.09 -0.264,0.26 -0.072,0.05 -0.408,0.26 0.096,-0.07 -0.12,0.12 0.048,-0.05 -0.096,0.15 -0.144,0.12 -0.192,0.12 0.144,-0.12 -0.12,0.12 0.168,-0.41 0,0.14 -0.048,0.19 -0.096,0.39 -0.048,0.09 -0.168,0.36 0.048,-0.09 -0.12,0.41 0,0.04 -0.12,0.36 0.024,-0.19 0,0.15 0,0 0,0.4 0,0 0,0.39 0,0.02 0,0.15 0,-0.03 0,0.15 0,0 0,0.12 0,0 0,0.12 0,0 0,0.12 0,0 0,0.43 0,0 0,0.38 0,0 0,0.12 0,0 0,0.43 0,0 0,0.36 -0.024,0.17 -0.144,0.55 0,0 -0.144,0.53 0,-0.17 0,0.65 0,0 0,0.84 0,0 0,0.77 0,0 0,0.79 0,0 0.024,0.79 0,0.03 -0.024,0.79 0,0 0,0.79 0,0 0,0.79 0,0 0,0.82 0,-0.02 0,0.91 0,0.07 -0.168,1.06 0,-0.08 0,1.08 0,0 0,1.06 0,0 0,1.03 -0.024,0.07 -0.12,1.06 0,0.02 -0.144,0.96 0,-0.09 0,0.79 0,0.07 -0.144,0.79 0,0 -0.096,0.82 0,0 -0.192,1.03 0,-0.02 -0.12,1.2 0,0 -0.12,1.2 0,-0.07 0,1.17 0,0.1 -0.144,0.93 -0.024,0.03 -0.144,0.67 0,0.02 -0.168,0.65 0,0 -0.144,0.63 0,0 -0.192,0.79 0,0 -0.192,0.79 0,-0.05 -0.096,0.82 -0.024,0.02 -0.192,0.65 0,-0.05 -0.144,0.82 c 0,0.12 -0.144,0.19 -0.264,0.19 -0.144,-0.05 -0.216,-0.17 -0.192,-0.29 z" /><text
       xml:space="preserve"
       style="font-style:normal;font-variant:normal;font-weight:normal;font-stretch:normal;font-size:24.00000191px;line-height:120.00000477%;font-family:Milanotica;-inkscape-font-specification:'Milanotica, Normal';text-align:start;letter-spacing:0px;word-spacing:0px;writing-mode:lr-tb;text-anchor:start;fill:#ff99ff;fill-opacity:1;stroke:none;stroke-width:1px;stroke-linecap:butt;stroke-linejoin:miter;stroke-opacity:1"
       x="104.5661"
       y="-573.89557"
       id="text3584"
       sodipodi:linespacing="120%"
       transform="scale(1,-1)"><tspan
         sodipodi:role="line"
         id="tspan3586"
         x="104.5661"
         y="-573.89557">load</tspan></text>
<text
       xml:space="preserve"
       style="font-style:normal;font-variant:normal;font-weight:normal;font-stretch:normal;font-size:24.00000191px;line-height:120.00000477%;font-family:Milanotica;-inkscape-font-specification:'Milanotica, Normal';text-align:start;letter-spacing:0px;word-spacing:0px;writing-mode:lr-tb;text-anchor:start;fill:#ff99ff;fill-opacity:1;stroke:none;stroke-width:1px;stroke-linecap:butt;stroke-linejoin:miter;stroke-opacity:1"
       x="112.16386"
       y="-648.08081"
       id="text3584-4-5-1"
       sodipodi:linespacing="120%"
       transform="scale(1,-1)"><tspan
         sodipodi:role="line"
         id="tspan3586-5-9-2"
         x="112.16386"
         y="-648.08081">gep</tspan></text>
<text
       xml:space="preserve"
       style="font-style:normal;font-variant:normal;font-weight:normal;font-stretch:normal;font-size:24.00000191px;line-height:120.00000477%;font-family:Milanotica;-inkscape-font-specification:'Milanotica, Normal';text-align:start;letter-spacing:0px;word-spacing:0px;writing-mode:lr-tb;text-anchor:start;fill:#00ffff;fill-opacity:1;stroke:none;stroke-width:1px;stroke-linecap:butt;stroke-linejoin:miter;stroke-opacity:1"
       x="79.192505"
       y="-713.6156"
       id="text3584-4-5-1-5"
       sodipodi:linespacing="120%"
       transform="scale(1,-1)"><tspan
         sodipodi:role="line"
         id="tspan3586-5-9-2-9"
         x="79.192505"
         y="-713.6156">%src</tspan></text>
<text
       xml:space="preserve"
       style="font-style:normal;font-variant:normal;font-weight:normal;font-stretch:normal;font-size:24.00000191px;line-height:120.00000477%;font-family:Milanotica;-inkscape-font-specification:'Milanotica, Normal';text-align:start;letter-spacing:0px;word-spacing:0px;writing-mode:lr-tb;text-anchor:start;fill:#ff99ff;fill-opacity:1;stroke:none;stroke-width:1px;stroke-linecap:butt;stroke-linejoin:miter;stroke-opacity:1"
       x="159.35359"
       y="-713.74493"
       id="text3584-1"
       sodipodi:linespacing="120%"
       transform="scale(1,-1)"><tspan
         sodipodi:role="line"
         id="tspan3586-0"
         x="159.35359"
         y="-713.74493">get_gid(0)</tspan></text>
<path
       inkscape:connector-curvature="0"
       id="path28-9"
       style="fill:#00ffff;fill-opacity:1;fill-rule:nonzero;stroke:none"
       d="m 72.492536,732.98213 0,-0.192 0.02,0.08 -0.02,-0.112 -0.03,-0.08 -0.02,-0.304 0,-0.024 0,-0.52 0,0 0,-0.512 0,-0.064 0.12,-0.768 0,0.024 0.1,-0.848 0,0.04 -0.03,-0.848 0,0 0,-0.864 0,0 -0.02,-1.784 0.02,0.04 -0.12,-0.944 0,-0.056 -0.02,-1.8 0,0 0,-0.736 0,0 0,-0.744 0,0 0,-0.96 0,0 0,-1.784 0,0 0,-0.96 0,0.056 -0.15,-1.08 0,-0.032 -0.02,-0.96 0,0 0,-0.864 0,0.016 0,-0.728 0,0 -0.02,-0.752 0.02,-0.072 0.12,-0.752 0,0.08 0,-0.848 0,0 0,-0.752 0,0 0,-0.84 0,-0.04 0.1,-0.848 0,0.064 -0.03,-0.656 0,0 0,-0.632 0,0.016 0,-0.536 0,0 0,-0.44 0,0 -0.02,-0.408 0.02,-0.112 0.1,-0.44 0,0.112 0,-0.304 0.05,-0.232 0.16,-0.304 -0.02,0.056 0.12,-0.312 0,-0.032 0.17,-0.328 0.14,-0.176 0.1,-0.096 -0.15,0.192 0.15,-0.328 0.07,-0.128 0.26,-0.312 0.03,-0.016 0.38,-0.368 0.05,-0.04 0.43,-0.304 0.05,-0.04 0.36,-0.192 0.07,-0.04 0.53,-0.224 0.07,-0.024 0.7,-0.232 0,0 0.6,-0.208 0.12,-0.016 0.65,-0.12 0,0 0.64,-0.112 0.05,0 0.79,-0.096 -0.07,0 0.94,-0.192 0.05,-0.024 0.76,-0.112 0.03,0 0.91,-0.112 0,0 0.91,-0.12 0.05,0 0.91,-0.096 -0.02,0 0.89,-0.112 0.12,0 0.79,0 -0.1,0 0.91,-0.096 0.1,0 1.06,0 -0.1,0 1.18,-0.096 0.07,0 1.08,0 0,0 1.15,0 0,0 1.06,0 0,0 1.29,0 0,0 1.200001,0 0,0 1.15,0 0.08,0 1.32,0.096 -0.03,0 1.349999,0.096 -0.03,0 2.210004,0.112 0.05,0 0.91,0.096 0,0 1.17999,0.096 0,0 1.15,0.136 0,0 2.25,0.232 -0.02,-0.024 1.03,0.096 -0.02,0 1.2,0.096 0,0 1.32,0.12 0,0 1.32,0.096 0,0.016 1.17,0.096 0.05,0.024 1.3,0.208 -0.03,-0.016 1.16,0.112 -0.03,0 1.2,0.096 0.03,0 1.15,0.136 0,0 1.03,0.096 0.02,0 1.08,0.112 0,0 0.87,0.08 0.09,0.016 0.94,0.216 -0.07,-0.024 0.81,0.12 0.12,0.016 0.75,0.232 0.02,0.016 0.65,0.192 -0.07,-0.016 0.43,0.096 0.02,0.016 0.51,0.136 -0.03,-0.016 0.41,0.096 0.15,0.056 0.24,0.096 0.12,0.056 0.12,0.096 0.12,0.056 0.09,0.12 -0.14,-0.12 0.38,0.216 0.15,0.096 0.26,0.224 0.05,0.064 0.26,0.288 0.05,0.072 0.26,0.424 0,0.04 0.29,0.536 0.03,0.04 0.28,0.632 0.03,0.096 0.12,0.656 0,0 0.09,0.744 0,-0.016 0.15,0.824 0,0 0.12,0.752 0,0.072 0,0.632 0,-0.096 0.14,0.656 0,0.016 0.15,0.848 0,0 0.14,0.712 0,0.04 0.1,0.864 0.02,0.016 0.1,1.712 0,0.016 0,0.96 0,-0.08 0.14,0.848 0,-0.016 0.14,0.744 0,0.04 0.12,0.944 0,0 0.12,0.96 0,0 0.12,0.96 0,-0.024 0.15,1.04 0,0 0.14,0.976 0,-0.016 0.15,0.84 0,0.024 0.12,0.744 0,0 0.09,0.736 0.03,0.056 0,0.744 0,0 0,0.752 -0.03,-0.08 0.15,0.848 0,0.08 0,0.824 0,0 0,0.768 0,0 0.02,0.728 0,0 0,0.632 0,0 0,0.536 -0.02,0.12 -0.12,0.44 -0.03,0.016 -0.09,0.312 0,0 -0.12,0.328 0,0.032 -0.15,0.312 0,-0.024 -0.14,0.352 0,0.032 -0.15,0.288 0.03,-0.032 -0.12,0.304 0,0.04 -0.15,0.328 0.03,-0.04 -0.12,0.328 -0.05,0.096 -0.14,0.224 -0.2,0.192 -0.14,0.096 0.24,-0.304 -0.1,0.328 -0.09,0.152 -0.27,0.304 -0.04,0.064 -0.15,0.128 -0.02,0.024 -0.24,0.208 0,-0.016 -0.15,0.136 -0.28,0.152 -0.41,0.112 -0.05,0.024 -0.38,0.096 -0.03,0 -0.5,0.096 -0.19,0.032 -0.53,0 0.12,-0.016 -0.63,0.096 -0.14,0 -0.55,0 0.02,0 -0.65,0 0,0 -0.64,0 0,0 -0.8,0 0,0 -0.76,0 0.12,0 -0.96,0.112 -0.12,0 -1.01,0 0,0 -1.2,0 0,0 -1.03,0 0,0 -0.92,0 0,0 -1.05,0 0,0 -1.03,0 0.09,0 -1.05,0.12 -0.1,0 -1.2,0 0,0 -1.15,0 0,0 -1.32,0 0,0 -1.3,0 0,0 -1.17,0 0,0 -1.2,-0.024 0,0 -1.32,0 0,0 -1.16,0 0,0 -1.33999,0.024 -0.02,-0.024 -2.090004,-0.096 0.05,0 -0.77,0 -0.07,0 -1.08,-0.128 0,0.016 -1.059999,-0.096 0,0 -1.15,-0.112 0,0 -1.15,-0.096 0,0 -1.250001,-0.096 0,0 -1.15,-0.136 0,0 -1.18,-0.12 0.02,0 -1.05,-0.072 0.07,0 -1.03,0 -0.12,0 -0.91,-0.12 0.02,0 -0.91,-0.096 -0.05,0 -0.91,-0.112 0,0 -0.79,-0.112 0.12,0 -0.77,0 0,0 -0.79,0 0,0 -0.65,0 0,0 -0.65,0 0,0 -0.53,0 0,0 -0.53,0 0,0 -0.52,0 0,0 -0.41,0 -0.17,0 -0.5,-0.096 0.16,0.016 -0.38,0 -0.29,-0.04 -0.36,-0.112 0.27,0.04 -0.39,0 -0.26,-0.04 -0.39,-0.096 0.24,0.016 -0.38,0 0,0 -0.12,0 -0.02,0 -0.15,0 -0.19,-0.016 -0.41,-0.096 -0.07,-0.024 -0.36,-0.128 0.05,0.016 -0.43,-0.112 -0.03,0 -0.38,-0.136 0.05,0.016 -0.39,-0.096 0.24,0.024 -0.09,0 -0.03,0 -0.19,0 0.1,0 -0.12,0.016 -0.05,0 -0.15,0 0,0 -0.14,0.016 -0.02,0 -0.15,0 -0.05,0 -0.12,-0.016 0.03,0 -0.1,0 -0.12,-0.016 -0.12,0 0.05,0 -0.14,-0.024 -0.29,-0.072 -0.24,-0.12 -0.27,-0.232 -0.07,-0.112 0.07,0.08 -0.12,-0.12 -0.07,-0.096 -0.02,-0.04 0,0 -0.03,-0.056 -0.02,-0.04 -0.12,-0.456 c 0,-0.08 0.05,-0.152 0.14,-0.192 0.1,-0.024 0.2,0 0.27,0.072 l 0.31,0.384 c 0.1,0.096 0.07,0.232 -0.05,0.312 -0.09,0.096 -0.26,0.112 -0.38,0.056 -0.15,-0.08 -0.22,-0.208 -0.15,-0.328 l 0.03,-0.04 0,-0.016 0.02,-0.04 c 0.07,-0.136 0.22,-0.232 0.39,-0.264 0.19,-0.04 0.36,0 0.5,0.072 l 0.17,0.096 -0.1,-0.04 0.12,0.04 0.03,0.024 0.26,0.096 -0.38,-0.064 0.14,0 -0.05,0 0.12,-0.016 0.12,-0.016 0.1,0 -0.03,0 0.12,0 0.05,0 0.15,0 0.02,0 0.14,0 0,0 0.15,0 0.05,0 0.12,0.016 -0.1,0 0.19,0 0.03,0 0.09,0 0.15,0.016 0.4,0.096 0.03,0 0.38,0.096 0,0 0.43,0.12 0.03,0 0.38,0.096 -0.05,0 0.39,0.096 -0.22,-0.024 0.15,0 0.02,-0.016 0.12,0 0,0 0.38,0 0.27,0.04 0.38,0.112 -0.24,-0.04 0.39,0 0.28,0.064 0.36,0.096 -0.26,-0.04 0.38,0 0.17,0.016 0.51,0.096 -0.17,-0.016 0.41,0 0,0 0.52,0 0,0 0.53,0 0,0 0.53,0 0,0 0.65,0 0,0 0.65,0 0,0 0.79,0 0,0 0.77,0 0.14,0 0.79,0.136 -0.02,0 0.910001,0.096 -0.02,0 0.929999,0.096 0.03,0 0.91,0.112 -0.12,-0.016 1.03,0 0.1,0.016 1.05,0.08 0,0 1.18,0.128 0,0 1.150001,0.096 0,0 1.2,0.12 0,0 1.18,0.096 0,0 1.17,0.096 -0.02,0 1.049999,0.096 0.03,0 1.08,0.112 -0.12,0 0.77,0 0.07,0 2.060004,0.12 -0.07,0 1.33999,0 0,0 1.16,0 0,0 1.32,0 0,0 1.2,0 0,0 1.17,0 0,0 1.3,0 0,0 1.32,0 0,0 1.15,0 0,0 1.2,0 -0.1,0 1.04,-0.12 0.12,0 1.03,0 0,0 1.05,0 0,0 0.92,0 0,0 1.03,0 0,0 1.2,-0.016 0,0 1.01,0 -0.1,0.016 0.94,-0.112 0.12,0 0.76,0 0,0 0.8,0 0,0 0.64,0 0,0 0.65,0 -0.02,0 0.55,0 -0.12,0 0.65,-0.096 0.12,0 0.53,0 -0.22,0.016 0.5,-0.112 0,0 0.39,-0.096 -0.03,0.016 0.39,-0.112 -0.27,0.136 0.15,-0.12 0,0.024 0.26,-0.216 0.03,-0.016 0.16,-0.096 -0.14,0.112 0.26,-0.304 -0.09,0.152 0.12,-0.304 c 0.02,-0.136 0.12,-0.232 0.24,-0.312 l 0.12,-0.096 -0.19,0.216 0.16,-0.232 -0.07,0.096 0.12,-0.312 0.03,-0.032 0.12,-0.328 0,0.04 0.12,-0.328 0.02,-0.056 0.14,-0.288 0,0.016 0.15,-0.344 0,0 0.14,-0.312 -0.02,0.024 0.12,-0.312 0,0 0.12,-0.304 0,0 0.17,-0.424 -0.05,0.152 0,-0.536 0,0 0,-0.632 0,0 0,-0.728 0,0 0,-0.768 0,0 0,-0.824 0.02,0.056 -0.14,-0.824 0,-0.08 0,-0.752 0,0 0,-0.744 0,0.072 -0.12,-0.744 0,0 -0.12,-0.728 0,0 -0.12,-0.832 0,-0.016 -0.15,-0.976 0,0 -0.14,-1.056 0,0 -0.12,-0.96 0,0.016 -0.14,-0.96 0,0 -0.12,-0.96 0.02,0.04 -0.14,-0.752 0,-0.016 -0.17,-0.824 0,-0.08 0,-0.96 0,0.04 -0.12,-1.712 0,0.04 -0.1,-0.864 0,0.016 -0.14,-0.704 0,-0.024 -0.15,-0.84 0,0.016 -0.12,-0.656 -0.02,-0.096 0,-0.632 0.02,0.056 -0.12,-0.744 0,0.016 -0.14,-0.824 0,0 -0.12,-0.752 0,0.024 -0.1,-0.632 0.03,0.096 -0.29,-0.64 0.02,0.024 -0.28,-0.536 0,0.016 -0.24,-0.424 0.04,0.08 -0.26,-0.312 0.05,0.064 -0.24,-0.232 0.12,0.096 -0.39,-0.192 -0.16,-0.136 -0.12,-0.112 0.12,0.096 -0.15,-0.096 0.1,0.056 -0.27,-0.136 0.15,0.056 -0.39,-0.072 -0.02,-0.024 -0.5,-0.136 0.04,0.024 -0.45,-0.096 -0.05,-0.024 -0.67,-0.208 0.02,0 -0.77,-0.232 0.12,0.04 -0.81,-0.112 -0.03,-0.024 -0.96,-0.192 0.1,0 -0.86,-0.072 0,0 -1.08,-0.12 0,0 -1.04,-0.096 -0.04,0 -1.16,-0.112 0.03,0 -1.2,-0.096 0,0 -1.15,-0.12 -0.05,-0.016 -1.32,-0.192 0.05,0 -1.16,-0.112 0,0 -1.32,-0.12 0,0 -1.32,-0.112 0.03,0.016 -1.2,-0.096 0,0 -1.03,-0.096 0,0 -2.26,-0.232 0,0 -1.15,-0.112 0,0 -1.14999,-0.112 0,0 -0.94,-0.08 0.02,0 -2.200004,-0.136 0,0 -1.349999,-0.072 -0.02,0 -1.3,-0.12 0.07,0 -1.15,0 0,0 -1.2,0 0,0 -1.290001,0 0,0 -1.06,0 0,0 -1.15,0 0,0 -1.08,0 0.07,0 -1.15,0.12 -0.07,0 -1.059999,0 0.07,0 -0.910001,0.072 -0.07,0.024 -0.79,0 0.09,-0.024 -0.86,0.12 -0.05,0.016 -0.91,0.08 0,0 -0.94,0.112 0,0 -0.91,0.112 0.05,-0.016 -0.77,0.136 0.05,-0.024 -0.94,0.216 -0.09,0 -0.8,0.096 0.05,0 -0.65,0.096 0,0 -0.64,0.112 0.09,-0.016 -0.62,0.192 0.02,0 -0.69,0.232 0.07,-0.024 -0.55,0.232 0.07,-0.04 -0.39,0.192 0.05,-0.016 -0.41,0.288 0.05,-0.056 -0.36,0.344 0.05,-0.056 -0.26,0.304 0.09,-0.136 -0.14,0.328 -0.17,0.208 -0.12,0.08 0.17,-0.192 -0.15,0.328 0.03,-0.04 -0.12,0.328 -0.03,0.056 -0.19,0.328 0.07,-0.192 -0.02,0.304 0,0.12 -0.12,0.416 0.02,-0.096 -0.02,0.408 0,0 0,0.44 0,0 0,0.536 0,-0.016 0,0.632 0,0 -0.02,0.656 0,0.032 -0.12,0.848 0,-0.056 0,0.84 0,0 0,0.752 0,0 -0.03,0.848 0,0.056 -0.14,0.744 0.02,-0.056 -0.02,0.752 0,0 0,0.728 0,-0.016 0,0.864 0,0 -0.03,0.96 0,-0.04 0.15,1.056 0,0.04 0,0.96 0,0 0,1.784 0,0 0,0.96 0,0 0,0.744 0,0 0,0.736 0,0 -0.03,1.8 0,-0.04 0.1,0.96 0.02,0.04 -0.02,1.784 0,0 0,0.864 0,0 -0.02,0.848 0,0.04 -0.12,0.84 0,0.024 -0.17,0.768 0,-0.056 0,0.512 0,0 0,0.52 0,0.024 -0.03,0.304 -0.02,0.08 -0.02,0.112 0.02,-0.08 0,0.192 c 0,0.176 -0.19,0.312 -0.41,0.312 -0.19,0 -0.38,-0.136 -0.38,-0.312 z" /><path
       style="fill:#ff99ff;stroke:#ff99ff;stroke-width:0.16000001;stroke-miterlimit:4;stroke-dasharray:none;stroke-opacity:1"
       id="path4470"
       d="m 108.5188,665.52068 c 0.0869,0.48224 0.24298,0.95071 0.42731,1.4038 0.18131,0.34925 0.41506,0.66638 0.64018,0.9876 0.45945,0.64222 1.36769,-0.008 0.90824,-0.64977 l 0,0 c -0.18225,-0.2454 -0.34751,-0.50317 -0.51409,-0.75887 -0.15804,-0.388 -0.29502,-0.78805 -0.36659,-1.20177 -0.15487,-0.77431 -1.24991,-0.5553 -1.09505,0.21901 z"
       inkscape:connector-curvature="0" /></g></svg>